<?xml version="1.0" encoding="UTF-8" standalone="no"?>
<!-- Created with Inkscape (http://www.inkscape.org/) -->

<svg
   width="160.14459mm"
   height="154.5724mm"
   viewBox="0 0 160.1446 154.5724"
   version="1.1"
   id="svg1"
   inkscape:version="1.4 (e7c3feb1, 2024-10-09)"
   sodipodi:docname="EA_natural_selection.svg"
   xmlns:inkscape="http://www.inkscape.org/namespaces/inkscape"
   xmlns:sodipodi="http://sodipodi.sourceforge.net/DTD/sodipodi-0.dtd"
   xmlns="http://www.w3.org/2000/svg"
   xmlns:svg="http://www.w3.org/2000/svg">
  <sodipodi:namedview
     id="namedview1"
     pagecolor="#ffffff"
     bordercolor="#000000"
     borderopacity="0.25"
     inkscape:showpageshadow="2"
     inkscape:pageopacity="0.0"
     inkscape:pagecheckerboard="0"
     inkscape:deskcolor="#d1d1d1"
     inkscape:document-units="mm"
     inkscape:zoom="0.88292212"
     inkscape:cx="482.48876"
     inkscape:cy="456.4389"
     inkscape:window-width="1824"
     inkscape:window-height="1227"
     inkscape:window-x="2697"
     inkscape:window-y="25"
     inkscape:window-maximized="0"
     inkscape:current-layer="layer1" />
  <defs
     id="defs1">
    <rect
       x="423.94318"
       y="641.67487"
       width="276.48468"
       height="49.536839"
       id="rect17" />
    <rect
       x="142.70235"
       y="590.98602"
       width="343.37848"
       height="62.209049"
       id="rect16" />
    <rect
       x="142.70235"
       y="590.98602"
       width="343.37848"
       height="62.209049"
       id="rect18" />
    <rect
       x="142.70235"
       y="590.98602"
       width="390.40781"
       height="51.520569"
       id="rect19" />
    <rect
       x="142.70235"
       y="590.98602"
       width="390.40781"
       height="51.520569"
       id="rect20" />
    <rect
       x="142.70235"
       y="590.98602"
       width="390.40781"
       height="51.520569"
       id="rect21" />
  </defs>
  <g
     inkscape:label="Layer 1"
     inkscape:groupmode="layer"
     id="layer1"
     transform="translate(-44.635937,-3.4441407)">
    <circle
       style="fill:#aaccff;stroke:#000000;stroke-width:0.3;stroke-dasharray:none"
       id="path1"
       cx="131.45824"
       cy="30.638527"
       r="4.5511346" />
    <circle
       style="fill:#80b3ff;stroke:#000000;stroke-width:0.3;stroke-dasharray:none"
       id="circle1"
       cx="61.126019"
       cy="45.844303"
       r="4.5511346" />
    <circle
       style="fill:#5599ff;stroke:#000000;stroke-width:0.3;stroke-dasharray:none"
       id="circle2"
       cx="87.070351"
       cy="50.545437"
       r="4.5511346" />
    <circle
       style="fill:#2a7fff;stroke:#000000;stroke-width:0.3;stroke-dasharray:none"
       id="circle3"
       cx="103.61243"
       cy="24.221281"
       r="4.5511346" />
    <circle
       style="fill:#0066ff;stroke:#000000;stroke-width:0.3;stroke-dasharray:none"
       id="circle4"
       cx="141.27014"
       cy="50.545437"
       r="4.5511346" />
    <circle
       style="fill:#0055d4;stroke:#000000;stroke-width:0.3;stroke-dasharray:none"
       id="circle5"
       cx="113.01462"
       cy="40.040794"
       r="4.5511346" />
    <circle
       style="fill:#0044aa;stroke:#000000;stroke-width:0.3;stroke-dasharray:none"
       id="circle6"
       cx="148.47775"
       cy="35.339661"
       r="4.5511346" />
    <circle
       style="fill:#003380;stroke:#000000;stroke-width:0.3;stroke-dasharray:none"
       id="circle7"
       cx="68.916153"
       cy="28.995121"
       r="4.5511346" />
    <circle
       style="fill:#002255;stroke:#000000;stroke-width:0.3;stroke-dasharray:none"
       id="circle8"
       cx="113.01462"
       cy="55.246571"
       r="4.5511346" />
    <circle
       style="fill:#d5e5ff;stroke:#000000;stroke-width:0.3;stroke-dasharray:none"
       id="circle9"
       cx="89.220581"
       cy="35.339661"
       r="4.5511346" />
    <circle
       style="fill:#0044aa;stroke:#000000;stroke-width:0.3;stroke-dasharray:none"
       id="circle12"
       cx="117.71575"
       cy="131.8763"
       r="4.5511346" />
    <circle
       style="fill:#003380;stroke:#000000;stroke-width:0.3;stroke-dasharray:none"
       id="circle13"
       cx="91.059586"
       cy="129.17929"
       r="4.5511346" />
    <circle
       style="fill:#002255;stroke:#000000;stroke-width:0.3;stroke-dasharray:none"
       id="circle14"
       cx="105"
       cy="144.67732"
       r="4.5511346" />
    <circle
       style="fill:#0000aa;stroke:#000000;stroke-width:0.3;stroke-dasharray:none"
       id="circle15"
       cx="147.20535"
       cy="141.75842"
       r="4.5511346" />
    <circle
       style="fill:#0000d4;stroke:#000000;stroke-width:0.3;stroke-dasharray:none"
       id="circle16"
       cx="160.48663"
       cy="131.8763"
       r="4.5511346" />
    <path
       d="m 165.00712,604.81033 c -0.768,-1.984 -1.376,-2.944 -2.496,-4.032 -1.728,-1.728 -4.16,-2.592 -7.168,-2.592 -3.04,0 -5.472,0.928 -7.328,2.72 -2.368,2.336 -3.648,5.824 -3.648,9.952 0,4 1.216,7.488 3.456,9.728 1.824,1.856 4.416,2.816 7.488,2.816 3.584,0 6.496,-1.312 8.28801,-3.712 0.76799,-1.024 1.18399,-1.92 1.72799,-3.808 l -2.656,-0.64 c -0.288,1.472 -0.60799,2.272 -1.28,3.2 -1.312,1.728 -3.456,2.688 -5.984,2.688 -5.152,0 -8.448,-4.032 -8.448,-10.368 0,-6.368 3.264,-10.336 8.448,-10.336 2.336,0 4.256,0.8 5.536,2.304 0.672,0.768 1.024,1.44 1.504,2.816 z m 15.55202,18.144 h 2.592 c -0.192,-1.28 -0.256,-2.08 -0.256,-3.52 v -8.992 c 0,-3.456 -2.176,-5.248 -6.4,-5.248 -2.4,0 -4.32,0.608 -5.632,1.824 -0.8,0.704 -1.216,1.376 -1.792,2.848 l 2.496,0.544 c 0.32,-0.96 0.576,-1.408 0.992,-1.856 0.896,-0.928 2.208,-1.376 3.968,-1.376 2.656,0 4.032,1.12 4.032,3.296 v 1.856 c -3.936,0.096 -5.472,0.288 -7.36,0.832 -2.976,0.832 -4.576,2.688 -4.576,5.248 0,3.04 2.144,4.864 5.664,4.864 1.088,0 2.24,-0.224 3.328,-0.64 1.088,-0.416 1.696,-0.832 2.944,-1.952 z m 0,-6.656 c 0,1.28 -0.256,1.952 -0.992,2.752 -1.248,1.376 -3.264,2.272 -5.12,2.272 -2.08,0 -3.392,-1.12 -3.392,-2.88 0,-1.536 0.8,-2.624 2.432,-3.296 1.44,-0.608 3.264,-0.832 7.072,-0.928 z m 9.88803,6.656 c -0.16,-1.248 -0.224,-2.208 -0.224,-3.616 v -6.176 c 0.256,-1.28 0.64,-2.08 1.472,-3.168 1.344,-1.728 2.784,-2.528 4.576,-2.528 2.528,0 3.904,1.536 3.904,4.416 v 7.456 c 0,1.408 -0.064,2.368 -0.224,3.616 h 2.88 c -0.16,-1.056 -0.224,-1.952 -0.224,-3.584 v -7.904 c 0,-1.568 -0.288,-2.752 -0.896,-3.68 -1.024,-1.568 -2.816,-2.4 -5.12,-2.4 -2.88,0 -4.96,1.248 -6.464,3.872 0.096,-0.736 0.096,-0.992 0.096,-1.376 v -2.176 h -2.656 c 0.192,1.28 0.256,2.176 0.256,3.616 v 10.016 c 0,1.536 -0.064,2.4 -0.256,3.616 z m 30.432,0 h 2.56 c -0.16,-1.248 -0.224,-2.08 -0.224,-3.68 v -17.024 c 0,-1.408 0.064,-2.336 0.224,-3.616 h -2.816 c 0.16,1.216 0.224,2.144 0.224,3.648 v 4.288 c 0,0.736 0,1.024 0.096,1.696 l 0.032,0.48 c -1.408,-2.208 -3.648,-3.392 -6.56,-3.392 -4.8,0 -7.872,3.488 -7.872,8.96 0,5.568 3.008,8.96 7.936,8.96 2.912,0 4.992,-1.12 6.496,-3.456 -0.064,0.544 -0.096,1.12 -0.096,1.568 z m -6.208,-15.52 c 1.696,0 3.232,0.608 4.352,1.696 1.152,1.12 1.792,2.976 1.792,5.088 0,4.224 -2.4,6.944 -6.144,6.944 -1.792,0 -3.296,-0.672 -4.288,-1.92 -0.832,-1.056 -1.312,-2.88 -1.312,-4.992 0,-4.256 2.112,-6.816 5.6,-6.816 z m 13.31199,-8.8 v 2.848 h 3.104 v -2.848 z m 0.096,7.072 c 0.16,1.12 0.224,2.08 0.224,3.616 v 10.016 c 0,1.344 -0.064,2.24 -0.224,3.616 h 2.88 c -0.16,-1.248 -0.224,-2.144 -0.224,-3.616 v -10.016 c 0,-1.6 0.064,-2.496 0.224,-3.616 z m 21.08803,17.248 h 2.56 c -0.16,-1.248 -0.224,-2.08 -0.224,-3.68 v -17.024 c 0,-1.408 0.064,-2.336 0.224,-3.616 h -2.816 c 0.16,1.216 0.224,2.144 0.224,3.648 v 4.288 c 0,0.736 0,1.024 0.096,1.696 l 0.032,0.48 c -1.408,-2.208 -3.648,-3.392 -6.56,-3.392 -4.8,0 -7.872,3.488 -7.872,8.96 0,5.568 3.008,8.96 7.936,8.96 2.912,0 4.992,-1.12 6.496,-3.456 -0.064,0.544 -0.096,1.12 -0.096,1.568 z m -6.208,-15.52 c 1.696,0 3.232,0.608 4.352,1.696 1.152,1.12 1.792,2.976 1.792,5.088 0,4.224 -2.4,6.944 -6.144,6.944 -1.792,0 -3.296,-0.672 -4.288,-1.92 -0.832,-1.056 -1.312,-2.88 -1.312,-4.992 0,-4.256 2.112,-6.816 5.6,-6.816 z m 24.736,15.52 h 2.592 c -0.192,-1.28 -0.256,-2.08 -0.256,-3.52 v -8.992 c 0,-3.456 -2.176,-5.248 -6.4,-5.248 -2.4,0 -4.32,0.608 -5.632,1.824 -0.8,0.704 -1.216,1.376 -1.792,2.848 l 2.496,0.544 c 0.32,-0.96 0.576,-1.408 0.992,-1.856 0.896,-0.928 2.208,-1.376 3.968,-1.376 2.656,0 4.032,1.12 4.032,3.296 v 1.856 c -3.936,0.096 -5.472,0.288 -7.36,0.832 -2.976,0.832 -4.576,2.688 -4.576,5.248 0,3.04 2.144,4.864 5.664,4.864 1.088,0 2.24,-0.224 3.328,-0.64 1.088,-0.416 1.696,-0.832 2.944,-1.952 z m 0,-6.656 c 0,1.28 -0.256,1.952 -0.992,2.752 -1.248,1.376 -3.264,2.272 -5.12,2.272 -2.08,0 -3.392,-1.12 -3.392,-2.88 0,-1.536 0.8,-2.624 2.432,-3.296 1.44,-0.608 3.264,-0.832 7.072,-0.928 z m 9.02402,-15.36 c 0.16,1.056 0.224,2.272 0.224,3.552 v 1.216 h -1.28 c -1.344,0 -1.984,-0.032 -2.88,-0.192 v 2.432 c 1.056,-0.128 1.792,-0.192 2.88,-0.192 h 1.28 v 11.456 c 0,1.504 0.256,2.432 0.896,3.072 0.64,0.64 1.728,0.992 3.136,0.992 1.312,0 2.304,-0.192 3.616,-0.736 l -0.704,-2.24 c -1.056,0.64 -1.696,0.832 -2.528,0.832 -0.672,0 -1.216,-0.192 -1.568,-0.544 -0.288,-0.288 -0.416,-0.768 -0.416,-1.696 v -11.136 h 1.536 c 1.44,0 2.24,0.032 3.264,0.192 v -2.432 c -1.12,0.16 -1.792,0.192 -3.264,0.192 h -1.536 v -1.216 c 0,-1.376 0.064,-2.528 0.224,-3.552 z m 25.63201,13.76 c -0.064,-0.864 -0.192,-2.112 -0.224,-2.464 -0.64,-4.288 -3.616,-6.944 -7.744,-6.944 -4.8,0 -7.936,3.584 -7.936,9.056 0,5.536 3.168,9.056 8.192,9.056 2.336,0 4.288,-0.768 5.792,-2.24 0.736,-0.736 1.152,-1.312 1.76,-2.656 l -2.24,-0.896 c -0.896,2.464 -2.688,3.744 -5.28,3.744 -1.92,0 -3.488,-0.768 -4.512,-2.176 -0.864,-1.152 -1.184,-2.336 -1.28,-4.48 z m -13.376,-2.016 c 0.192,-1.216 0.352,-1.792 0.8,-2.592 0.96,-1.792 2.592,-2.784 4.544,-2.784 1.536,0 2.784,0.48 3.776,1.44 1.024,0.992 1.504,2.144 1.696,3.936 z m 30.55998,16.992 c -0.16,-1.184 -0.224,-2.112 -0.224,-3.616 v -3.968 c 0,-0.864 -0.032,-1.344 -0.128,-2.24 1.504,2.208 3.776,3.392 6.592,3.392 4.8,0 7.872,-3.488 7.872,-8.928 0,-5.568 -3.008,-8.928 -7.936,-8.928 -2.848,0 -5.088,1.184 -6.528,3.456 0.064,-0.544 0.096,-0.896 0.096,-1.312 v -1.824 h -2.56 c 0.16,1.216 0.224,2.144 0.224,3.68 v 16.704 c 0,1.312 -0.064,2.336 -0.224,3.584 z m 6.016,-8.512 c -1.664,0 -3.264,-0.608 -4.384,-1.696 -1.152,-1.12 -1.824,-3.04 -1.824,-5.12 0,-4.128 2.496,-6.88 6.176,-6.88 3.584,0 5.632,2.496 5.632,6.848 0,4.256 -2.112,6.848 -5.6,6.848 z m 23.26398,1.792 h 2.592 c -0.192,-1.28 -0.256,-2.08 -0.256,-3.52 v -8.992 c 0,-3.456 -2.176,-5.248 -6.4,-5.248 -2.4,0 -4.32,0.608 -5.632,1.824 -0.8,0.704 -1.216,1.376 -1.792,2.848 l 2.496,0.544 c 0.32,-0.96 0.576,-1.408 0.992,-1.856 0.896,-0.928 2.208,-1.376 3.968,-1.376 2.656,0 4.032,1.12 4.032,3.296 v 1.856 c -3.936,0.096 -5.472,0.288 -7.36,0.832 -2.976,0.832 -4.576,2.688 -4.576,5.248 0,3.04 2.144,4.864 5.664,4.864 1.088,0 2.24,-0.224 3.328,-0.64 1.088,-0.416 1.696,-0.832 2.944,-1.952 z m 0,-6.656 c 0,1.28 -0.256,1.952 -0.992,2.752 -1.248,1.376 -3.264,2.272 -5.12,2.272 -2.08,0 -3.392,-1.12 -3.392,-2.88 0,-1.536 0.8,-2.624 2.432,-3.296 1.44,-0.608 3.264,-0.832 7.072,-0.928 z m 18.08003,-10.592 c -1.344,-0.224 -1.888,-0.288 -2.848,-0.288 -1.536,0 -2.624,0.32 -3.84,1.12 -0.672,0.448 -1.152,0.96 -1.76,1.952 0.032,-0.224 0.032,-0.704 0.032,-0.96 v -1.824 h -2.656 c 0.16,1.152 0.224,2.016 0.224,3.616 v 10.016 c 0,1.312 -0.064,2.144 -0.224,3.616 h 2.88 c -0.16,-1.248 -0.224,-2.144 -0.224,-3.584 v -6.528 c 0.128,-1.44 0.416,-2.208 1.184,-3.2 0.96,-1.28 2.304,-1.952 3.936,-1.952 0.8,0 1.376,0.096 2.592,0.48 z m 17.79201,8.992 c -0.064,-0.864 -0.192,-2.112 -0.224,-2.464 -0.64,-4.288 -3.616,-6.944 -7.744,-6.944 -4.8,0 -7.936,3.584 -7.936,9.056 0,5.536 3.168,9.056 8.192,9.056 2.336,0 4.288,-0.768 5.792,-2.24 0.736,-0.736 1.152,-1.312 1.76,-2.656 l -2.24,-0.896 c -0.896,2.464 -2.688,3.744 -5.28,3.744 -1.92,0 -3.488,-0.768 -4.512,-2.176 -0.864,-1.152 -1.184,-2.336 -1.28,-4.48 z m -13.376,-2.016 c 0.192,-1.216 0.352,-1.792 0.8,-2.592 0.96,-1.792 2.592,-2.784 4.544,-2.784 1.536,0 2.784,0.48 3.776,1.44 1.024,0.992 1.504,2.144 1.696,3.936 z m 19.96798,10.272 c -0.16,-1.248 -0.224,-2.208 -0.224,-3.616 v -6.176 c 0.256,-1.28 0.64,-2.08 1.472,-3.168 1.344,-1.728 2.784,-2.528 4.576,-2.528 2.528,0 3.904,1.536 3.904,4.416 v 7.456 c 0,1.408 -0.064,2.368 -0.224,3.616 h 2.88 c -0.16,-1.056 -0.224,-1.952 -0.224,-3.584 v -7.904 c 0,-1.568 -0.288,-2.752 -0.896,-3.68 -1.024,-1.568 -2.816,-2.4 -5.12,-2.4 -2.88,0 -4.96,1.248 -6.464,3.872 0.096,-0.736 0.096,-0.992 0.096,-1.376 v -2.176 h -2.656 c 0.192,1.28 0.256,2.176 0.256,3.616 v 10.016 c 0,1.536 -0.064,2.4 -0.256,3.616 z m 18.912,-22.016 c 0.16,1.056 0.224,2.272 0.224,3.552 v 1.216 h -1.28 c -1.344,0 -1.984,-0.032 -2.88,-0.192 v 2.432 c 1.056,-0.128 1.792,-0.192 2.88,-0.192 h 1.28 v 11.456 c 0,1.504 0.256,2.432 0.896,3.072 0.64,0.64 1.728,0.992 3.136,0.992 1.312,0 2.304,-0.192 3.616,-0.736 l -0.704,-2.24 c -1.056,0.64 -1.696,0.832 -2.528,0.832 -0.672,0 -1.216,-0.192 -1.568,-0.544 -0.288,-0.288 -0.416,-0.768 -0.416,-1.696 v -11.136 h 1.536 c 1.44,0 2.24,0.032 3.264,0.192 v -2.432 c -1.12,0.16 -1.792,0.192 -3.264,0.192 h -1.536 v -1.216 c 0,-1.376 0.064,-2.528 0.224,-3.552 z m 9.6,17.344 c 0.32,1.312 0.544,1.856 1.024,2.528 1.184,1.632 3.424,2.496 6.336,2.496 4.384,0 7.104,-1.984 7.104,-5.184 0,-1.312 -0.544,-2.528 -1.536,-3.328 -0.96,-0.736 -1.984,-1.12 -5.088,-1.824 -1.984,-0.416 -2.816,-0.672 -3.552,-1.088 -0.704,-0.384 -1.088,-1.024 -1.088,-1.76 0,-1.696 1.664,-2.88 4,-2.88 1.44,0 2.592,0.416 3.328,1.216 0.448,0.448 0.608,0.832 0.8,1.696 l 2.528,-0.416 c -0.416,-1.472 -0.864,-2.208 -1.696,-2.912 -1.152,-1.024 -2.848,-1.536 -5.024,-1.536 -2.144,0 -3.872,0.576 -4.992,1.664 -0.896,0.864 -1.376,1.952 -1.376,3.104 0,1.408 0.608,2.592 1.728,3.36 1.088,0.736 2.176,1.12 4.736,1.664 2.368,0.48 3.008,0.672 3.776,1.152 0.672,0.416 0.992,1.088 0.992,1.984 0,1.888 -1.76,3.072 -4.544,3.072 -1.632,0 -2.912,-0.384 -3.712,-1.12 -0.64,-0.576 -0.896,-1.152 -1.12,-2.336 z"
       id="text16"
       style="font-weight:300;font-size:32px;font-family:'Hiragino Kaku Gothic ProN';-inkscape-font-specification:'Hiragino Kaku Gothic ProN, Light';white-space:pre;stroke-width:1.13386"
       transform="matrix(0.26458333,0,0,0.26458333,48.161318,-55.610448)"
       aria-label="Candidate parents" />
    <text
       xml:space="preserve"
       transform="scale(0.26458333)"
       id="text17"
       style="font-style:normal;font-variant:normal;font-weight:300;font-stretch:normal;font-size:32px;font-family:'Hiragino Kaku Gothic ProN';-inkscape-font-specification:'Hiragino Kaku Gothic ProN, Light';font-variant-ligatures:normal;font-variant-caps:normal;font-variant-numeric:normal;font-variant-east-asian:normal;text-align:start;writing-mode:lr-tb;direction:ltr;white-space:pre;shape-inside:url(#rect17);display:inline;fill:#000000;stroke:none;stroke-width:1.13386;stroke-dasharray:none" />
    <path
       d="m 165.00712,604.81033 c -0.768,-1.984 -1.376,-2.944 -2.496,-4.032 -1.728,-1.728 -4.16,-2.592 -7.168,-2.592 -3.04,0 -5.472,0.928 -7.328,2.72 -2.368,2.336 -3.648,5.824 -3.648,9.952 0,4 1.216,7.488 3.456,9.728 1.824,1.856 4.416,2.816 7.488,2.816 3.584,0 6.496,-1.312 8.28801,-3.712 0.76799,-1.024 1.18399,-1.92 1.72799,-3.808 l -2.656,-0.64 c -0.288,1.472 -0.60799,2.272 -1.28,3.2 -1.312,1.728 -3.456,2.688 -5.984,2.688 -5.152,0 -8.448,-4.032 -8.448,-10.368 0,-6.368 3.264,-10.336 8.448,-10.336 2.336,0 4.256,0.8 5.536,2.304 0.672,0.768 1.024,1.44 1.504,2.816 z m 16.73602,18.144 h 2.656 c -0.192,-1.28 -0.256,-2.176 -0.256,-3.616 v -10.016 c 0,-1.472 0.064,-2.496 0.224,-3.616 h -2.848 c 0.16,1.12 0.224,2.24 0.224,3.616 v 6.176 c -0.288,1.28 -0.64,2.08 -1.472,3.2 -1.28,1.728 -2.784,2.528 -4.608,2.528 -2.496,0 -3.872,-1.6 -3.872,-4.448 v -7.456 c 0,-1.408 0.064,-2.496 0.224,-3.616 h -2.88 c 0.16,1.024 0.224,2.144 0.224,3.584 v 7.904 c 0,1.536 0.32,2.784 0.896,3.712 1.024,1.536 2.816,2.368 5.12,2.368 2.88,0 4.864,-1.184 6.464,-3.808 -0.096,0.832 -0.096,1.056 -0.096,1.408 z m 18.272,-17.248 c -1.344,-0.224 -1.888,-0.288 -2.848,-0.288 -1.536,0 -2.624,0.32 -3.84,1.12 -0.672,0.448 -1.152,0.96 -1.76,1.952 0.032,-0.224 0.032,-0.704 0.032,-0.96 v -1.824 h -2.656 c 0.16,1.152 0.224,2.016 0.224,3.616 v 10.016 c 0,1.312 -0.064,2.144 -0.224,3.616 h 2.88 c -0.16,-1.248 -0.224,-2.144 -0.224,-3.584 v -6.528 c 0.128,-1.44 0.416,-2.208 1.184,-3.2 0.96,-1.28 2.304,-1.952 3.936,-1.952 0.8,0 1.376,0.096 2.592,0.48 z m 13.76001,0 c -1.344,-0.224 -1.888,-0.288 -2.848,-0.288 -1.536,0 -2.624,0.32 -3.84,1.12 -0.672,0.448 -1.152,0.96 -1.76,1.952 0.032,-0.224 0.032,-0.704 0.032,-0.96 v -1.824 h -2.656 c 0.16,1.152 0.224,2.016 0.224,3.616 v 10.016 c 0,1.312 -0.064,2.144 -0.224,3.616 h 2.88 c -0.16,-1.248 -0.224,-2.144 -0.224,-3.584 v -6.528 c 0.128,-1.44 0.416,-2.208 1.184,-3.2 0.96,-1.28 2.304,-1.952 3.936,-1.952 0.8,0 1.376,0.096 2.592,0.48 z m 17.79201,8.992 c -0.064,-0.864 -0.192,-2.112 -0.224,-2.464 -0.64,-4.288 -3.616,-6.944 -7.744,-6.944 -4.8,0 -7.936,3.584 -7.936,9.056 0,5.536 3.168,9.056 8.192,9.056 2.336,0 4.288,-0.768 5.792,-2.24 0.736,-0.736 1.152,-1.312 1.76,-2.656 l -2.24,-0.896 c -0.896,2.464 -2.688,3.744 -5.28,3.744 -1.92,0 -3.488,-0.768 -4.512,-2.176 -0.864,-1.152 -1.184,-2.336 -1.28,-4.48 z m -13.376,-2.016 c 0.192,-1.216 0.352,-1.792 0.8,-2.592 0.96,-1.792 2.592,-2.784 4.544,-2.784 1.536,0 2.784,0.48 3.776,1.44 1.024,0.992 1.504,2.144 1.696,3.936 z m 19.96798,10.272 c -0.16,-1.248 -0.224,-2.208 -0.224,-3.616 v -6.176 c 0.256,-1.28 0.64,-2.08 1.472,-3.168 1.344,-1.728 2.784,-2.528 4.576,-2.528 2.528,0 3.904,1.536 3.904,4.416 v 7.456 c 0,1.408 -0.064,2.368 -0.224,3.616 h 2.88 c -0.16,-1.056 -0.224,-1.952 -0.224,-3.584 v -7.904 c 0,-1.568 -0.288,-2.752 -0.896,-3.68 -1.024,-1.568 -2.816,-2.4 -5.12,-2.4 -2.88,0 -4.96,1.248 -6.464,3.872 0.096,-0.736 0.096,-0.992 0.096,-1.376 v -2.176 h -2.656 c 0.192,1.28 0.256,2.176 0.256,3.616 v 10.016 c 0,1.536 -0.064,2.4 -0.256,3.616 z m 18.912,-22.016 c 0.16,1.056 0.224,2.272 0.224,3.552 v 1.216 h -1.28 c -1.344,0 -1.984,-0.032 -2.88,-0.192 v 2.432 c 1.056,-0.128 1.792,-0.192 2.88,-0.192 h 1.28 v 11.456 c 0,1.504 0.256,2.432 0.896,3.072 0.64,0.64 1.728,0.992 3.136,0.992 1.312,0 2.304,-0.192 3.616,-0.736 l -0.704,-2.24 c -1.056,0.64 -1.696,0.832 -2.528,0.832 -0.672,0 -1.216,-0.192 -1.568,-0.544 -0.288,-0.288 -0.416,-0.768 -0.416,-1.696 v -11.136 h 1.536 c 1.44,0 2.24,0.032 3.264,0.192 v -2.432 c -1.12,0.16 -1.792,0.192 -3.264,0.192 h -1.536 v -1.216 c 0,-1.376 0.064,-2.528 0.224,-3.552 z m 24.00001,28.736 c -0.16,-1.184 -0.224,-2.112 -0.224,-3.616 v -3.968 c 0,-0.864 -0.032,-1.344 -0.128,-2.24 1.504,2.208 3.776,3.392 6.592,3.392 4.8,0 7.872,-3.488 7.872,-8.928 0,-5.568 -3.008,-8.928 -7.936,-8.928 -2.848,0 -5.088,1.184 -6.528,3.456 0.064,-0.544 0.096,-0.896 0.096,-1.312 v -1.824 h -2.56 c 0.16,1.216 0.224,2.144 0.224,3.68 v 16.704 c 0,1.312 -0.064,2.336 -0.224,3.584 z m 6.016,-8.512 c -1.664,0 -3.264,-0.608 -4.384,-1.696 -1.152,-1.12 -1.824,-3.04 -1.824,-5.12 0,-4.128 2.496,-6.88 6.176,-6.88 3.584,0 5.632,2.496 5.632,6.848 0,4.256 -2.112,6.848 -5.6,6.848 z m 19.64798,2.208 c 5.152,0 8.48,-3.584 8.48,-9.056 0,-5.504 -3.296,-9.024 -8.512,-9.024 -5.216,0 -8.544,3.52 -8.544,9.056 0,5.536 3.328,9.024 8.576,9.024 z m 0.032,-16.064 c 3.68,0 5.984,2.688 5.984,7.008 0,4.32 -2.304,6.976 -6.048,6.976 -3.744,0 -6.08,-2.656 -6.08,-7.008 0,-4.32 2.336,-6.976 6.144,-6.976 z m 15.008,22.368 c -0.16,-1.184 -0.224,-2.112 -0.224,-3.616 v -3.968 c 0,-0.864 -0.032,-1.344 -0.128,-2.24 1.504,2.208 3.776,3.392 6.592,3.392 4.8,0 7.872,-3.488 7.872,-8.928 0,-5.568 -3.008,-8.928 -7.936,-8.928 -2.848,0 -5.088,1.184 -6.528,3.456 0.064,-0.544 0.096,-0.896 0.096,-1.312 v -1.824 h -2.56 c 0.16,1.216 0.224,2.144 0.224,3.68 v 16.704 c 0,1.312 -0.064,2.336 -0.224,3.584 z m 6.016,-8.512 c -1.664,0 -3.264,-0.608 -4.384,-1.696 -1.152,-1.12 -1.824,-3.04 -1.824,-5.12 0,-4.128 2.496,-6.88 6.176,-6.88 3.584,0 5.632,2.496 5.632,6.848 0,4.256 -2.112,6.848 -5.6,6.848 z m 24.44798,1.792 h 2.656 c -0.192,-1.28 -0.256,-2.176 -0.256,-3.616 v -10.016 c 0,-1.472 0.064,-2.496 0.224,-3.616 h -2.848 c 0.16,1.12 0.224,2.24 0.224,3.616 v 6.176 c -0.288,1.28 -0.64,2.08 -1.472,3.2 -1.28,1.728 -2.784,2.528 -4.608,2.528 -2.496,0 -3.872,-1.6 -3.872,-4.448 v -7.456 c 0,-1.408 0.064,-2.496 0.224,-3.616 h -2.88 c 0.16,1.024 0.224,2.144 0.224,3.584 v 7.904 c 0,1.536 0.32,2.784 0.896,3.712 1.024,1.536 2.816,2.368 5.12,2.368 2.88,0 4.864,-1.184 6.464,-3.808 -0.096,0.832 -0.096,1.056 -0.096,1.408 z m 7.2,-24.32 c 0.16,1.152 0.224,2.016 0.224,3.584 v 17.152 c 0,1.44 -0.064,2.432 -0.224,3.584 h 2.88 c -0.16,-1.28 -0.224,-2.144 -0.224,-3.584 v -17.12 c 0,-1.6 0.064,-2.464 0.224,-3.616 z m 18.81602,24.32 h 2.592 c -0.192,-1.28 -0.256,-2.08 -0.256,-3.52 v -8.992 c 0,-3.456 -2.176,-5.248 -6.4,-5.248 -2.4,0 -4.32,0.608 -5.632,1.824 -0.8,0.704 -1.216,1.376 -1.792,2.848 l 2.496,0.544 c 0.32,-0.96 0.576,-1.408 0.992,-1.856 0.896,-0.928 2.208,-1.376 3.968,-1.376 2.656,0 4.032,1.12 4.032,3.296 v 1.856 c -3.936,0.096 -5.472,0.288 -7.36,0.832 -2.976,0.832 -4.576,2.688 -4.576,5.248 0,3.04 2.144,4.864 5.664,4.864 1.088,0 2.24,-0.224 3.328,-0.64 1.088,-0.416 1.696,-0.832 2.944,-1.952 z m 0,-6.656 c 0,1.28 -0.256,1.952 -0.992,2.752 -1.248,1.376 -3.264,2.272 -5.12,2.272 -2.08,0 -3.392,-1.12 -3.392,-2.88 0,-1.536 0.8,-2.624 2.432,-3.296 1.44,-0.608 3.264,-0.832 7.072,-0.928 z m 9.02402,-15.36 c 0.16,1.056 0.224,2.272 0.224,3.552 v 1.216 h -1.28 c -1.344,0 -1.984,-0.032 -2.88,-0.192 v 2.432 c 1.056,-0.128 1.792,-0.192 2.88,-0.192 h 1.28 v 11.456 c 0,1.504 0.256,2.432 0.896,3.072 0.64,0.64 1.728,0.992 3.136,0.992 1.312,0 2.304,-0.192 3.616,-0.736 l -0.704,-2.24 c -1.056,0.64 -1.696,0.832 -2.528,0.832 -0.672,0 -1.216,-0.192 -1.568,-0.544 -0.288,-0.288 -0.416,-0.768 -0.416,-1.696 v -11.136 h 1.536 c 1.44,0 2.24,0.032 3.264,0.192 v -2.432 c -1.12,0.16 -1.792,0.192 -3.264,0.192 h -1.536 v -1.216 c 0,-1.376 0.064,-2.528 0.224,-3.552 z m 10.49601,-2.304 v 2.848 h 3.104 v -2.848 z m 0.096,7.072 c 0.16,1.12 0.224,2.08 0.224,3.616 v 10.016 c 0,1.344 -0.064,2.24 -0.224,3.616 h 2.88 c -0.16,-1.248 -0.224,-2.144 -0.224,-3.616 v -10.016 c 0,-1.6 0.064,-2.496 0.224,-3.616 z m 15.32802,17.664 c 5.152,0 8.48,-3.584 8.48,-9.056 0,-5.504 -3.296,-9.024 -8.512,-9.024 -5.216,0 -8.544,3.52 -8.544,9.056 0,5.536 3.328,9.024 8.576,9.024 z m 0.032,-16.064 c 3.68,0 5.984,2.688 5.984,7.008 0,4.32 -2.304,6.976 -6.048,6.976 -3.744,0 -6.08,-2.656 -6.08,-7.008 0,-4.32 2.336,-6.976 6.144,-6.976 z m 15.072,15.648 c -0.16,-1.248 -0.224,-2.208 -0.224,-3.616 v -6.176 c 0.256,-1.28 0.64,-2.08 1.472,-3.168 1.344,-1.728 2.784,-2.528 4.576,-2.528 2.528,0 3.904,1.536 3.904,4.416 v 7.456 c 0,1.408 -0.064,2.368 -0.224,3.616 h 2.88 c -0.16,-1.056 -0.224,-1.952 -0.224,-3.584 v -7.904 c 0,-1.568 -0.288,-2.752 -0.896,-3.68 -1.024,-1.568 -2.816,-2.4 -5.12,-2.4 -2.88,0 -4.96,1.248 -6.464,3.872 0.096,-0.736 0.096,-0.992 0.096,-1.376 v -2.176 h -2.656 c 0.192,1.28 0.256,2.176 0.256,3.616 v 10.016 c 0,1.536 -0.064,2.4 -0.256,3.616 z"
       id="text18"
       style="font-weight:300;font-size:32px;font-family:'Hiragino Kaku Gothic ProN';-inkscape-font-specification:'Hiragino Kaku Gothic ProN, Light';white-space:pre;stroke-width:1.13386"
       transform="matrix(0.26458333,0,0,0.26458333,27.602191,-154.82599)"
       aria-label="Current population" />
    <path
       d="m 155.88713,598.63433 c 0.192,1.152 0.256,2.112 0.256,3.584 v 16.928 c 0,1.664 -0.064,2.784 -0.256,3.808 h 2.976 c -0.192,-1.056 -0.256,-2.112 -0.256,-3.808 v -13.664 c 0,-0.832 -0.064,-2.4 -0.192,-3.904 0.448,0.864 1.504,2.688 1.76,3.072 l 10.272,15.424 c 0.864,1.312 1.216,1.952 1.664,2.88 h 3.488 c -0.192,-1.024 -0.256,-1.984 -0.256,-3.584 v -17.056 c 0,-1.632 0.064,-2.528 0.256,-3.68 h -2.976 c 0.192,1.12 0.256,2.112 0.256,3.68 v 13.568 c 0,0.288 0.064,1.696 0.192,4.256 -0.768,-1.376 -1.728,-2.944 -2.08,-3.488 l -10.112,-15.136 c -0.928,-1.44 -1.344,-2.144 -1.632,-2.88 z m 35.90401,24.32 h 2.592 c -0.192,-1.28 -0.256,-2.08 -0.256,-3.52 v -8.992 c 0,-3.456 -2.176,-5.248 -6.4,-5.248 -2.4,0 -4.32,0.608 -5.632,1.824 -0.8,0.704 -1.216,1.376 -1.792,2.848 l 2.496,0.544 c 0.32,-0.96 0.576,-1.408 0.992,-1.856 0.896,-0.928 2.208,-1.376 3.968,-1.376 2.656,0 4.032,1.12 4.032,3.296 v 1.856 c -3.936,0.096 -5.472,0.288 -7.36,0.832 -2.976,0.832 -4.576,2.688 -4.576,5.248 0,3.04 2.144,4.864 5.664,4.864 1.088,0 2.24,-0.224 3.328,-0.64 1.088,-0.416 1.696,-0.832 2.944,-1.952 z m 0,-6.656 c 0,1.28 -0.256,1.952 -0.992,2.752 -1.248,1.376 -3.264,2.272 -5.12,2.272 -2.08,0 -3.392,-1.12 -3.392,-2.88 0,-1.536 0.8,-2.624 2.432,-3.296 1.44,-0.608 3.264,-0.832 7.072,-0.928 z m 9.02402,-15.36 c 0.16,1.056 0.224,2.272 0.224,3.552 v 1.216 h -1.28 c -1.344,0 -1.984,-0.032 -2.88,-0.192 v 2.432 c 1.056,-0.128 1.792,-0.192 2.88,-0.192 h 1.28 v 11.456 c 0,1.504 0.256,2.432 0.896,3.072 0.64,0.64 1.728,0.992 3.136,0.992 1.312,0 2.304,-0.192 3.616,-0.736 l -0.704,-2.24 c -1.056,0.64 -1.696,0.832 -2.528,0.832 -0.672,0 -1.216,-0.192 -1.568,-0.544 -0.288,-0.288 -0.416,-0.768 -0.416,-1.696 v -11.136 h 1.536 c 1.44,0 2.24,0.032 3.264,0.192 v -2.432 c -1.12,0.16 -1.792,0.192 -3.264,0.192 h -1.536 v -1.216 c 0,-1.376 0.064,-2.528 0.224,-3.552 z m 23.10401,22.016 h 2.656 c -0.192,-1.28 -0.256,-2.176 -0.256,-3.616 v -10.016 c 0,-1.472 0.064,-2.496 0.224,-3.616 h -2.848 c 0.16,1.12 0.224,2.24 0.224,3.616 v 6.176 c -0.288,1.28 -0.64,2.08 -1.472,3.2 -1.28,1.728 -2.784,2.528 -4.608,2.528 -2.496,0 -3.872,-1.6 -3.872,-4.448 v -7.456 c 0,-1.408 0.064,-2.496 0.224,-3.616 h -2.88 c 0.16,1.024 0.224,2.144 0.224,3.584 v 7.904 c 0,1.536 0.32,2.784 0.896,3.712 1.024,1.536 2.816,2.368 5.12,2.368 2.88,0 4.864,-1.184 6.464,-3.808 -0.096,0.832 -0.096,1.056 -0.096,1.408 z m 18.272,-17.248 c -1.344,-0.224 -1.888,-0.288 -2.848,-0.288 -1.536,0 -2.624,0.32 -3.84,1.12 -0.672,0.448 -1.152,0.96 -1.76,1.952 0.032,-0.224 0.032,-0.704 0.032,-0.96 v -1.824 h -2.656 c 0.16,1.152 0.224,2.016 0.224,3.616 v 10.016 c 0,1.312 -0.064,2.144 -0.224,3.616 h 2.88 c -0.16,-1.248 -0.224,-2.144 -0.224,-3.584 v -6.528 c 0.128,-1.44 0.416,-2.208 1.184,-3.2 0.96,-1.28 2.304,-1.952 3.936,-1.952 0.8,0 1.376,0.096 2.592,0.48 z m 14.08001,17.248 h 2.592 c -0.192,-1.28 -0.256,-2.08 -0.256,-3.52 v -8.992 c 0,-3.456 -2.176,-5.248 -6.4,-5.248 -2.4,0 -4.32,0.608 -5.632,1.824 -0.8,0.704 -1.216,1.376 -1.792,2.848 l 2.496,0.544 c 0.32,-0.96 0.576,-1.408 0.992,-1.856 0.896,-0.928 2.208,-1.376 3.968,-1.376 2.656,0 4.032,1.12 4.032,3.296 v 1.856 c -3.936,0.096 -5.472,0.288 -7.36,0.832 -2.976,0.832 -4.576,2.688 -4.576,5.248 0,3.04 2.144,4.864 5.664,4.864 1.088,0 2.24,-0.224 3.328,-0.64 1.088,-0.416 1.696,-0.832 2.944,-1.952 z m 0,-6.656 c 0,1.28 -0.256,1.952 -0.992,2.752 -1.248,1.376 -3.264,2.272 -5.12,2.272 -2.08,0 -3.392,-1.12 -3.392,-2.88 0,-1.536 0.8,-2.624 2.432,-3.296 1.44,-0.608 3.264,-0.832 7.072,-0.928 z m 7.00802,-17.664 c 0.16,1.152 0.224,2.016 0.224,3.584 v 17.152 c 0,1.44 -0.064,2.432 -0.224,3.584 h 2.88 c -0.16,-1.28 -0.224,-2.144 -0.224,-3.584 v -17.12 c 0,-1.6 0.064,-2.464 0.224,-3.616 z m 17.15202,19.648 c 0.32,1.312 0.544,1.856 1.024,2.528 1.184,1.632 3.424,2.496 6.336,2.496 4.384,0 7.104,-1.984 7.104,-5.184 0,-1.312 -0.544,-2.528 -1.536,-3.328 -0.96,-0.736 -1.984,-1.12 -5.088,-1.824 -1.984,-0.416 -2.816,-0.672 -3.552,-1.088 -0.704,-0.384 -1.088,-1.024 -1.088,-1.76 0,-1.696 1.664,-2.88 4,-2.88 1.44,0 2.592,0.416 3.328,1.216 0.448,0.448 0.608,0.832 0.8,1.696 l 2.528,-0.416 c -0.416,-1.472 -0.864,-2.208 -1.696,-2.912 -1.152,-1.024 -2.848,-1.536 -5.024,-1.536 -2.144,0 -3.872,0.576 -4.992,1.664 -0.896,0.864 -1.376,1.952 -1.376,3.104 0,1.408 0.608,2.592 1.728,3.36 1.088,0.736 2.176,1.12 4.736,1.664 2.368,0.48 3.008,0.672 3.776,1.152 0.672,0.416 0.992,1.088 0.992,1.984 0,1.888 -1.76,3.072 -4.544,3.072 -1.632,0 -2.912,-0.384 -3.712,-1.12 -0.64,-0.576 -0.896,-1.152 -1.12,-2.336 z m 33.21602,-3.584 c -0.064,-0.864 -0.192,-2.112 -0.224,-2.464 -0.64,-4.288 -3.616,-6.944 -7.744,-6.944 -4.8,0 -7.936,3.584 -7.936,9.056 0,5.536 3.168,9.056 8.192,9.056 2.336,0 4.288,-0.768 5.792,-2.24 0.736,-0.736 1.152,-1.312 1.76,-2.656 l -2.24,-0.896 c -0.896,2.464 -2.688,3.744 -5.28,3.744 -1.92,0 -3.488,-0.768 -4.512,-2.176 -0.864,-1.152 -1.184,-2.336 -1.28,-4.48 z m -13.376,-2.016 c 0.192,-1.216 0.352,-1.792 0.8,-2.592 0.96,-1.792 2.592,-2.784 4.544,-2.784 1.536,0 2.784,0.48 3.776,1.44 1.024,0.992 1.504,2.144 1.696,3.936 z m 17.08798,-14.048 c 0.16,1.152 0.224,2.016 0.224,3.584 v 17.152 c 0,1.44 -0.064,2.432 -0.224,3.584 h 2.88 c -0.16,-1.28 -0.224,-2.144 -0.224,-3.584 v -17.12 c 0,-1.6 0.064,-2.464 0.224,-3.616 z m 22.52801,16.064 c -0.064,-0.864 -0.192,-2.112 -0.224,-2.464 -0.64,-4.288 -3.616,-6.944 -7.744,-6.944 -4.8,0 -7.936,3.584 -7.936,9.056 0,5.536 3.168,9.056 8.192,9.056 2.336,0 4.288,-0.768 5.792,-2.24 0.736,-0.736 1.152,-1.312 1.76,-2.656 l -2.24,-0.896 c -0.896,2.464 -2.688,3.744 -5.28,3.744 -1.92,0 -3.488,-0.768 -4.512,-2.176 -0.864,-1.152 -1.184,-2.336 -1.28,-4.48 z m -13.376,-2.016 c 0.192,-1.216 0.352,-1.792 0.8,-2.592 0.96,-1.792 2.592,-2.784 4.544,-2.784 1.536,0 2.784,0.48 3.776,1.44 1.024,0.992 1.504,2.144 1.696,3.936 z m 31.67998,-2.432 c -0.384,-0.928 -0.672,-1.44 -1.12,-2.048 -1.376,-1.92 -3.52,-2.944 -6.176,-2.944 -4.896,0 -8.096,3.616 -8.096,9.152 0,5.472 3.232,8.96 8.256,8.96 2.592,0 4.64,-0.928 6.048,-2.688 0.544,-0.704 0.864,-1.312 1.312,-2.464 l -2.4,-0.64 c -0.224,0.768 -0.384,1.152 -0.704,1.632 -0.832,1.312 -2.336,2.048 -4.16,2.048 -3.584,0 -5.888,-2.688 -5.888,-6.912 0,-4.288 2.24,-7.04 5.76,-7.04 2.368,0 3.904,1.184 4.832,3.68 z m 5.91997,-9.312 c 0.16,1.056 0.224,2.272 0.224,3.552 v 1.216 h -1.28 c -1.344,0 -1.984,-0.032 -2.88,-0.192 v 2.432 c 1.056,-0.128 1.792,-0.192 2.88,-0.192 h 1.28 v 11.456 c 0,1.504 0.256,2.432 0.896,3.072 0.64,0.64 1.728,0.992 3.136,0.992 1.312,0 2.304,-0.192 3.616,-0.736 l -0.704,-2.24 c -1.056,0.64 -1.696,0.832 -2.528,0.832 -0.672,0 -1.216,-0.192 -1.568,-0.544 -0.288,-0.288 -0.416,-0.768 -0.416,-1.696 v -11.136 h 1.536 c 1.44,0 2.24,0.032 3.264,0.192 v -2.432 c -1.12,0.16 -1.792,0.192 -3.264,0.192 h -1.536 v -1.216 c 0,-1.376 0.064,-2.528 0.224,-3.552 z m 10.49601,-2.304 v 2.848 h 3.104 v -2.848 z m 0.096,7.072 c 0.16,1.12 0.224,2.08 0.224,3.616 v 10.016 c 0,1.344 -0.064,2.24 -0.224,3.616 h 2.88 c -0.16,-1.248 -0.224,-2.144 -0.224,-3.616 v -10.016 c 0,-1.6 0.064,-2.496 0.224,-3.616 z m 15.32803,17.664 c 5.152,0 8.48,-3.584 8.48,-9.056 0,-5.504 -3.296,-9.024 -8.512,-9.024 -5.216,0 -8.544,3.52 -8.544,9.056 0,5.536 3.328,9.024 8.576,9.024 z m 0.032,-16.064 c 3.68,0 5.984,2.688 5.984,7.008 0,4.32 -2.304,6.976 -6.048,6.976 -3.744,0 -6.08,-2.656 -6.08,-7.008 0,-4.32 2.336,-6.976 6.144,-6.976 z m 15.072,15.648 c -0.16,-1.248 -0.224,-2.208 -0.224,-3.616 v -6.176 c 0.256,-1.28 0.64,-2.08 1.472,-3.168 1.344,-1.728 2.784,-2.528 4.576,-2.528 2.528,0 3.904,1.536 3.904,4.416 v 7.456 c 0,1.408 -0.064,2.368 -0.224,3.616 h 2.88 c -0.16,-1.056 -0.224,-1.952 -0.224,-3.584 v -7.904 c 0,-1.568 -0.288,-2.752 -0.896,-3.68 -1.024,-1.568 -2.816,-2.4 -5.12,-2.4 -2.88,0 -4.96,1.248 -6.464,3.872 0.096,-0.736 0.096,-0.992 0.096,-1.376 v -2.176 h -2.656 c 0.192,1.28 0.256,2.176 0.256,3.616 v 10.016 c 0,1.536 -0.064,2.4 -0.256,3.616 z"
       id="text19"
       style="font-weight:300;font-size:32px;font-family:'ヒラギノ角ゴ ProN';-inkscape-font-specification:'ヒラギノ角ゴ ProN, Light';white-space:pre;fill:#ff0000;stroke-width:1.13386"
       transform="matrix(0.26458333,0,0,0.26458333,18.472945,-77.129155)"
       aria-label=" Natural selection" />
    <rect
       style="fill:none;stroke:#000000;stroke-width:0.5;stroke-linejoin:miter;stroke-dasharray:none"
       id="rect23"
       width="120.22813"
       height="50.469341"
       x="44.885937"
       y="14.142023"
       ry="10.390747"
       rx="10.390747" />
    <path
       id="path1-8"
       style="fill:#000000;stroke:none;stroke-width:0.0800508"
       inkscape:transform-center-x="3.7829833e-06"
       d="m 156.82642,86.733322 h -6.33046 V 74.036347 h -9.04966 v 12.696975 h -6.33016 l 5.42757,5.205434 5.42757,5.205436 5.42757,-5.205436 z"
       inkscape:transform-center-y="1.7351349" />
    <rect
       style="fill:none;stroke:#000000;stroke-width:0.5;stroke-linejoin:miter;stroke-dasharray:none"
       id="rect24"
       width="96.59288"
       height="44.007046"
       x="76.411789"
       y="113.75949"
       ry="10.390747"
       rx="10.390747" />
    <path
       id="path25"
       style="fill:none;stroke:#aa0000;stroke-width:0.5;stroke-linejoin:miter;stroke-dasharray:none"
       d="m 83.46214,41.098101 11.516883,-11.51688 m -11.516883,0 11.516883,11.51688" />
    <path
       id="path26"
       style="fill:none;stroke:#aa0000;stroke-width:0.5;stroke-linejoin:miter;stroke-dasharray:none"
       d="m 125.6998,36.396967 11.51688,-11.51688 m -11.51688,0 11.51688,11.51688" />
    <path
       id="path27"
       style="fill:none;stroke:#aa0000;stroke-width:0.5;stroke-linejoin:miter;stroke-dasharray:none"
       d="m 55.367579,51.602743 11.51688,-11.51688 m -11.51688,0 11.51688,11.51688" />
    <path
       id="path28"
       style="fill:none;stroke:#aa0000;stroke-width:0.5;stroke-linejoin:miter;stroke-dasharray:none"
       d="m 81.311911,56.303877 11.51688,-11.51688 m -11.51688,0 11.51688,11.51688" />
    <path
       id="path29"
       style="fill:none;stroke:#aa0000;stroke-width:0.5;stroke-linejoin:miter;stroke-dasharray:none"
       d="m 97.853985,29.979721 11.516885,-11.51688 m -11.516885,0 11.516885,11.51688" />
    <circle
       style="fill:#0000aa;stroke:#000000;stroke-width:0.3;stroke-dasharray:none"
       id="circle17"
       cx="180.69965"
       cy="47.867573"
       r="4.5511346" />
    <circle
       style="fill:#0000d4;stroke:#000000;stroke-width:0.3;stroke-dasharray:none"
       id="circle18"
       cx="194.86713"
       cy="35.339661"
       r="4.5511346" />
    <path
       d="m 161.64712,620.49033 c -1.184,0.16 -2.08,0.224 -3.552,0.224 h -10.144 v -9.408 h 8.416 c 1.664,0 2.496,0.064 3.584,0.224 v -2.688 c -1.216,0.16 -2.176,0.224 -3.584,0.224 h -8.416 v -8.192 h 9.85601 c 1.59999,0 2.46399,0.064 3.58399,0.224 v -2.688 c -1.088,0.16 -2.176,0.224 -3.58399,0.224 h -9.12001 c -1.536,0 -2.4,-0.032 -3.52,-0.096 0.192,1.408 0.256,2.272 0.256,3.648 v 17.056 c 0,1.632 -0.064,2.592 -0.256,3.808 1.088,-0.064 1.984,-0.096 3.52,-0.096 h 9.37601 c 1.69599,0 2.56,0.064 3.58399,0.224 z m 3.90399,-21.856 c 0.16,1.152 0.224,2.016 0.224,3.584 v 17.152 c 0,1.44 -0.064,2.432 -0.224,3.584 h 2.88 c -0.16,-1.28 -0.224,-2.144 -0.224,-3.584 v -17.12 c 0,-1.6 0.064,-2.464 0.224,-3.616 z m 7.39201,0 v 2.848 h 3.104 v -2.848 z m 0.096,7.072 c 0.15999,1.12 0.22399,2.08 0.22399,3.616 v 10.016 c 0,1.344 -0.064,2.24 -0.22399,3.616 h 2.87999 c -0.16,-1.248 -0.224,-2.144 -0.224,-3.616 v -10.016 c 0,-1.6 0.064,-2.496 0.224,-3.616 z m 9.56802,-4.768 c 0.16,1.056 0.224,2.272 0.224,3.552 v 1.216 h -1.28 c -1.344,0 -1.984,-0.032 -2.88,-0.192 v 2.432 c 1.056,-0.128 1.792,-0.192 2.88,-0.192 h 1.28 v 11.456 c 0,1.504 0.256,2.432 0.896,3.072 0.64,0.64 1.728,0.992 3.136,0.992 1.312,0 2.304,-0.192 3.616,-0.736 l -0.704,-2.24 c -1.056,0.64 -1.696,0.832 -2.528,0.832 -0.672,0 -1.216,-0.192 -1.568,-0.544 -0.288,-0.288 -0.416,-0.768 -0.416,-1.696 v -11.136 h 1.536 c 1.44,0 2.24,0.032 3.264,0.192 v -2.432 c -1.12,0.16 -1.792,0.192 -3.264,0.192 h -1.536 v -1.216 c 0,-1.376 0.064,-2.528 0.224,-3.552 z m 25.63201,13.76 c -0.064,-0.864 -0.192,-2.112 -0.224,-2.464 -0.64,-4.288 -3.616,-6.944 -7.744,-6.944 -4.8,0 -7.936,3.584 -7.936,9.056 0,5.536 3.168,9.056 8.192,9.056 2.336,0 4.288,-0.768 5.792,-2.24 0.736,-0.736 1.152,-1.312 1.76,-2.656 l -2.24,-0.896 c -0.896,2.464 -2.688,3.744 -5.28,3.744 -1.92,0 -3.488,-0.768 -4.512,-2.176 -0.864,-1.152 -1.184,-2.336 -1.28,-4.48 z m -13.376,-2.016 c 0.192,-1.216 0.352,-1.792 0.8,-2.592 0.96,-1.792 2.592,-2.784 4.544,-2.784 1.536,0 2.784,0.48 3.776,1.44 1.024,0.992 1.504,2.144 1.696,3.936 z"
       id="text21"
       style="font-weight:300;font-size:32px;font-family:'ヒラギノ角ゴ ProN';-inkscape-font-specification:'ヒラギノ角ゴ ProN, Light';white-space:pre;stroke-width:1.13386"
       transform="matrix(0.26458333,0,0,0.26458333,140.39721,-154.02589)"
       aria-label="Elite" />
    <path
       id="path21"
       style="fill:none;stroke:#aa0000;stroke-width:0.5;stroke-linejoin:miter;stroke-dasharray:none"
       d="m 135.5117,56.303877 11.51688,-11.51688 m -11.51688,0 11.51688,11.51688" />
    <rect
       style="fill:none;stroke:#000000;stroke-width:0.5;stroke-linejoin:miter;stroke-dasharray:none"
       id="rect22"
       width="34.76125"
       height="50.469341"
       x="169.76929"
       y="14.142023"
       ry="10.390747"
       rx="10.390747" />
    <path
       id="path30"
       style="fill:none;stroke:#aa0000;stroke-width:0.5;stroke-linejoin:miter;stroke-dasharray:none"
       d="m 107.25618,45.799234 11.51688,-11.51688 m -11.51688,0 11.51688,11.51688" />
  </g>
</svg>
