<?xml version="1.0" encoding="UTF-8" standalone="no"?>
<!-- Created with Inkscape (http://www.inkscape.org/) -->

<svg
   width="154.83606mm"
   height="55.099876mm"
   viewBox="0 0 154.83606 55.099876"
   version="1.1"
   id="svg1"
   inkscape:version="1.4 (e7c3feb1, 2024-10-09)"
   sodipodi:docname="EA_pes.svg"
   xmlns:inkscape="http://www.inkscape.org/namespaces/inkscape"
   xmlns:sodipodi="http://sodipodi.sourceforge.net/DTD/sodipodi-0.dtd"
   xmlns="http://www.w3.org/2000/svg"
   xmlns:svg="http://www.w3.org/2000/svg">
  <sodipodi:namedview
     id="namedview1"
     pagecolor="#ffffff"
     bordercolor="#000000"
     borderopacity="0.25"
     inkscape:showpageshadow="2"
     inkscape:pageopacity="0.0"
     inkscape:pagecheckerboard="0"
     inkscape:deskcolor="#d1d1d1"
     inkscape:document-units="mm"
     inkscape:zoom="1.0700319"
     inkscape:cx="331.29853"
     inkscape:cy="71.493195"
     inkscape:window-width="2048"
     inkscape:window-height="1178"
     inkscape:window-x="2725"
     inkscape:window-y="25"
     inkscape:window-maximized="0"
     inkscape:current-layer="layer1" />
  <defs
     id="defs1">
    <marker
       style="overflow:visible"
       id="marker5"
       refX="0"
       refY="0"
       orient="auto-start-reverse"
       inkscape:stockid="Triangle arrow"
       markerWidth="1"
       markerHeight="1"
       viewBox="0 0 1 1"
       inkscape:isstock="true"
       inkscape:collect="always"
       preserveAspectRatio="xMidYMid">
      <path
         transform="scale(0.5)"
         style="fill:context-stroke;fill-rule:evenodd;stroke:context-stroke;stroke-width:1pt"
         d="M 5.77,0 -2.88,5 V -5 Z"
         id="path5" />
    </marker>
    <marker
       style="overflow:visible"
       id="Triangle"
       refX="0"
       refY="0"
       orient="auto-start-reverse"
       inkscape:stockid="Triangle arrow"
       markerWidth="1"
       markerHeight="1"
       viewBox="0 0 1 1"
       inkscape:isstock="true"
       inkscape:collect="always"
       preserveAspectRatio="xMidYMid">
      <path
         transform="scale(0.5)"
         style="fill:context-stroke;fill-rule:evenodd;stroke:context-stroke;stroke-width:1pt"
         d="M 5.77,0 -2.88,5 V -5 Z"
         id="path135" />
    </marker>
    <rect
       x="87.888062"
       y="186.9012"
       width="225.83894"
       height="97.900627"
       id="rect1" />
    <rect
       x="87.888062"
       y="186.9012"
       width="225.83894"
       height="97.900627"
       id="rect5" />
  </defs>
  <g
     inkscape:label="Layer 1"
     inkscape:groupmode="layer"
     id="layer1"
     transform="translate(-30.576954,-59.773301)">
    <path
       d="m 93.360672,218.86839 c -0.192,-1.088 -0.256,-2.08 -0.256,-3.616 v -6.304 h 7.135998 c 4.992,0 7.872,-2.72 7.872,-7.424 0,-4.448 -2.784,-6.976 -7.712,-6.976 h -6.527998 c -1.472,0 -2.368,-0.032 -3.52,-0.096 0.192,1.344 0.256,2.336 0.256,3.648 v 17.184 c 0,1.504 -0.064,2.432 -0.256,3.584 z m -0.256,-12.128 v -9.984 h 7.135998 c 3.456,0 5.312,1.696 5.312,4.896 0,3.264 -1.92,5.088 -5.312,5.088 z m 29.632018,12.128 h 2.592 c -0.192,-1.28 -0.256,-2.08 -0.256,-3.52 v -8.992 c 0,-3.456 -2.176,-5.248 -6.4,-5.248 -2.4,0 -4.32,0.608 -5.632,1.824 -0.8,0.704 -1.216,1.376 -1.792,2.848 l 2.496,0.544 c 0.32,-0.96 0.576,-1.408 0.992,-1.856 0.896,-0.928 2.208,-1.376 3.968,-1.376 2.656,0 4.032,1.12 4.032,3.296 v 1.856 c -3.936,0.096 -5.472,0.288 -7.36,0.832 -2.976,0.832 -4.576,2.688 -4.576,5.248 0,3.04 2.144,4.864 5.664,4.864 1.088,0 2.24,-0.224 3.328,-0.64 1.088,-0.416 1.696,-0.832 2.944,-1.952 z m 0,-6.656 c 0,1.28 -0.256,1.952 -0.992,2.752 -1.248,1.376 -3.264,2.272 -5.12,2.272 -2.08,0 -3.392,-1.12 -3.392,-2.88 0,-1.536 0.8,-2.624 2.432,-3.296 1.44,-0.608 3.264,-0.832 7.072,-0.928 z m 18.08003,-10.592 c -1.344,-0.224 -1.888,-0.288 -2.848,-0.288 -1.536,0 -2.624,0.32 -3.84,1.12 -0.672,0.448 -1.152,0.96 -1.76,1.952 0.032,-0.224 0.032,-0.704 0.032,-0.96 v -1.824 h -2.656 c 0.16,1.152 0.224,2.016 0.224,3.616 v 10.016 c 0,1.312 -0.064,2.144 -0.224,3.616 h 2.88 c -0.16,-1.248 -0.224,-2.144 -0.224,-3.584 v -6.528 c 0.128,-1.44 0.416,-2.208 1.184,-3.2 0.96,-1.28 2.304,-1.952 3.936,-1.952 0.8,0 1.376,0.096 2.592,0.48 z m 17.79201,8.992 c -0.064,-0.864 -0.192,-2.112 -0.224,-2.464 -0.64,-4.288 -3.616,-6.944 -7.744,-6.944 -4.8,0 -7.936,3.584 -7.936,9.056 0,5.536 3.168,9.056 8.192,9.056 2.336,0 4.288,-0.768 5.792,-2.24 0.736,-0.736 1.152,-1.312 1.76,-2.656 l -2.24,-0.896 c -0.896,2.464 -2.688,3.744 -5.28,3.744 -1.92,0 -3.488,-0.768 -4.512,-2.176 -0.864,-1.152 -1.184,-2.336 -1.28,-4.48 z m -13.376,-2.016 c 0.192,-1.216 0.352,-1.792 0.8,-2.592 0.96,-1.792 2.592,-2.784 4.544,-2.784 1.536,0 2.784,0.48 3.776,1.44 1.024,0.992 1.504,2.144 1.696,3.936 z m 19.96798,10.272 c -0.16,-1.248 -0.224,-2.208 -0.224,-3.616 v -6.176 c 0.256,-1.28 0.64,-2.08 1.472,-3.168 1.344,-1.728 2.784,-2.528 4.576,-2.528 2.528,0 3.904,1.536 3.904,4.416 v 7.456 c 0,1.408 -0.064,2.368 -0.224,3.616 h 2.88 c -0.16,-1.056 -0.224,-1.952 -0.224,-3.584 v -7.904 c 0,-1.568 -0.288,-2.752 -0.896,-3.68 -1.024,-1.568 -2.816,-2.4 -5.12,-2.4 -2.88,0 -4.96,1.248 -6.464,3.872 0.096,-0.736 0.096,-0.992 0.096,-1.376 v -2.176 h -2.656 c 0.192,1.28 0.256,2.176 0.256,3.616 v 10.016 c 0,1.536 -0.064,2.4 -0.256,3.616 z m 18.912,-22.016 c 0.16,1.056 0.224,2.272 0.224,3.552 v 1.216 h -1.28 c -1.344,0 -1.984,-0.032 -2.88,-0.192 v 2.432 c 1.056,-0.128 1.792,-0.192 2.88,-0.192 h 1.28 v 11.456 c 0,1.504 0.256,2.432 0.896,3.072 0.64,0.64 1.728,0.992 3.136,0.992 1.312,0 2.304,-0.192 3.616,-0.736 l -0.704,-2.24 c -1.056,0.64 -1.696,0.832 -2.528,0.832 -0.672,0 -1.216,-0.192 -1.568,-0.544 -0.288,-0.288 -0.416,-0.768 -0.416,-1.696 v -11.136 h 1.536 c 1.44,0 2.24,0.032 3.264,0.192 v -2.432 c -1.12,0.16 -1.792,0.192 -3.264,0.192 h -1.536 v -1.216 c 0,-1.376 0.064,-2.528 0.224,-3.552 z m 9.6,17.344 c 0.32,1.312 0.544,1.856 1.024,2.528 1.184,1.632 3.424,2.496 6.336,2.496 4.384,0 7.104,-1.984 7.104,-5.184 0,-1.312 -0.544,-2.528 -1.536,-3.328 -0.96,-0.736 -1.984,-1.12 -5.088,-1.824 -1.984,-0.416 -2.816,-0.672 -3.552,-1.088 -0.704,-0.384 -1.088,-1.024 -1.088,-1.76 0,-1.696 1.664,-2.88 4,-2.88 1.44,0 2.592,0.416 3.328,1.216 0.448,0.448 0.608,0.832 0.8,1.696 l 2.528,-0.416 c -0.416,-1.472 -0.864,-2.208 -1.696,-2.912 -1.152,-1.024 -2.848,-1.536 -5.024,-1.536 -2.144,0 -3.872,0.576 -4.992,1.664 -0.896,0.864 -1.376,1.952 -1.376,3.104 0,1.408 0.608,2.592 1.728,3.36 1.088,0.736 2.176,1.12 4.736,1.664 2.368,0.48 3.008,0.672 3.776,1.152 0.672,0.416 0.992,1.088 0.992,1.984 0,1.888 -1.76,3.072 -4.544,3.072 -1.632,0 -2.912,-0.384 -3.712,-1.12 -0.64,-0.576 -0.896,-1.152 -1.12,-2.336 z"
       id="text1"
       style="font-weight:300;font-size:32px;font-family:'ヒラギノ角ゴ ProN';-inkscape-font-specification:'ヒラギノ角ゴ ProN Light';white-space:pre;stroke-width:1.88976"
       transform="matrix(0.26458333,0,0,0.26458333,52.54081,51.965099)"
       aria-label="Parents&#10;" />
    <path
       style="fill:none;stroke:#000000;stroke-width:0.606709;stroke-dasharray:none"
       d="m 30.86292,80.641824 c 0,0 8.484931,-23.968972 13.925847,-20.160456 6.373032,4.460977 12.03968,36.398191 21.988174,36.089703 6.850239,-0.212416 13.725372,-28.09575 19.789358,-30.36513 4.878115,-1.825581 12.038563,18.353848 17.590541,19.911561 7.56184,2.121619 14.5385,-17.512166 21.25524,-14.186988 6.6007,3.267739 11.67506,39.915326 21.6217,42.560966 8.88756,2.36395 38.11285,-51.272273 38.11285,-51.272273"
       id="path1"
       sodipodi:nodetypes="cssssssc" />
    <circle
       style="fill:#ff6600;stroke:#000000;stroke-width:0.3;stroke-dasharray:none"
       id="path2"
       cx="141.8179"
       cy="103.08094"
       r="2.6440933" />
    <circle
       style="fill:#808080;stroke:#000000;stroke-width:0.3;stroke-dasharray:none"
       id="circle2"
       cx="105.39654"
       cy="83.386383"
       r="2.6440933" />
    <circle
       style="fill:#808080;stroke:#000000;stroke-width:0.3;stroke-dasharray:none"
       id="circle3"
       cx="66.512131"
       cy="93.529991"
       r="2.6440933" />
    <path
       style="fill:#000000;stroke:#000000;stroke-width:0.5;stroke-dasharray:none;marker-end:url(#Triangle)"
       d="m 112.15051,87.323238 21.31934,12.963612"
       id="path3" />
    <path
       style="fill:#000000;stroke:#000000;stroke-width:0.499999;stroke-dasharray:none;marker-end:url(#marker5)"
       d="m 72.638154,96.799682 59.295366,6.281258"
       id="path4" />
    <path
       d="m 100.62467,194.06839 c -6.719998,0 -11.071998,4.96 -11.071998,12.64 0,7.712 4.288,12.64 11.039998,12.64 6.752,0 11.072,-4.928 11.072,-12.64 0,-7.712 -4.288,-12.64 -11.04,-12.64 z m 0.032,23.008 c -5.119998,0 -8.511998,-4.128 -8.511998,-10.4 0,-6.272 3.36,-10.368 8.479998,-10.368 2.208,0 4.128,0.768 5.6,2.208 1.856,1.856 2.816,4.672 2.816,8.192 0,3.424 -1.024,6.4 -2.848,8.192 -1.44,1.44 -3.328,2.176 -5.536,2.176 z m 19.68,-15.456 v -1.76 c 0,-1.504 0.128,-2.176 0.48,-2.688 0.384,-0.576 1.12,-0.864 2.144,-0.864 1.024,0 1.792,0.224 2.656,0.736 l 0.672,-2.144 c -1.152,-0.448 -2.144,-0.64 -3.36,-0.64 -1.824,0 -3.264,0.576 -4.032,1.568 -0.736,0.928 -0.992,1.952 -0.992,3.904 v 1.888 h -1.312 c -1.28,0 -2.048,-0.064 -2.912,-0.192 v 2.432 c 0.992,-0.128 1.792,-0.192 2.912,-0.192 h 1.312 v 11.584 c 0,1.344 -0.064,2.432 -0.224,3.616 h 2.88 c -0.16,-1.184 -0.224,-2.08 -0.224,-3.584 v -11.616 h 7.776 v 11.584 c 0,1.344 -0.064,2.432 -0.224,3.616 h 2.88 c -0.16,-1.184 -0.224,-2.08 -0.224,-3.584 v -11.616 h 1.6 c 1.568,0 2.304,0.032 3.392,0.192 v -2.432 c -1.184,0.16 -2.016,0.192 -3.392,0.192 h -1.6 v -1.76 c 0,-1.504 0.128,-2.176 0.48,-2.688 0.416,-0.576 1.152,-0.864 2.176,-0.864 0.992,0 1.792,0.224 2.656,0.736 l 0.672,-2.144 c -1.152,-0.448 -2.144,-0.64 -3.392,-0.64 -1.792,0 -3.264,0.576 -4.032,1.568 -0.736,0.928 -0.992,1.952 -0.992,3.904 v 1.888 z m 17.91999,12.576 c 0.32,1.312 0.544,1.856 1.024,2.528 1.184,1.632 3.424,2.496 6.336,2.496 4.384,0 7.104,-1.984 7.104,-5.184 0,-1.312 -0.544,-2.528 -1.536,-3.328 -0.96,-0.736 -1.984,-1.12 -5.088,-1.824 -1.984,-0.416 -2.816,-0.672 -3.552,-1.088 -0.704,-0.384 -1.088,-1.024 -1.088,-1.76 0,-1.696 1.664,-2.88 4,-2.88 1.44,0 2.592,0.416 3.328,1.216 0.448,0.448 0.608,0.832 0.8,1.696 l 2.528,-0.416 c -0.416,-1.472 -0.864,-2.208 -1.696,-2.912 -1.152,-1.024 -2.848,-1.536 -5.024,-1.536 -2.144,0 -3.872,0.576 -4.992,1.664 -0.896,0.864 -1.376,1.952 -1.376,3.104 0,1.408 0.608,2.592 1.728,3.36 1.088,0.736 2.176,1.12 4.736,1.664 2.368,0.48 3.008,0.672 3.776,1.152 0.672,0.416 0.992,1.088 0.992,1.984 0,1.888 -1.76,3.072 -4.544,3.072 -1.632,0 -2.912,-0.384 -3.712,-1.12 -0.64,-0.576 -0.896,-1.152 -1.12,-2.336 z m 20.92802,11.392 c -0.16,-1.184 -0.224,-2.112 -0.224,-3.616 v -3.968 c 0,-0.864 -0.032,-1.344 -0.128,-2.24 1.504,2.208 3.776,3.392 6.592,3.392 4.8,0 7.872,-3.488 7.872,-8.928 0,-5.568 -3.008,-8.928 -7.936,-8.928 -2.848,0 -5.088,1.184 -6.528,3.456 0.064,-0.544 0.096,-0.896 0.096,-1.312 v -1.824 h -2.56 c 0.16,1.216 0.224,2.144 0.224,3.68 v 16.704 c 0,1.312 -0.064,2.336 -0.224,3.584 z m 6.016,-8.512 c -1.664,0 -3.264,-0.608 -4.384,-1.696 -1.152,-1.12 -1.824,-3.04 -1.824,-5.12 0,-4.128 2.496,-6.88 6.176,-6.88 3.584,0 5.632,2.496 5.632,6.848 0,4.256 -2.112,6.848 -5.6,6.848 z m 22.94398,-15.456 c -1.344,-0.224 -1.888,-0.288 -2.848,-0.288 -1.536,0 -2.624,0.32 -3.84,1.12 -0.672,0.448 -1.152,0.96 -1.76,1.952 0.032,-0.224 0.032,-0.704 0.032,-0.96 v -1.824 h -2.656 c 0.16,1.152 0.224,2.016 0.224,3.616 v 10.016 c 0,1.312 -0.064,2.144 -0.224,3.616 h 2.88 c -0.16,-1.248 -0.224,-2.144 -0.224,-3.584 v -6.528 c 0.128,-1.44 0.416,-2.208 1.184,-3.2 0.96,-1.28 2.304,-1.952 3.936,-1.952 0.8,0 1.376,0.096 2.592,0.48 z m 2.65601,-7.072 v 2.848 h 3.104 v -2.848 z m 0.096,7.072 c 0.16,1.12 0.224,2.08 0.224,3.616 v 10.016 c 0,1.344 -0.064,2.24 -0.224,3.616 h 2.88 c -0.16,-1.248 -0.224,-2.144 -0.224,-3.616 v -10.016 c 0,-1.6 0.064,-2.496 0.224,-3.616 z m 10.43203,17.248 c -0.16,-1.248 -0.224,-2.208 -0.224,-3.616 v -6.176 c 0.256,-1.28 0.64,-2.08 1.472,-3.168 1.344,-1.728 2.784,-2.528 4.576,-2.528 2.528,0 3.904,1.536 3.904,4.416 v 7.456 c 0,1.408 -0.064,2.368 -0.224,3.616 h 2.88 c -0.16,-1.056 -0.224,-1.952 -0.224,-3.584 v -7.904 c 0,-1.568 -0.288,-2.752 -0.896,-3.68 -1.024,-1.568 -2.816,-2.4 -5.12,-2.4 -2.88,0 -4.96,1.248 -6.464,3.872 0.096,-0.736 0.096,-0.992 0.096,-1.376 v -2.176 h -2.656 c 0.192,1.28 0.256,2.176 0.256,3.616 v 10.016 c 0,1.536 -0.064,2.4 -0.256,3.616 z m 16.832,3.68 c 2.112,2.304 4.096,3.2 7.264,3.2 2.912,0 5.312,-0.864 6.656,-2.432 1.28,-1.504 1.856,-3.52 1.856,-6.656 v -11.456 c 0,-1.504 0.064,-2.336 0.224,-3.584 h -2.56 v 1.824 c 0,0.416 0.032,0.672 0.064,1.216 -1.312,-2.24 -3.36,-3.36 -6.144,-3.36 -4.96,0 -8.096,3.456 -8.096,8.896 0,5.344 3.072,8.704 7.904,8.704 1.952,0 3.744,-0.576 4.96,-1.664 0.544,-0.48 0.896,-0.896 1.376,-1.76 -0.128,2.656 -0.256,3.808 -0.576,4.736 -0.832,2.304 -2.784,3.52 -5.568,3.52 -1.728,0 -3.072,-0.448 -4.288,-1.504 -0.384,-0.288 -0.576,-0.512 -1.024,-1.12 z m 1.76,-12.352 c 0,-4.256 2.176,-6.88 5.728,-6.88 3.584,0 5.888,2.592 5.888,6.624 0,4.16 -2.432,6.944 -6.08,6.944 -3.424,0 -5.536,-2.528 -5.536,-6.688 z"
       id="text5"
       style="font-weight:300;font-size:32px;font-family:'ヒラギノ角ゴ ProN';-inkscape-font-specification:'ヒラギノ角ゴ ProN, Light';white-space:pre;fill:#d45500;stroke-width:1.88976"
       transform="matrix(0.26458333,0,0,0.26458333,109.85152,23.657122)"
       aria-label="Offspring" />
  </g>
</svg>
