<?xml version="1.0" encoding="UTF-8" standalone="no"?>
<!-- Created with Inkscape (http://www.inkscape.org/) -->

<svg
   width="147.79599mm"
   height="64.091621mm"
   viewBox="0 0 147.79599 64.091621"
   version="1.1"
   id="svg1"
   inkscape:version="1.4 (e7c3feb1, 2024-10-09)"
   sodipodi:docname="EA_roulette.svg"
   xml:space="preserve"
   xmlns:inkscape="http://www.inkscape.org/namespaces/inkscape"
   xmlns:sodipodi="http://sodipodi.sourceforge.net/DTD/sodipodi-0.dtd"
   xmlns="http://www.w3.org/2000/svg"
   xmlns:svg="http://www.w3.org/2000/svg"><sodipodi:namedview
     id="namedview1"
     pagecolor="#ffffff"
     bordercolor="#000000"
     borderopacity="0.25"
     inkscape:showpageshadow="2"
     inkscape:pageopacity="0.0"
     inkscape:pagecheckerboard="0"
     inkscape:deskcolor="#d1d1d1"
     inkscape:document-units="mm"
     inkscape:zoom="0.79570853"
     inkscape:cx="353.14438"
     inkscape:cy="255.74691"
     inkscape:current-layer="layer1"
     showguides="false" /><defs
     id="defs1" /><g
     inkscape:label="Layer 1"
     inkscape:groupmode="layer"
     id="layer1"
     transform="translate(-23.08101,-34.840308)"><g
       id="g39"><circle
         style="fill:none;stroke:#000000;stroke-width:0.499999"
         id="circle28"
         cx="55.166023"
         cy="66.947098"
         r="31.734831" /><path
         id="path1"
         style="fill:#003380;stroke:#000000;stroke-width:0.2;stroke-dasharray:none"
         d="M 78.95332,46.23232 54.916028,66.937516 86.356486,71.056645 A 31.734831,31.734831 0 0 0 86.651042,66.937516 31.734831,31.734831 0 0 0 78.95332,46.23232 Z" /><path
         id="path2"
         style="fill:#002255;stroke:#000000;stroke-width:0.2;stroke-linejoin:miter;stroke-dasharray:none"
         d="M 54.916028,35.202502 V 66.937516 L 78.96779,46.248857 A 31.734831,31.734831 0 0 0 54.916028,35.202502 Z" /><path
         id="circle20"
         style="fill:#2a7fff;stroke:#000000;stroke-width:0.2;stroke-dasharray:none"
         d="M 54.916028,66.937516 25.286829,78.077405 a 31.734831,31.734831 0 0 0 10.817944,14.318506 z" /><path
         id="circle21"
         style="fill:#0066ff;stroke:#000000;stroke-width:0.2;stroke-dasharray:none"
         d="M 54.930497,67.092546 36.104773,92.395911 a 31.734831,31.734831 0 0 0 18.811255,6.276102 31.734831,31.734831 0 0 0 0.01447,-0.001 z" /><path
         id="circle22"
         style="fill:#0055d4;stroke:#000000;stroke-width:0.2;stroke-dasharray:none"
         d="m 54.906209,67.085828 v 31.585669 a 31.734831,31.734831 0 0 0 0.0098,5.16e-4 31.734831,31.734831 0 0 0 20.052523,-7.204728 z" /><path
         id="circle23"
         style="fill:#0044aa;stroke:#000000;stroke-width:0.2;stroke-dasharray:none"
         d="M 55.033333,66.957153 75.063118,91.395972 A 31.734831,31.734831 0 0 0 86.355969,71.066463 Z" /><path
         id="circle24"
         style="fill:#d5e5ff;stroke:#000000;stroke-width:0.2;stroke-dasharray:none"
         d="M 54.755314,35.213871 A 31.734831,31.734831 0 0 0 41.346313,38.281384 L 54.916028,66.937516 Z" /><path
         id="circle25"
         style="fill:#aaccff;stroke:#000000;stroke-width:0.2;stroke-dasharray:none"
         d="M 41.346313,38.281901 A 31.734831,31.734831 0 0 0 30.416231,46.844686 L 54.901558,66.931315 Z" /><path
         id="circle26"
         style="fill:#80b3ff;stroke:#000000;stroke-width:0.2;stroke-dasharray:none"
         d="M 30.401762,46.863806 A 31.734831,31.734831 0 0 0 23.70863,61.480485 l 31.07614,5.448246 z" /><path
         id="circle27"
         style="fill:#5599ff;stroke:#000000;stroke-width:0.2;stroke-dasharray:none"
         d="m 23.70863,61.481002 a 31.734831,31.734831 0 0 0 -0.527616,5.456514 31.734831,31.734831 0 0 0 2.13372,11.21482 l 29.601294,-11.21482 z" /></g><g
       id="g40"
       transform="translate(-8.6453348,-0.11217818)"><circle
         style="fill:none;stroke:#000000;stroke-width:0.499999"
         id="circle30"
         cx="147.53751"
         cy="66.937317"
         r="31.734831" /><path
         id="circle31"
         style="fill:#aaccff;stroke:#000000;stroke-width:0.2;stroke-dasharray:none"
         d="m 147.52743,35.203019 a 31.734831,31.734831 0 0 0 -9.21236,1.390096 l 9.21288,30.345952 z" /><path
         id="circle32"
         style="fill:#80b3ff;stroke:#000000;stroke-width:0.2;stroke-dasharray:none"
         d="m 138.33057,36.587431 a 31.734831,31.734831 0 0 0 -9.02735,4.459159 l 18.22421,25.919865 z" /><path
         id="circle33"
         style="fill:#5599ff;stroke:#000000;stroke-width:0.2;stroke-dasharray:none"
         d="m 129.30322,41.04659 a 31.734831,31.734831 0 0 0 -8.56382,8.919352 l 26.79681,16.969507 z" /><path
         id="circle34"
         style="fill:#2a7fff;stroke:#000000;stroke-width:0.2;stroke-dasharray:none"
         d="m 120.7456,49.95509 a 31.734831,31.734831 0 0 0 -4.77542,14.639934 l 31.56758,2.333707 z" /><path
         id="circle35"
         style="fill:#0066ff;stroke:#000000;stroke-width:0.2;stroke-dasharray:none"
         d="m 115.96967,64.604842 a 31.734831,31.734831 0 0 0 -0.16692,2.332674 31.734831,31.734831 0 0 0 5.40225,17.643368 l 26.33276,-17.643368 z" /><path
         id="circle36"
         style="fill:#0055d4;stroke:#000000;stroke-width:0.2;stroke-dasharray:none"
         d="M 147.52743,66.966455 121.1895,84.560213 a 31.734831,31.734831 0 0 0 19.40709,13.261723 z" /><path
         id="circle37"
         style="fill:#0044aa;stroke:#000000;stroke-width:0.2;stroke-dasharray:none"
         d="m 147.53776,66.937516 -6.93601,30.885454 a 31.734831,31.734831 0 0 0 6.93601,0.849043 31.734831,31.734831 0 0 0 20.72484,-7.708573 z" /><path
         id="circle38"
         style="fill:#003380;stroke:#000000;stroke-width:0.2;stroke-dasharray:none"
         d="m 177.13802,55.521676 -29.60026,11.41584 20.72742,24.023857 a 31.734831,31.734831 0 0 0 11.00708,-24.023857 31.734831,31.734831 0 0 0 -2.13424,-11.41584 z" /><path
         id="circle39"
         style="fill:#002255;stroke:#000000;stroke-width:0.2;stroke-dasharray:none"
         d="M 147.54758,35.202502 V 66.913745 L 177.21399,55.71908 A 31.734831,31.734831 0 0 0 147.54758,35.202502 Z" /></g></g></svg>
