<?xml version="1.0" encoding="UTF-8" standalone="no"?>
<!-- Created with Inkscape (http://www.inkscape.org/) -->

<svg
   width="157.08533mm"
   height="140.16531mm"
   viewBox="0 0 157.08533 140.16531"
   version="1.1"
   id="svg1"
   inkscape:version="1.4 (e7c3feb1, 2024-10-09)"
   sodipodi:docname="EA_tournament.svg"
   xmlns:inkscape="http://www.inkscape.org/namespaces/inkscape"
   xmlns:sodipodi="http://sodipodi.sourceforge.net/DTD/sodipodi-0.dtd"
   xmlns="http://www.w3.org/2000/svg"
   xmlns:svg="http://www.w3.org/2000/svg">
  <sodipodi:namedview
     id="namedview1"
     pagecolor="#ffffff"
     bordercolor="#000000"
     borderopacity="0.25"
     inkscape:showpageshadow="2"
     inkscape:pageopacity="0.0"
     inkscape:pagecheckerboard="0"
     inkscape:deskcolor="#d1d1d1"
     inkscape:document-units="mm"
     inkscape:zoom="1.043833"
     inkscape:cx="258.66208"
     inkscape:cy="183.45847"
     inkscape:current-layer="layer1" />
  <defs
     id="defs1">
    <rect
       x="85.922676"
       y="-24.029222"
       width="118.68979"
       height="50.971077"
       id="rect15" />
    <marker
       style="overflow:visible"
       id="Triangle"
       refX="0"
       refY="0"
       orient="auto-start-reverse"
       inkscape:stockid="Triangle arrow"
       markerWidth="1"
       markerHeight="1"
       viewBox="0 0 1 1"
       inkscape:isstock="true"
       inkscape:collect="always"
       preserveAspectRatio="xMidYMid">
      <path
         transform="scale(0.5)"
         style="fill:context-stroke;fill-rule:evenodd;stroke:context-stroke;stroke-width:1pt"
         d="M 5.77,0 -2.88,5 V -5 Z"
         id="path135" />
    </marker>
  </defs>
  <g
     inkscape:label="Layer 1"
     inkscape:groupmode="layer"
     id="layer1"
     transform="translate(-1.507438,-1.7797673)">
    <circle
       style="fill:#003380;stroke:#000000;stroke-width:0.3;stroke-dasharray:none"
       id="circle14"
       cx="36.988911"
       cy="26.686209"
       r="4.5511346" />
    <circle
       style="fill:#0066ff;stroke:#000000;stroke-width:0.3;stroke-dasharray:none"
       id="circle1"
       cx="36.988911"
       cy="68.145355"
       r="4.5511346" />
    <circle
       style="fill:#2a7fff;stroke:#000000;stroke-width:0.3;stroke-dasharray:none"
       id="circle2"
       cx="36.988911"
       cy="81.965073"
       r="4.5511346" />
    <circle
       style="fill:#5599ff;stroke:#000000;stroke-width:0.3;stroke-dasharray:none"
       id="circle3"
       cx="36.988911"
       cy="95.78479"
       r="4.5511346" />
    <circle
       style="fill:#80b3ff;stroke:#000000;stroke-width:0.3;stroke-dasharray:none"
       id="circle4"
       cx="36.988911"
       cy="109.60451"
       r="4.5511346" />
    <circle
       style="fill:#aaccff;stroke:#000000;stroke-width:0.3;stroke-dasharray:none"
       id="circle5"
       cx="36.988911"
       cy="123.42422"
       r="4.5511346" />
    <circle
       style="fill:#d5e5ff;stroke:#000000;stroke-width:0.3;stroke-dasharray:none"
       id="circle6"
       cx="36.988911"
       cy="137.24394"
       r="4.5511346" />
    <circle
       style="fill:#0044aa;stroke:#000000;stroke-width:0.3;stroke-dasharray:none"
       id="circle7"
       cx="36.988911"
       cy="40.505924"
       r="4.5511346" />
    <circle
       style="fill:#0055d4;stroke:#000000;stroke-width:0.3;stroke-dasharray:none"
       id="circle8"
       cx="36.988911"
       cy="54.325642"
       r="4.5511346" />
    <circle
       style="fill:#002255;stroke:#000000;stroke-width:0.3;stroke-dasharray:none"
       id="circle9"
       cx="36.988911"
       cy="12.866491"
       r="4.5511346" />
    <circle
       style="fill:#003380;stroke:#000000;stroke-width:0.3;stroke-dasharray:none"
       id="circle10"
       cx="86.730621"
       cy="33.56538"
       r="4.5511346" />
    <circle
       style="fill:#5599ff;stroke:#000000;stroke-width:0.3;stroke-dasharray:none"
       id="circle11"
       cx="86.730621"
       cy="88.905617"
       r="4.5511346" />
    <circle
       style="fill:#0055d4;stroke:#000000;stroke-width:0.3;stroke-dasharray:none"
       id="circle12"
       cx="86.730621"
       cy="61.235497"
       r="4.5511346" />
    <path
       style="fill:none;stroke:#000000;stroke-width:0.499999;marker-end:url(#Triangle)"
       d="M 45.791188,26.686208 H 70.861226"
       id="path12" />
    <path
       style="fill:none;stroke:#000000;stroke-width:0.499999;marker-end:url(#Triangle)"
       d="M 45.791188,54.325642 H 70.861226"
       id="path13" />
    <path
       style="fill:none;stroke:#000000;stroke-width:0.499999;marker-end:url(#Triangle)"
       d="M 45.791188,95.78479 H 70.861226"
       id="path14" />
    <rect
       style="fill:none;stroke:#000000;stroke-width:0.470577"
       id="rect14"
       width="20.808811"
       height="91.156906"
       x="76.326218"
       y="15.783289" />
    <circle
       style="fill:#003380;stroke:#000000;stroke-width:0.3;stroke-dasharray:none"
       id="circle15"
       cx="137.9778"
       cy="61.36174"
       r="4.5511346" />
    <path
       style="fill:none;stroke:#000000;stroke-width:0.499999;marker-end:url(#Triangle)"
       d="m 100.31355,61.36174 h 25.07004"
       id="path15" />
    <text
       xml:space="preserve"
       transform="scale(0.26458333)"
       id="text15"
       style="font-weight:300;font-size:32px;font-family:'ヒラギノ角ゴ ProN';-inkscape-font-specification:'ヒラギノ角ゴ ProN, Light';text-align:start;writing-mode:lr-tb;direction:ltr;white-space:pre;shape-inside:url(#rect15);display:inline;fill:none;stroke:#000000;stroke-width:1.88976" />
    <path
       style="font-weight:300;font-size:11.2889px;font-family:'Hiragino Kaku Gothic ProN';-inkscape-font-specification:'Hiragino Kaku Gothic ProN, Light';stroke-width:0.5"
       d="M 8.416245,10.438354 C 8.2582004,10.16742 8.1001558,9.8287533 7.9082445,9.3884862 7.5582886,8.609552 7.287355,8.0225292 7.0164214,7.4919509 6.610021,6.690439 6.3277984,6.3856387 5.8649535,6.2501719 6.4745541,6.1147051 6.7567767,5.9792383 7.0841548,5.6857268 7.5469997,5.2906153 7.7614888,4.7487481 7.7614888,4.0262585 c 0,-1.3998237 -0.903112,-2.1674689 -2.5400026,-2.1674689 H 2.7379281 c -0.5192894,0 -0.8353786,-0.011289 -1.2304901,-0.033867 0.067733,0.451556 0.090311,0.8128008 0.090311,1.2982236 v 6.0508506 c 0,0.5531561 -0.022578,0.8579559 -0.090311,1.2643569 H 2.5573057 C 2.4895723,10.031953 2.4669945,9.7384421 2.4669945,9.1627082 V 6.5211055 h 2.0884466 c 0.903112,0 1.3433791,0.4402671 1.9981354,1.9868464 0.4741338,1.1288901 0.6321784,1.5917351 0.6660451,1.9304021 z M 2.4669945,5.7421713 V 2.6377237 h 2.7432028 c 1.0724455,0 1.6368906,0.5192895 1.6368906,1.478846 0,0.4854227 -0.1354668,0.8579564 -0.4289783,1.1401789 C 6.1133093,5.5615489 5.6504644,5.7421713 5.1424639,5.7421713 Z M 13.654293,10.438354 h 0.914401 C 14.50096,9.9867979 14.478383,9.7045754 14.478383,9.1965749 v -3.172181 c 0,-1.2192013 -0.767646,-1.8513797 -2.25778,-1.8513797 -0.846668,0 -1.524002,0.2144891 -1.986847,0.6434673 C 9.9515335,5.0648373 9.8047778,5.3019042 9.6015776,5.8211936 L 10.482112,6.013105 c 0.112889,-0.3386671 0.2032,-0.4967117 0.349956,-0.6547563 0.316089,-0.3273781 0.778934,-0.4854227 1.399823,-0.4854227 0.936979,0 1.422402,0.3951115 1.422402,1.1627568 V 6.690439 C 12.265758,6.7243057 11.723891,6.7920391 11.057846,6.9839504 10.007978,7.2774618 9.443533,7.932218 9.443533,8.83533 c 0,1.0724456 0.756356,1.715913 1.998135,1.715913 0.383823,0 0.790223,-0.07902 1.174046,-0.225778 0.383823,-0.146756 0.598312,-0.293512 1.038579,-0.688623 z m 0,-2.3480914 c 0,0.451556 -0.09031,0.6886229 -0.349956,0.9708455 C 12.86407,9.5465308 12.152869,9.86262 11.498113,9.86262 c -0.733779,0 -1.196624,-0.3951115 -1.196624,-1.0160011 0,-0.5418672 0.282223,-0.9256898 0.857957,-1.1627567 0.508,-0.2144891 1.151468,-0.2935114 2.494847,-0.3273781 z m 3.488279,2.3480914 C 17.086128,9.9980868 17.06355,9.6594198 17.06355,9.1627082 V 6.9839504 c 0.09031,-0.451556 0.225778,-0.7337785 0.519289,-1.1176012 0.474134,-0.6096006 0.982135,-0.8918231 1.614313,-0.8918231 0.891823,0 1.377246,0.5418672 1.377246,1.5578683 v 2.6303138 c 0,0.4967116 -0.02258,0.8353786 -0.07902,1.2756458 h 1.016001 C 21.454932,10.06582 21.432355,9.749731 21.432355,9.1739971 V 6.3856387 c 0,-0.5531562 -0.101601,-0.9708455 -0.31609,-1.2982236 C 20.75502,4.534259 20.122842,4.2407476 19.310041,4.2407476 c -1.016001,0 -1.749779,0.4402671 -2.280358,1.3659569 0.03387,-0.2596447 0.03387,-0.3499559 0.03387,-0.4854227 V 4.3536366 h -0.936979 c 0.06773,0.451556 0.09031,0.7676452 0.09031,1.2756457 v 3.5334259 c 0,0.5418672 -0.02258,0.8466678 -0.09031,1.2756458 z m 5.960539,-8.5795644 c 0.05644,0.4064004 0.07902,0.7112007 0.07902,1.2756458 v 6.0282728 c 0,0.5418672 -0.02258,0.8692448 -0.07902,1.2756458 h 1.004712 c -0.05644,-0.395112 -0.07902,-0.7563564 -0.07902,-1.2643569 V 8.2257294 l 0.959556,-0.9144009 1.501424,2.0545799 c 0.564445,0.7563566 0.587023,0.8015116 0.711201,1.0724456 h 1.286934 c -0.248355,-0.248356 -0.3048,-0.316089 -0.982134,-1.1853346 L 25.597958,6.7920391 27.167115,5.3357709 c 0.02258,-0.022578 0.07902,-0.090311 0.180622,-0.1806224 0.158045,-0.1580446 0.293512,-0.2822225 0.406401,-0.3838226 0.3048,-0.2709336 0.3048,-0.2709336 0.462845,-0.4176893 h -1.343379 c -0.158045,0.2370669 -0.31609,0.4289782 -0.801512,0.8918231 L 24.028801,7.2210173 V 3.1344354 c 0,-0.575734 0.02258,-0.8692454 0.07902,-1.2756458 z"
       id="text16"
       aria-label="Rank" />
    <path
       d="m 59.714185,2.6490126 h 1.749779 c 0.632179,0 0.959557,0.022578 1.332091,0.079022 V 1.7797673 c -0.372534,0.056445 -0.677334,0.079022 -1.332091,0.079022 h -4.402671 c -0.598312,0 -0.891823,-0.022578 -1.286934,-0.079022 v 0.9482676 c 0.372533,-0.056445 0.722489,-0.079022 1.298223,-0.079022 h 1.761069 v 6.5136956 c 0,0.5305783 -0.02258,0.9256898 -0.09031,1.2756458 h 1.061157 c -0.06773,-0.406401 -0.09031,-0.7224897 -0.09031,-1.2756458 z m 5.757339,7.9360974 c 1.817513,0 2.991559,-1.2643572 2.991559,-3.1947592 0,-1.9416909 -1.162757,-3.1834699 -3.002848,-3.1834699 -1.840091,0 -3.014136,1.241779 -3.014136,3.1947588 0,1.9529798 1.174045,3.1834703 3.025425,3.1834703 z m 0.01129,-5.6670284 c 1.298223,0 2.111024,0.9482676 2.111024,2.4722692 0,1.5240016 -0.812801,2.4609803 -2.133602,2.4609803 -1.320801,0 -2.144891,-0.9369787 -2.144891,-2.4722692 0,-1.5240016 0.82409,-2.4609803 2.167469,-2.4609803 z m 8.737609,5.5202724 h 0.936979 C 75.089667,9.9867979 75.06709,9.6707087 75.06709,9.1627082 V 5.6292823 c 0,-0.5192894 0.02258,-0.8805342 0.07902,-1.2756457 H 74.1414 c 0.05644,0.3951115 0.07902,0.790223 0.07902,1.2756457 v 2.1787578 c -0.1016,0.451556 -0.225778,0.7337785 -0.519289,1.1288901 -0.451556,0.6096006 -0.982135,0.8918231 -1.625602,0.8918231 -0.880534,0 -1.365957,-0.564445 -1.365957,-1.5691572 V 5.6292823 c 0,-0.4967116 0.02258,-0.8805342 0.07902,-1.2756457 h -1.016001 c 0.05645,0.3612448 0.07902,0.7563563 0.07902,1.2643568 v 2.7883584 c 0,0.5418673 0.112889,0.9821344 0.316089,1.3095125 0.361245,0.5418667 0.993423,0.8353787 1.806224,0.8353787 1.016001,0 1.715913,-0.417689 2.280358,-1.3433792 -0.03387,0.2935114 -0.03387,0.3725337 -0.03387,0.4967116 z M 80.666383,4.3536366 C 80.19225,4.2746143 80.000338,4.2520365 79.661671,4.2520365 c -0.541867,0 -0.92569,0.112889 -1.354668,0.3951115 -0.237067,0.1580446 -0.4064,0.338667 -0.620889,0.6886229 0.01129,-0.079022 0.01129,-0.2483558 0.01129,-0.338667 V 4.3536366 h -0.936979 c 0.05644,0.4064004 0.07902,0.7112007 0.07902,1.2756457 v 3.5334259 c 0,0.4628449 -0.02258,0.7563563 -0.07902,1.2756458 h 1.016001 C 77.71998,9.9980868 77.697403,9.6819976 77.697403,9.1739971 V 6.8710614 c 0.04516,-0.5080005 0.146755,-0.7789341 0.417689,-1.1288901 0.338667,-0.451556 0.812801,-0.6886229 1.388535,-0.6886229 0.282222,0 0.485422,0.033867 0.914401,0.1693335 z m 1.964273,6.0847174 C 82.574211,9.9980868 82.551633,9.6594198 82.551633,9.1627082 V 6.9839504 c 0.09031,-0.451556 0.225778,-0.7337785 0.51929,-1.1176012 0.474134,-0.6096006 0.982134,-0.8918231 1.614313,-0.8918231 0.891823,0 1.377245,0.5418672 1.377245,1.5578683 v 2.6303138 c 0,0.4967116 -0.02258,0.8353786 -0.07902,1.2756458 H 86.99946 C 86.943016,10.06582 86.920438,9.749731 86.920438,9.1739971 V 6.3856387 c 0,-0.5531562 -0.1016,-0.9708455 -0.316089,-1.2982236 -0.361245,-0.5531561 -0.993424,-0.8466675 -1.806224,-0.8466675 -1.016001,0 -1.74978,0.4402671 -2.280358,1.3659569 0.03387,-0.2596447 0.03387,-0.3499559 0.03387,-0.4854227 V 4.3536366 h -0.936978 c 0.06773,0.451556 0.09031,0.7676452 0.09031,1.2756457 v 3.5334259 c 0,0.5418672 -0.02258,0.8466678 -0.09031,1.2756458 z m 9.979389,0 h 0.914401 c -0.06773,-0.4515561 -0.09031,-0.7337786 -0.09031,-1.2417791 v -3.172181 c 0,-1.2192013 -0.767645,-1.8513797 -2.25778,-1.8513797 -0.846667,0 -1.524001,0.2144891 -1.986846,0.6434673 -0.282223,0.2483558 -0.428978,0.4854227 -0.632178,1.0047121 l 0.880534,0.1919114 c 0.112889,-0.3386671 0.2032,-0.4967117 0.349956,-0.6547563 0.316089,-0.3273781 0.778934,-0.4854227 1.399823,-0.4854227 0.936979,0 1.422402,0.3951115 1.422402,1.1627568 V 6.690439 C 91.22151,6.7243057 90.679643,6.7920391 90.013598,6.9839504 88.96373,7.2774618 88.399285,7.932218 88.399285,8.83533 c 0,1.0724456 0.756356,1.715913 1.998135,1.715913 0.383823,0 0.790223,-0.07902 1.174046,-0.225778 0.383823,-0.146756 0.598312,-0.293512 1.038579,-0.688623 z m 0,-2.3480914 c 0,0.451556 -0.09031,0.6886229 -0.349956,0.9708455 -0.440267,0.4854227 -1.151468,0.8015119 -1.806224,0.8015119 -0.733779,0 -1.196624,-0.3951115 -1.196624,-1.0160011 0,-0.5418672 0.282223,-0.9256898 0.857957,-1.1627567 0.508,-0.2144891 1.151468,-0.2935114 2.494847,-0.3273781 z m 3.465701,2.3480914 C 96.019302,9.9867979 95.996724,9.6819976 95.996724,9.1627082 V 6.9500837 c 0,-0.2935114 0.169334,-0.8240897 0.372534,-1.1288901 0.349956,-0.5418672 0.891823,-0.8579564 1.478846,-0.8579564 0.812801,0 1.264357,0.5418672 1.264357,1.5352905 v 2.6641805 c 0,0.5757339 -0.02258,0.8692448 -0.07902,1.2756458 h 1.016002 c -0.05645,-0.383823 -0.07902,-0.6999119 -0.07902,-1.2643569 V 6.9500837 c 0,-0.338667 0.158043,-0.8353786 0.372533,-1.1627568 0.32738,-0.5192894 0.85796,-0.8240897 1.4224,-0.8240897 0.90311,0 1.29823,0.4628449 1.29823,1.5352905 v 2.6641805 c 0,0.5983117 -0.0113,0.8579568 -0.079,1.2756458 h 1.016 c -0.0564,-0.395112 -0.079,-0.6999119 -0.079,-1.2643569 V 6.3856387 c 0,-0.6660452 -0.11289,-1.1063123 -0.38382,-1.4675571 -0.33867,-0.451556 -0.90311,-0.6886229 -1.64818,-0.6886229 -0.94827,0 -1.55787,0.3612448 -2.088446,1.2304901 C 99.688195,5.1212818 99.620461,4.985815 99.451128,4.8051926 99.112461,4.42137 98.638327,4.2294587 97.99486,4.2294587 c -0.654757,0 -1.207913,0.2032002 -1.591735,0.5870228 -0.225778,0.2370669 -0.327379,0.3725337 -0.428979,0.564445 0.01129,-0.2144891 0.02258,-0.3499559 0.02258,-0.4064004 V 4.3536366 h -0.914401 c 0.05644,0.4064004 0.07902,0.7112007 0.07902,1.2756457 v 3.5334259 c 0,0.5305783 -0.02258,0.8692448 -0.07902,1.2756458 z M 110.92065,7.5258176 c -0.0226,-0.3048003 -0.0677,-0.7450674 -0.079,-0.8692453 -0.22578,-1.5127127 -1.27565,-2.4496914 -2.73192,-2.4496914 -1.69333,0 -2.79965,1.2643568 -2.79965,3.1947588 0,1.9529798 1.11761,3.1947593 2.88996,3.1947593 0.82409,0 1.51272,-0.270934 2.04329,-0.7902235 0.25965,-0.2596447 0.4064,-0.4628449 0.62089,-0.9369788 l -0.79022,-0.3160892 c -0.31609,0.8692454 -0.94827,1.3208014 -1.86267,1.3208014 -0.67733,0 -1.23049,-0.2709336 -1.59173,-0.7676452 -0.3048,-0.4064005 -0.41769,-0.8240898 -0.45156,-1.5804461 z m -4.71876,-0.7112007 c 0.0677,-0.4289782 0.12418,-0.6321784 0.28222,-0.9144009 0.33867,-0.6321785 0.9144,-0.9821344 1.60302,-0.9821344 0.54187,0 0.98214,0.1693335 1.33209,0.5080005 0.36125,0.3499559 0.53058,0.7563564 0.59832,1.3885348 z m 7.04426,3.6237371 c -0.0564,-0.4402672 -0.079,-0.7789342 -0.079,-1.2756458 V 6.9839504 c 0.0903,-0.451556 0.22578,-0.7337785 0.51929,-1.1176012 0.47413,-0.6096006 0.98213,-0.8918231 1.61431,-0.8918231 0.89182,0 1.37725,0.5418672 1.37725,1.5578683 v 2.6303138 c 0,0.4967116 -0.0226,0.8353786 -0.079,1.2756458 h 1.01601 c -0.0564,-0.372534 -0.079,-0.688623 -0.079,-1.2643569 V 6.3856387 c 0,-0.5531562 -0.1016,-0.9708455 -0.31609,-1.2982236 -0.36124,-0.5531561 -0.99342,-0.8466675 -1.80622,-0.8466675 -1.016,0 -1.74978,0.4402671 -2.28036,1.3659569 0.0339,-0.2596447 0.0339,-0.3499559 0.0339,-0.4854227 V 4.3536366 h -0.93698 c 0.0677,0.451556 0.0903,0.7676452 0.0903,1.2756457 v 3.5334259 c 0,0.5418672 -0.0226,0.8466678 -0.0903,1.2756458 z m 6.67174,-7.7667636 c 0.0564,0.3725338 0.079,0.801512 0.079,1.253068 v 0.4289782 h -0.45155 c -0.47414,0 -0.69991,-0.011289 -1.016,-0.067733 v 0.8579564 c 0.37253,-0.045156 0.63217,-0.067733 1.016,-0.067733 h 0.45155 v 4.0414264 c 0,0.5305783 0.0903,0.8579564 0.31609,1.0837344 0.22578,0.225778 0.6096,0.349956 1.10631,0.349956 0.46285,0 0.81281,-0.06773 1.27565,-0.259645 L 122.4466,9.5013752 c -0.37253,0.225778 -0.59831,0.2935114 -0.89182,0.2935114 -0.23707,0 -0.42898,-0.067733 -0.55315,-0.1919113 -0.1016,-0.1016001 -0.14676,-0.2709336 -0.14676,-0.5983117 V 5.0761262 h 0.54187 c 0.508,0 0.79022,0.011289 1.15146,0.067733 V 4.2859032 c -0.39511,0.056445 -0.63217,0.067733 -1.15146,0.067733 h -0.54187 V 3.9246584 c 0,-0.4854227 0.0226,-0.8918231 0.079,-1.253068 z"
       id="text17"
       style="font-weight:300;font-size:11.2889px;font-family:'Hiragino Kaku Gothic ProN';-inkscape-font-specification:'Hiragino Kaku Gothic ProN, Light';stroke-width:0.499999"
       aria-label="Tournament" />
    <path
       d="m 121.11217,84.04644 c -0.0677,-0.383822 -0.0903,-0.733778 -0.0903,-1.275645 v -2.223914 h 2.51743 c 1.76106,0 2.77707,-0.959556 2.77707,-2.619025 0,-1.569157 -0.98214,-2.46098 -2.72063,-2.46098 h -2.30294 c -0.51928,0 -0.83537,-0.01129 -1.24177,-0.03387 0.0677,0.474133 0.0903,0.824089 0.0903,1.286934 v 6.06214 c 0,0.530578 -0.0226,0.857956 -0.0903,1.264356 z m -0.0903,-4.278493 V 76.24581 h 2.51743 c 1.2192,0 1.87395,0.598312 1.87395,1.727202 0,1.151468 -0.67733,1.794935 -1.87395,1.794935 z m 10.45353,4.278493 h 0.9144 c -0.0677,-0.451556 -0.0903,-0.733778 -0.0903,-1.241779 V 79.63248 c 0,-1.219201 -0.76765,-1.851379 -2.25778,-1.851379 -0.84667,0 -1.524,0.214489 -1.98685,0.643467 -0.28222,0.248356 -0.42897,0.485423 -0.63218,1.004712 l 0.88054,0.191912 c 0.11289,-0.338667 0.2032,-0.496712 0.34996,-0.654757 0.31608,-0.327378 0.77893,-0.485422 1.39982,-0.485422 0.93698,0 1.4224,0.395111 1.4224,1.162756 v 0.654757 c -1.38853,0.03387 -1.9304,0.1016 -2.59645,0.293511 -1.04986,0.293511 -1.61431,0.948268 -1.61431,1.85138 0,1.072445 0.75636,1.715912 1.99814,1.715912 0.38382,0 0.79022,-0.07902 1.17404,-0.225778 0.38382,-0.146755 0.59831,-0.293511 1.03858,-0.688622 z m 0,-2.348091 c 0,0.451556 -0.0903,0.688623 -0.34996,0.970846 -0.44026,0.485422 -1.15146,0.801512 -1.80622,0.801512 -0.73378,0 -1.19662,-0.395112 -1.19662,-1.016001 0,-0.541868 0.28222,-0.92569 0.85795,-1.162757 0.508,-0.214489 1.15147,-0.293512 2.49485,-0.327378 z m 6.37824,-3.736626 c -0.47414,-0.07902 -0.66605,-0.1016 -1.00471,-0.1016 -0.54187,0 -0.92569,0.112889 -1.35467,0.395112 -0.23707,0.158044 -0.4064,0.338667 -0.62089,0.688623 0.0113,-0.07902 0.0113,-0.248356 0.0113,-0.338667 v -0.643468 h -0.93698 c 0.0564,0.406401 0.079,0.711201 0.079,1.275646 v 3.533426 c 0,0.462845 -0.0226,0.756356 -0.079,1.275645 h 1.016 c -0.0565,-0.440267 -0.079,-0.756356 -0.079,-1.264356 v -2.302936 c 0.0452,-0.508001 0.14675,-0.778934 0.41769,-1.12889 0.33866,-0.451556 0.8128,-0.688623 1.38853,-0.688623 0.28222,0 0.48542,0.03387 0.9144,0.169334 z m 6.27663,3.172181 c -0.0226,-0.3048 -0.0677,-0.745067 -0.079,-0.869245 -0.22578,-1.512713 -1.27565,-2.449692 -2.73192,-2.449692 -1.69333,0 -2.79964,1.264357 -2.79964,3.194759 0,1.95298 1.1176,3.194759 2.88996,3.194759 0.82408,0 1.51271,-0.270934 2.04329,-0.790223 0.25964,-0.259645 0.4064,-0.462845 0.62089,-0.936979 l -0.79023,-0.316089 c -0.31609,0.869245 -0.94827,1.320801 -1.86267,1.320801 -0.67733,0 -1.23049,-0.270933 -1.59173,-0.767645 -0.3048,-0.4064 -0.41769,-0.824089 -0.45156,-1.580446 z m -4.71876,-0.711201 c 0.0677,-0.428978 0.12418,-0.632178 0.28222,-0.9144 0.33867,-0.632179 0.9144,-0.982135 1.60303,-0.982135 0.54186,0 0.98213,0.169334 1.33209,0.508001 0.36124,0.349956 0.53057,0.756356 0.59831,1.388534 z m 7.04427,3.623737 c -0.0565,-0.440267 -0.079,-0.778934 -0.079,-1.275645 v -2.178758 c 0.0903,-0.451556 0.22578,-0.733779 0.51929,-1.117601 0.47414,-0.609601 0.98214,-0.891823 1.61432,-0.891823 0.89182,0 1.37724,0.541867 1.37724,1.557868 v 2.630314 c 0,0.496711 -0.0226,0.835378 -0.079,1.275645 h 1.016 c -0.0564,-0.372533 -0.079,-0.688622 -0.079,-1.264356 v -2.788359 c 0,-0.553156 -0.1016,-0.970845 -0.31609,-1.298223 -0.36125,-0.553156 -0.99343,-0.846668 -1.80623,-0.846668 -1.016,0 -1.74978,0.440267 -2.28035,1.365957 0.0339,-0.259645 0.0339,-0.349956 0.0339,-0.485423 v -0.767645 h -0.93698 c 0.0677,0.451556 0.0903,0.767645 0.0903,1.275646 v 3.533426 c 0,0.541867 -0.0226,0.846667 -0.0903,1.275645 z m 6.67173,-7.766763 c 0.0565,0.372534 0.079,0.801512 0.079,1.253068 v 0.428978 h -0.45156 c -0.47413,0 -0.69991,-0.01129 -1.016,-0.06773 v 0.857956 c 0.37253,-0.04516 0.63218,-0.06773 1.016,-0.06773 h 0.45156 v 4.041426 c 0,0.530578 0.0903,0.857957 0.31609,1.083735 0.22577,0.225778 0.6096,0.349955 1.10631,0.349955 0.46284,0 0.8128,-0.06773 1.27564,-0.259644 l -0.24835,-0.790223 c -0.37254,0.225778 -0.59831,0.293511 -0.89182,0.293511 -0.23707,0 -0.42898,-0.06773 -0.55316,-0.191911 -0.1016,-0.1016 -0.14676,-0.270934 -0.14676,-0.598312 v -3.928537 h 0.54187 c 0.508,0 0.79022,0.01129 1.15147,0.06773 V 77.89399 c -0.39511,0.05644 -0.63218,0.06773 -1.15147,0.06773 h -0.54187 v -0.428978 c 0,-0.485423 0.0226,-0.891823 0.079,-1.253068 z"
       id="text18"
       style="font-weight:300;font-size:11.2889px;font-family:'Hiragino Kaku Gothic ProN';-inkscape-font-specification:'Hiragino Kaku Gothic ProN, Light';stroke-width:0.499999"
       aria-label="Parent" />
    <path
       style="fill:none;stroke:#000000;stroke-width:0.499999"
       d="m 45.791188,119.92461 h 3.946329 v 20.44957 h -3.946329"
       id="path18" />
    <path
       d="m 54.088659,125.5067 c 0.0508,0.3048 0.06773,0.5588 0.06773,0.94827 v 4.47887 c 0,0.44027 -0.01693,0.7366 -0.06773,1.00753 h 0.7874 c -0.0508,-0.2794 -0.06773,-0.5588 -0.06773,-1.00753 v -3.61527 c 0,-0.22013 -0.01693,-0.635 -0.0508,-1.03293 0.118533,0.2286 0.397934,0.7112 0.465667,0.8128 l 2.717801,4.08093 c 0.2286,0.34714 0.321733,0.51647 0.440267,0.762 h 0.922867 c -0.0508,-0.27093 -0.06773,-0.52493 -0.06773,-0.94826 v -4.51274 c 0,-0.4318 0.01693,-0.66887 0.06773,-0.97367 h -0.7874 c 0.0508,0.29634 0.06773,0.5588 0.06773,0.97367 v 3.58987 c 0,0.0762 0.01693,0.44873 0.0508,1.12607 -0.2032,-0.36407 -0.4572,-0.77894 -0.550334,-0.92287 L 55.40946,126.2687 c -0.245534,-0.381 -0.355601,-0.56726 -0.431801,-0.762 z m 10.481739,4.25027 c -0.01693,-0.2286 -0.0508,-0.5588 -0.05927,-0.65193 -0.169333,-1.13454 -0.956733,-1.83727 -2.048934,-1.83727 -1.27,0 -2.099734,0.94827 -2.099734,2.39607 0,1.46473 0.8382,2.39607 2.167468,2.39607 0.618066,0 1.134533,-0.2032 1.532467,-0.59267 0.194733,-0.19473 0.3048,-0.34713 0.465667,-0.70273 l -0.592667,-0.23707 c -0.237067,0.65193 -0.7112,0.9906 -1.397001,0.9906 -0.508,0 -0.922867,-0.2032 -1.1938,-0.57573 -0.2286,-0.3048 -0.313267,-0.61807 -0.338667,-1.18534 z m -3.539068,-0.5334 c 0.0508,-0.32173 0.09313,-0.47413 0.211667,-0.6858 0.254,-0.47413 0.6858,-0.7366 1.202267,-0.7366 0.4064,0 0.7366,0.127 0.999067,0.381 0.270933,0.26247 0.397933,0.56727 0.448733,1.0414 z m 4.013196,-1.84573 c 0.177801,0.37253 0.262467,0.5588 0.423334,0.93133 l 1.176867,2.85327 c 0.169334,0.41487 0.2286,0.56727 0.2794,0.77893 h 0.668867 c 0.05927,-0.26246 0.08467,-0.31326 0.270934,-0.77893 l 1.185333,-2.85327 c 0.279401,-0.6604 0.304801,-0.72813 0.414867,-0.93133 h -0.795867 c -0.04233,0.23706 -0.1016,0.44873 -0.254,0.82973 l -0.9652,2.49767 c -0.0762,0.18627 -0.127,0.3302 -0.194734,0.54187 -0.0508,-0.16934 -0.143933,-0.44027 -0.186266,-0.55034 l -0.965201,-2.4892 c -0.135466,-0.3302 -0.220133,-0.6096 -0.262467,-0.82973 z m 9.110142,2.37913 c -0.01693,-0.2286 -0.0508,-0.5588 -0.05927,-0.65193 -0.169333,-1.13454 -0.956733,-1.83727 -2.048934,-1.83727 -1.27,0 -2.099734,0.94827 -2.099734,2.39607 0,1.46473 0.8382,2.39607 2.167468,2.39607 0.618066,0 1.134533,-0.2032 1.532467,-0.59267 0.194733,-0.19473 0.3048,-0.34713 0.465667,-0.70273 l -0.592667,-0.23707 c -0.237067,0.65193 -0.7112,0.9906 -1.397001,0.9906 -0.508,0 -0.922867,-0.2032 -1.1938,-0.57573 -0.2286,-0.3048 -0.313267,-0.61807 -0.338667,-1.18534 z m -3.539068,-0.5334 c 0.0508,-0.32173 0.09313,-0.47413 0.211667,-0.6858 0.254,-0.47413 0.6858,-0.7366 1.202267,-0.7366 0.4064,0 0.7366,0.127 0.999067,0.381 0.270933,0.26247 0.397933,0.56727 0.448733,1.0414 z m 7.450665,-1.84573 c -0.3556,-0.0593 -0.499534,-0.0762 -0.753534,-0.0762 -0.4064,0 -0.694267,0.0847 -1.016,0.29633 -0.1778,0.11853 -0.3048,0.254 -0.465667,0.51647 0.0085,-0.0593 0.0085,-0.18627 0.0085,-0.254 v -0.4826 h -0.702734 c 0.04233,0.3048 0.05927,0.5334 0.05927,0.95673 v 2.65007 c 0,0.34713 -0.01693,0.56727 -0.05927,0.95673 h 0.762 c -0.04233,-0.3302 -0.05927,-0.56726 -0.05927,-0.94826 v -1.72721 c 0.03387,-0.381 0.110067,-0.5842 0.313267,-0.84666 0.254,-0.33867 0.6096,-0.51647 1.0414,-0.51647 0.211667,0 0.364067,0.0254 0.6858,0.127 z m 3.28507,3.3274 c 0.08467,0.34713 0.143934,0.49107 0.270934,0.66887 0.313267,0.4318 0.905933,0.6604 1.6764,0.6604 1.159934,0 1.879601,-0.52494 1.879601,-1.3716 0,-0.34714 -0.143933,-0.66887 -0.4064,-0.88054 -0.254,-0.19473 -0.524934,-0.29633 -1.346201,-0.4826 -0.524933,-0.11007 -0.745066,-0.1778 -0.9398,-0.28787 -0.186267,-0.1016 -0.287867,-0.27093 -0.287867,-0.46566 0,-0.44874 0.440267,-0.762 1.058334,-0.762 0.381,0 0.6858,0.11006 0.880534,0.32173 0.118533,0.11853 0.160866,0.22013 0.211667,0.44873 l 0.668866,-0.11006 c -0.110066,-0.38947 -0.2286,-0.5842 -0.448733,-0.77047 -0.3048,-0.27093 -0.753534,-0.4064 -1.329267,-0.4064 -0.567267,0 -1.024467,0.1524 -1.320801,0.44027 -0.237067,0.2286 -0.364067,0.51646 -0.364067,0.82126 0,0.37254 0.160867,0.6858 0.457201,0.889 0.287866,0.19474 0.575733,0.29634 1.253067,0.44027 0.626533,0.127 0.795867,0.1778 0.999067,0.3048 0.1778,0.11007 0.262467,0.28787 0.262467,0.52494 0,0.49953 -0.465667,0.8128 -1.202268,0.8128 -0.4318,0 -0.770467,-0.1016 -0.982133,-0.29634 -0.169334,-0.1524 -0.237067,-0.3048 -0.296334,-0.61806 z m 8.78841,-0.94827 c -0.01693,-0.2286 -0.0508,-0.5588 -0.05927,-0.65193 -0.169333,-1.13454 -0.956733,-1.83727 -2.048934,-1.83727 -1.27,0 -2.099734,0.94827 -2.099734,2.39607 0,1.46473 0.8382,2.39607 2.167467,2.39607 0.618067,0 1.134534,-0.2032 1.532468,-0.59267 0.194733,-0.19473 0.3048,-0.34713 0.465667,-0.70273 l -0.592667,-0.23707 c -0.237067,0.65193 -0.711201,0.9906 -1.397001,0.9906 -0.508,0 -0.922867,-0.2032 -1.1938,-0.57573 -0.2286,-0.3048 -0.313267,-0.61807 -0.338667,-1.18534 z m -3.539068,-0.5334 c 0.0508,-0.32173 0.09313,-0.47413 0.211667,-0.6858 0.254,-0.47413 0.6858,-0.7366 1.202267,-0.7366 0.4064,0 0.7366,0.127 0.999067,0.381 0.270933,0.26247 0.397933,0.56727 0.448733,1.0414 z m 4.521197,-3.71687 c 0.04233,0.3048 0.05927,0.5334 0.05927,0.94827 v 4.53814 c 0,0.381 -0.01693,0.64346 -0.05927,0.94826 h 0.762 c -0.04233,-0.33866 -0.05927,-0.56726 -0.05927,-0.94826 v -4.52967 c 0,-0.42334 0.01693,-0.65194 0.05927,-0.95674 z m 5.96054,4.25027 c -0.01693,-0.2286 -0.0508,-0.5588 -0.05927,-0.65193 -0.169333,-1.13454 -0.956734,-1.83727 -2.048934,-1.83727 -1.27,0 -2.099734,0.94827 -2.099734,2.39607 0,1.46473 0.8382,2.39607 2.167467,2.39607 0.618067,0 1.134534,-0.2032 1.532468,-0.59267 0.194733,-0.19473 0.3048,-0.34713 0.465667,-0.70273 l -0.592667,-0.23707 c -0.237067,0.65193 -0.711201,0.9906 -1.397001,0.9906 -0.508,0 -0.922867,-0.2032 -1.1938,-0.57573 -0.2286,-0.3048 -0.313267,-0.61807 -0.338667,-1.18534 z m -3.539068,-0.5334 c 0.0508,-0.32173 0.09313,-0.47413 0.211667,-0.6858 0.254,-0.47413 0.6858,-0.7366 1.202267,-0.7366 0.4064,0 0.7366,0.127 0.999067,0.381 0.270933,0.26247 0.397933,0.56727 0.448733,1.0414 z m 8.381994,-0.64347 c -0.1016,-0.24553 -0.1778,-0.381 -0.29633,-0.54186 -0.36407,-0.508 -0.93134,-0.77894 -1.63407,-0.77894 -1.295401,0 -2.142068,0.95674 -2.142068,2.42147 0,1.4478 0.855134,2.37067 2.184398,2.37067 0.6858,0 1.22767,-0.24553 1.6002,-0.7112 0.14394,-0.18627 0.2286,-0.34713 0.34714,-0.65193 l -0.635,-0.16934 c -0.0593,0.2032 -0.1016,0.3048 -0.18627,0.4318 -0.22013,0.34714 -0.61807,0.54187 -1.10067,0.54187 -0.948264,0 -1.557864,-0.7112 -1.557864,-1.8288 0,-1.13454 0.592667,-1.86267 1.524004,-1.86267 0.62653,0 1.03293,0.31327 1.27846,0.97367 z m 1.56633,-2.4638 c 0.0423,0.2794 0.0593,0.60114 0.0593,0.9398 v 0.32174 h -0.33867 c -0.3556,0 -0.52493,-0.008 -0.762,-0.0508 v 0.64346 c 0.2794,-0.0339 0.47413,-0.0508 0.762,-0.0508 h 0.33867 v 3.03107 c 0,0.39794 0.0677,0.64347 0.23706,0.8128 0.16934,0.16934 0.4572,0.26247 0.82974,0.26247 0.34713,0 0.6096,-0.0508 0.95673,-0.19473 l -0.18627,-0.59267 c -0.2794,0.16933 -0.44873,0.22013 -0.66886,0.22013 -0.1778,0 -0.32174,-0.0508 -0.41487,-0.14393 -0.0762,-0.0762 -0.11007,-0.2032 -0.11007,-0.44873 v -2.94641 h 0.4064 c 0.381,0 0.59267,0.008 0.8636,0.0508 v -0.64346 c -0.29633,0.0423 -0.47413,0.0508 -0.8636,0.0508 h -0.4064 v -0.32174 c 0,-0.36406 0.0169,-0.66886 0.0593,-0.9398 z m 6.7818,3.64067 c -0.0169,-0.2286 -0.0508,-0.5588 -0.0593,-0.65193 -0.16934,-1.13454 -0.95674,-1.83727 -2.04894,-1.83727 -1.27,0 -2.09973,0.94827 -2.09973,2.39607 0,1.46473 0.8382,2.39607 2.16747,2.39607 0.61806,0 1.13453,-0.2032 1.53246,-0.59267 0.19474,-0.19473 0.3048,-0.34713 0.46567,-0.70273 l -0.59267,-0.23707 c -0.23706,0.65193 -0.7112,0.9906 -1.397,0.9906 -0.508,0 -0.92286,-0.2032 -1.1938,-0.57573 -0.2286,-0.3048 -0.31327,-0.61807 -0.33867,-1.18534 z m -3.53907,-0.5334 c 0.0508,-0.32173 0.0931,-0.47413 0.21167,-0.6858 0.254,-0.47413 0.6858,-0.7366 1.20227,-0.7366 0.4064,0 0.7366,0.127 0.99907,0.381 0.27093,0.26247 0.39793,0.56727 0.44873,1.0414 z m 8.1026,2.7178 h 0.67734 c -0.0423,-0.3302 -0.0593,-0.55033 -0.0593,-0.97366 v -4.50427 c 0,-0.37254 0.0169,-0.61807 0.0593,-0.95674 h -0.74507 c 0.0423,0.32174 0.0593,0.56727 0.0593,0.9652 v 1.13454 c 0,0.19473 0,0.27093 0.0254,0.44873 l 0.008,0.127 c -0.37253,-0.5842 -0.9652,-0.89747 -1.73566,-0.89747 -1.27,0 -2.0828,0.92287 -2.0828,2.37067 0,1.4732 0.79586,2.37067 2.09973,2.37067 0.77047,0 1.3208,-0.29633 1.71873,-0.9144 -0.0169,0.14393 -0.0254,0.29633 -0.0254,0.41487 z m -1.64253,-4.10633 c 0.44873,0 0.85513,0.16086 1.15147,0.44873 0.3048,0.29633 0.47413,0.7874 0.47413,1.3462 0,1.1176 -0.635,1.83727 -1.6256,1.83727 -0.47413,0 -0.87207,-0.1778 -1.13453,-0.508 -0.22014,-0.2794 -0.34714,-0.762 -0.34714,-1.3208 0,-1.12607 0.5588,-1.8034 1.48167,-1.8034 z m 9.36413,4.10633 h 0.6858 c -0.0508,-0.33866 -0.0677,-0.55033 -0.0677,-0.93133 v -2.37914 c 0,-0.9144 -0.57573,-1.38853 -1.69333,-1.38853 -0.635,0 -1.143,0.16087 -1.49014,0.4826 -0.21166,0.18627 -0.32173,0.36407 -0.47413,0.75353 l 0.6604,0.14394 c 0.0847,-0.254 0.1524,-0.37254 0.26247,-0.49107 0.23706,-0.24553 0.5842,-0.36407 1.04986,-0.36407 0.70274,0 1.0668,0.29634 1.0668,0.87207 v 0.49107 c -1.0414,0.0254 -1.4478,0.0762 -1.94733,0.22013 -0.7874,0.22013 -1.21073,0.7112 -1.21073,1.38854 0,0.80433 0.56726,1.28693 1.4986,1.28693 0.28786,0 0.59266,-0.0593 0.88053,-0.16933 0.28787,-0.11007 0.44873,-0.22014 0.77893,-0.51647 z m 0,-1.76107 c 0,0.33867 -0.0677,0.51647 -0.26246,0.72814 -0.3302,0.36407 -0.8636,0.60113 -1.35467,0.60113 -0.55033,0 -0.89747,-0.29633 -0.89747,-0.762 0,-0.4064 0.21167,-0.69427 0.64347,-0.87207 0.381,-0.16086 0.8636,-0.22013 1.87113,-0.24553 z m 1.60868,0.52494 c 0.0847,0.34713 0.14394,0.49107 0.27094,0.66887 0.31326,0.4318 0.90593,0.6604 1.6764,0.6604 1.15993,0 1.8796,-0.52494 1.8796,-1.3716 0,-0.34714 -0.14393,-0.66887 -0.4064,-0.88054 -0.254,-0.19473 -0.52494,-0.29633 -1.3462,-0.4826 -0.52494,-0.11007 -0.74507,-0.1778 -0.9398,-0.28787 -0.18627,-0.1016 -0.28787,-0.27093 -0.28787,-0.46566 0,-0.44874 0.44027,-0.762 1.05833,-0.762 0.381,0 0.6858,0.11006 0.88054,0.32173 0.11853,0.11853 0.16086,0.22013 0.21166,0.44873 l 0.66887,-0.11006 c -0.11006,-0.38947 -0.2286,-0.5842 -0.44873,-0.77047 -0.3048,-0.27093 -0.75354,-0.4064 -1.32927,-0.4064 -0.56727,0 -1.02447,0.1524 -1.3208,0.44027 -0.23707,0.2286 -0.36407,0.51646 -0.36407,0.82126 0,0.37254 0.16087,0.6858 0.4572,0.889 0.28787,0.19474 0.57574,0.29634 1.25307,0.44027 0.62653,0.127 0.79587,0.1778 0.99907,0.3048 0.1778,0.11007 0.26247,0.28787 0.26247,0.52494 0,0.49953 -0.46567,0.8128 -1.20227,0.8128 -0.4318,0 -0.77047,-0.1016 -0.98214,-0.29634 -0.16933,-0.1524 -0.23706,-0.3048 -0.29633,-0.61806 z m 8.35661,3.01413 c -0.0423,-0.31326 -0.0593,-0.5588 -0.0593,-0.95673 v -1.04987 c 0,-0.2286 -0.008,-0.3556 -0.0339,-0.59266 0.39793,0.5842 0.99906,0.89746 1.74413,0.89746 1.27,0 2.0828,-0.92286 2.0828,-2.3622 0,-1.4732 -0.79587,-2.3622 -2.09973,-2.3622 -0.75354,0 -1.3462,0.31327 -1.7272,0.9144 0.0169,-0.14393 0.0254,-0.23707 0.0254,-0.34713 v -0.4826 h -0.67734 c 0.0423,0.32173 0.0593,0.56726 0.0593,0.97366 v 4.41961 c 0,0.34713 -0.0169,0.61806 -0.0593,0.94826 z m 1.59173,-2.25213 c -0.44026,0 -0.8636,-0.16087 -1.15993,-0.44873 -0.3048,-0.29634 -0.4826,-0.80434 -0.4826,-1.35467 0,-1.0922 0.6604,-1.82034 1.63407,-1.82034 0.94826,0 1.49013,0.6604 1.49013,1.81187 0,1.12607 -0.5588,1.81187 -1.48167,1.81187 z m 6.15526,0.47413 h 0.68581 c -0.0508,-0.33866 -0.0677,-0.55033 -0.0677,-0.93133 v -2.37914 c 0,-0.9144 -0.57573,-1.38853 -1.69333,-1.38853 -0.635,0 -1.143,0.16087 -1.49014,0.4826 -0.21166,0.18627 -0.32173,0.36407 -0.47413,0.75353 l 0.6604,0.14394 c 0.0847,-0.254 0.1524,-0.37254 0.26247,-0.49107 0.23706,-0.24553 0.5842,-0.36407 1.04986,-0.36407 0.70274,0 1.0668,0.29634 1.0668,0.87207 v 0.49107 c -1.0414,0.0254 -1.4478,0.0762 -1.94733,0.22013 -0.7874,0.22013 -1.21073,0.7112 -1.21073,1.38854 0,0.80433 0.56726,1.28693 1.4986,1.28693 0.28786,0 0.59266,-0.0593 0.88053,-0.16933 0.28787,-0.11007 0.44873,-0.22014 0.77893,-0.51647 z m 0,-1.76107 c 0,0.33867 -0.0677,0.51647 -0.26246,0.72814 -0.3302,0.36407 -0.8636,0.60113 -1.35467,0.60113 -0.55033,0 -0.89747,-0.29633 -0.89747,-0.762 0,-0.4064 0.21167,-0.69427 0.64347,-0.87207 0.381,-0.16086 0.8636,-0.22013 1.87113,-0.24553 z m 4.78369,-2.80246 c -0.3556,-0.0593 -0.49954,-0.0762 -0.75354,-0.0762 -0.4064,0 -0.69427,0.0847 -1.016,0.29633 -0.1778,0.11853 -0.3048,0.254 -0.46567,0.51647 0.008,-0.0593 0.008,-0.18627 0.008,-0.254 v -0.4826 h -0.70273 c 0.0423,0.3048 0.0593,0.5334 0.0593,0.95673 v 2.65007 c 0,0.34713 -0.0169,0.56727 -0.0593,0.95673 h 0.762 c -0.0423,-0.3302 -0.0593,-0.56726 -0.0593,-0.94826 v -1.72721 c 0.0339,-0.381 0.11007,-0.5842 0.31327,-0.84666 0.254,-0.33867 0.6096,-0.51647 1.0414,-0.51647 0.21167,0 0.36407,0.0254 0.6858,0.127 z m 4.70747,2.37913 c -0.0169,-0.2286 -0.0508,-0.5588 -0.0593,-0.65193 -0.16933,-1.13454 -0.95673,-1.83727 -2.04893,-1.83727 -1.27,0 -2.09974,0.94827 -2.09974,2.39607 0,1.46473 0.8382,2.39607 2.16747,2.39607 0.61807,0 1.13453,-0.2032 1.53247,-0.59267 0.19473,-0.19473 0.3048,-0.34713 0.46566,-0.70273 l -0.59266,-0.23707 c -0.23707,0.65193 -0.7112,0.9906 -1.397,0.9906 -0.508,0 -0.92287,-0.2032 -1.1938,-0.57573 -0.2286,-0.3048 -0.31327,-0.61807 -0.33867,-1.18534 z m -3.53907,-0.5334 c 0.0508,-0.32173 0.0931,-0.47413 0.21167,-0.6858 0.254,-0.47413 0.6858,-0.7366 1.20226,-0.7366 0.4064,0 0.7366,0.127 0.99907,0.381 0.27093,0.26247 0.39793,0.56727 0.44873,1.0414 z m 5.28319,2.7178 c -0.0423,-0.3302 -0.0593,-0.5842 -0.0593,-0.95673 v -1.63407 c 0.0677,-0.33867 0.16933,-0.55033 0.38946,-0.8382 0.3556,-0.4572 0.7366,-0.66887 1.21074,-0.66887 0.66886,0 1.03293,0.4064 1.03293,1.1684 v 1.97274 c 0,0.37253 -0.0169,0.62653 -0.0593,0.95673 h 0.762 c -0.0423,-0.2794 -0.0593,-0.51646 -0.0593,-0.94826 v -2.09127 c 0,-0.41487 -0.0762,-0.72814 -0.23707,-0.97367 -0.27093,-0.41487 -0.74507,-0.635 -1.35467,-0.635 -0.762,0 -1.31233,0.3302 -1.71026,1.02447 0.0254,-0.19474 0.0254,-0.26247 0.0254,-0.36407 v -0.57573 h -0.70274 c 0.0508,0.33866 0.0677,0.57573 0.0677,0.95673 v 2.65007 c 0,0.4064 -0.0169,0.635 -0.0677,0.95673 z m 5.00381,-5.82507 c 0.0423,0.2794 0.0593,0.60114 0.0593,0.9398 v 0.32174 h -0.33867 c -0.3556,0 -0.52493,-0.008 -0.762,-0.0508 v 0.64346 c 0.2794,-0.0339 0.47413,-0.0508 0.762,-0.0508 h 0.33867 v 3.03107 c 0,0.39794 0.0677,0.64347 0.23706,0.8128 0.16934,0.16934 0.4572,0.26247 0.82974,0.26247 0.34713,0 0.6096,-0.0508 0.95673,-0.19473 l -0.18627,-0.59267 c -0.2794,0.16933 -0.44873,0.22013 -0.66886,0.22013 -0.1778,0 -0.32174,-0.0508 -0.41487,-0.14393 -0.0762,-0.0762 -0.11007,-0.2032 -0.11007,-0.44873 v -2.94641 h 0.4064 c 0.381,0 0.59267,0.008 0.8636,0.0508 v -0.64346 c -0.29633,0.0423 -0.47413,0.0508 -0.8636,0.0508 h -0.4064 v -0.32174 c 0,-0.36406 0.0169,-0.66886 0.0593,-0.9398 z"
       id="text19"
       style="font-weight:300;font-size:8.46667px;font-family:'Hiragino Kaku Gothic ProN';-inkscape-font-specification:'Hiragino Kaku Gothic ProN, Light';stroke-width:0.499999"
       aria-label="Never selected as parent" />
  </g>
</svg>
