<?xml version="1.0" encoding="UTF-8" standalone="no"?>
<!-- Created with Inkscape (http://www.inkscape.org/) -->

<svg
   width="139.23453mm"
   height="83.790092mm"
   viewBox="0 0 139.23453 83.790092"
   version="1.1"
   id="svg1"
   inkscape:version="1.4 (e7c3feb1, 2024-10-09)"
   sodipodi:docname="EA-vc_elite.svg"
   xmlns:inkscape="http://www.inkscape.org/namespaces/inkscape"
   xmlns:sodipodi="http://sodipodi.sourceforge.net/DTD/sodipodi-0.dtd"
   xmlns="http://www.w3.org/2000/svg"
   xmlns:svg="http://www.w3.org/2000/svg">
  <sodipodi:namedview
     id="namedview1"
     pagecolor="#ffffff"
     bordercolor="#000000"
     borderopacity="0.25"
     inkscape:showpageshadow="2"
     inkscape:pageopacity="0.0"
     inkscape:pagecheckerboard="0"
     inkscape:deskcolor="#d1d1d1"
     inkscape:document-units="mm"
     inkscape:zoom="0.83411208"
     inkscape:cx="264.35296"
     inkscape:cy="375.84877"
     inkscape:current-layer="layer1"
     showguides="false" />
  <defs
     id="defs1">
    <rect
       x="216.69629"
       y="919.38898"
       width="165.2429"
       height="45.537628"
       id="rect28" />
    <rect
       x="246.67436"
       y="921.70538"
       width="400.29193"
       height="48.744034"
       id="rect25" />
    <rect
       x="256.47992"
       y="885.51666"
       width="208.06551"
       height="51.698219"
       id="rect18" />
    <rect
       x="330.25568"
       y="658.20953"
       width="164.71147"
       height="82.655045"
       id="rect17" />
    <rect
       x="270.9296"
       y="375.03806"
       width="148.56805"
       height="49.47921"
       id="rect16" />
    <rect
       x="256.47992"
       y="885.51666"
       width="208.06551"
       height="51.698219"
       id="rect24" />
    <rect
       x="246.67436"
       y="921.70538"
       width="400.29193"
       height="48.744034"
       id="rect26" />
  </defs>
  <g
     inkscape:label="Layer 1"
     inkscape:groupmode="layer"
     id="layer1"
     transform="translate(-26.247542,-140.1172)">
    <path
       style="fill:none;stroke:#000000;stroke-width:0.5;stroke-dasharray:none"
       d="m 38.588924,152.22076 9.583946,27.82996 21.648961,15.9697 31.232919,3.748 17.94344,-3.748 21.10409,-11.30683 23.41827,-32.49283"
       id="path4" />
    <path
       id="rect2"
       style="fill:none;stroke:#000000;stroke-width:0.499999"
       d="M 38.588924,140.3672 H 163.52057 v 71.31614 H 38.588924 Z" />
    <path
       style="fill:none;stroke:#000000;stroke-width:0.499999;stroke-dasharray:1.5, 1.5;stroke-dashoffset:0"
       d="M 38.338924,152.22076 H 163.52056"
       id="path3" />
    <path
       id="path10"
       style="fill:#483d8a;stroke:#000000;stroke-width:0.2"
       d="m 71.68335,196.02042 a 1.8615197,1.8615197 0 0 1 -1.861519,1.86152 1.8615197,1.8615197 0 0 1 -1.86152,-1.86152 1.8615197,1.8615197 0 0 1 1.86152,-1.86152 1.8615197,1.8615197 0 0 1 1.861519,1.86152 z" />
    <path
       id="circle11"
       style="fill:#483d8a;stroke:#000000;stroke-width:0.2"
       d="m 40.450444,152.22076 a 1.8615197,1.8615197 0 0 1 -1.86152,1.86152 1.8615197,1.8615197 0 0 1 -1.861519,-1.86152 1.8615197,1.8615197 0 0 1 1.861519,-1.86152 1.8615197,1.8615197 0 0 1 1.86152,1.86152 z" />
    <path
       id="circle12"
       style="fill:#483d8a;stroke:#000000;stroke-width:0.2"
       d="m 165.38207,152.22076 a 1.8615197,1.8615197 0 0 1 -1.86152,1.86152 1.8615197,1.8615197 0 0 1 -1.86152,-1.86152 1.8615197,1.8615197 0 0 1 1.86152,-1.86152 1.8615197,1.8615197 0 0 1 1.86152,1.86152 z" />
    <path
       id="rect12"
       style="fill:#ff9955;stroke:#000000;stroke-width:0.2"
       transform="rotate(45)"
       d="m 215.36832,17.163134 h 2.50337 v 2.503372 h -2.50337 z" />
    <path
       id="circle10"
       style="fill:#483d8a;stroke:#000000;stroke-width:0.2"
       d="m 102.91627,199.76842 a 1.8615197,1.8615197 0 0 1 -1.86152,1.86152 1.8615197,1.8615197 0 0 1 -1.861521,-1.86152 1.8615197,1.8615197 0 0 1 1.861521,-1.86152 1.8615197,1.8615197 0 0 1 1.86152,1.86152 z" />
    <path
       id="rect15"
       style="fill:#ff9955;stroke:#000000;stroke-width:0.2"
       transform="rotate(45)"
       d="m 175.35669,60.316906 h 2.50337 v 2.503373 h -2.50337 z" />
    <text
       xml:space="preserve"
       transform="scale(0.26458333)"
       id="text16"
       style="font-weight:300;font-size:32px;font-family:'Hiragino Kaku Gothic ProN';-inkscape-font-specification:'Hiragino Kaku Gothic ProN, Light';text-align:start;writing-mode:lr-tb;direction:ltr;white-space:pre;shape-inside:url(#rect16);display:inline;fill:#ff9955;fill-opacity:1;stroke:#000000;stroke-width:0.755906;stroke-dasharray:none;stroke-dashoffset:0;stroke-opacity:1" />
    <g
       id="text18"
       style="font-style:italic;font-size:26.6667px;font-family:'Times New Roman';-inkscape-font-specification:'Times New Roman, Italic';white-space:pre;stroke-width:0.755906"
       transform="matrix(0.26458333,0,0,0.26458333,18.960758,-18.941596)"
       aria-label="x in AxB1-x">
      <path
         d="m 261.10287,900.53374 q 0.63802,0.67709 0.96354,1.35417 0.23438,0.46875 0.76823,2.46094 l 1.14584,-1.71875 q 0.45573,-0.625 1.10677,-1.1849 0.65104,-0.57291 1.14584,-0.78125 0.3125,-0.13021 0.6901,-0.13021 0.5599,0 0.88542,0.29948 0.33854,0.29948 0.33854,0.72917 0,0.49479 -0.19531,0.67708 -0.36459,0.32553 -0.83334,0.32553 -0.27343,0 -0.58594,-0.11719 -0.61198,-0.20834 -0.82031,-0.20834 -0.3125,0 -0.74219,0.36459 -0.80729,0.67708 -1.92708,2.61719 l 1.06771,4.47917 q 0.24739,1.02865 0.41666,1.23698 0.16927,0.19531 0.33855,0.19531 0.27343,0 0.63802,-0.29947 0.71614,-0.59896 1.22396,-1.56251 l 0.45573,0.23438 q -0.82032,1.53646 -2.08334,2.55208 -0.71615,0.57292 -1.21094,0.57292 -0.72917,0 -1.15885,-0.82031 -0.27344,-0.50781 -1.13282,-4.37501 -2.03125,3.52865 -3.25521,4.54428 -0.79427,0.65104 -1.53646,0.65104 -0.52083,0 -0.95052,-0.3776 -0.3125,-0.28646 -0.3125,-0.76823 0,-0.42969 0.28646,-0.71615 0.28645,-0.28646 0.70312,-0.28646 0.41667,0 0.88542,0.41667 0.33854,0.29948 0.52083,0.29948 0.15625,0 0.40365,-0.20833 0.61198,-0.4948 1.66667,-2.13542 1.05469,-1.64063 1.38021,-2.3698 -0.80729,-3.16407 -0.8724,-3.34636 -0.29948,-0.84635 -0.78125,-1.19792 -0.48177,-0.35156 -1.41927,-0.35156 -0.29948,0 -0.69011,0.026 v -0.46875 z"
         id="path6" />
      <path
         style="font-style:normal;font-family:'ヒラギノ丸ゴ ProN';-inkscape-font-specification:'ヒラギノ丸ゴ ProN'"
         d="m 276.87643,911.59761 c 0,0.72 0.45334,1.06667 1.2,1.06667 0.72001,0 1.22667,-0.34667 1.22667,-1.06667 v -12.98668 c 0,-0.69334 -0.50666,-1.04 -1.22667,-1.04 -0.74666,0 -1.2,0.34666 -1.2,1.04 z m 1.22667,-20.05336 c -1.01333,0 -1.81333,0.77334 -1.81333,1.78667 0,1.04 0.8,1.81334 1.81333,1.81334 0.98667,0 1.78667,-0.77334 1.78667,-1.81334 0,-1.01333 -0.8,-1.78667 -1.78667,-1.78667 z m 17.28,11.01335 c 0,-3.28 -1.70667,-5.20001 -4.88,-5.20001 -2.53334,0 -4.13334,1.2 -5.06668,3.09334 0.0267,-0.50667 0.10667,-0.77333 0.10667,-1.12 v -0.72 c 0,-0.69334 -0.48,-1.04 -1.17334,-1.04 -0.74666,0 -1.25333,0.34666 -1.25333,1.04 v 12.98668 c 0,0.72 0.48,1.06667 1.22667,1.06667 0.69333,0 1.2,-0.34667 1.2,-1.06667 v -7.46668 c 0,-1.04 0.26667,-1.81333 0.93333,-2.72 0.90667,-1.25333 2.10667,-1.89333 3.54667,-1.89333 2.00001,0 2.90667,1.28 2.90667,3.54667 v 8.53334 c 0,0.72 0.50667,1.06667 1.22667,1.06667 0.69334,0 1.22667,-0.34667 1.22667,-1.06667 z"
         id="path7" />
      <path
         d="m 317.14502,894.25769 -1.34115,14.68752 q -0.10417,1.02865 -0.10417,1.35417 0,0.52083 0.19531,0.79427 0.2474,0.37761 0.66407,0.5599 0.42969,0.18229 1.43229,0.18229 l -0.14323,0.48177 h -6.95313 l 0.14323,-0.48177 h 0.29948 q 0.84635,0 1.38021,-0.36458 0.3776,-0.2474 0.58594,-0.82032 0.14323,-0.40364 0.27343,-1.90104 l 0.20834,-2.23959 h -5.05209 l -1.79688,2.4349 q -0.61198,0.82032 -0.76823,1.1849 -0.15625,0.35156 -0.15625,0.66406 0,0.41667 0.33854,0.71615 0.33854,0.29948 1.1198,0.32552 l -0.14323,0.48177 h -5.22136 l 0.14322,-0.48177 q 0.96355,-0.0391 1.69271,-0.63802 0.74219,-0.61198 2.20053,-2.59115 l 10.54689,-14.34898 z m -2.57813,4.33595 -5.1172,6.96615 h 4.44011 z"
         id="path8" />
      <path
         style="font-size:65%;baseline-shift:sub"
         d="m 322.70166,909.99144 q 0.41472,0.4401 0.62631,0.88021 0.15234,0.30468 0.49935,1.59961 l 0.74479,-1.11719 q 0.29622,-0.40625 0.7194,-0.77018 0.42318,-0.3724 0.74479,-0.50782 0.20313,-0.0846 0.44857,-0.0846 0.36393,0 0.57552,0.19466 0.22005,0.19466 0.22005,0.47396 0,0.32161 -0.12695,0.4401 -0.23698,0.21159 -0.54167,0.21159 -0.17773,0 -0.38086,-0.0762 -0.39778,-0.13542 -0.5332,-0.13542 -0.20313,0 -0.48242,0.23698 -0.52474,0.44011 -1.25261,1.70118 l 0.69401,2.91146 q 0.16081,0.66862 0.27084,0.80404 0.11002,0.12695 0.22005,0.12695 0.17773,0 0.41471,-0.19466 0.4655,-0.38933 0.79558,-1.01563 l 0.29622,0.15234 q -0.5332,0.9987 -1.35417,1.65886 -0.46549,0.3724 -0.78711,0.3724 -0.47396,0 -0.75325,-0.53321 -0.17774,-0.33007 -0.73633,-2.84375 -1.32032,2.29362 -2.11589,2.95378 -0.51628,0.42318 -0.9987,0.42318 -0.33854,0 -0.61784,-0.24545 -0.20312,-0.18619 -0.20312,-0.49935 0,-0.27929 0.18619,-0.46549 0.1862,-0.1862 0.45704,-0.1862 0.27083,0 0.57552,0.27083 0.22005,0.19467 0.33854,0.19467 0.10156,0 0.26237,-0.13542 0.39779,-0.32162 1.08333,-1.38802 0.68555,-1.06641 0.89714,-1.54037 -0.52474,-2.05664 -0.56706,-2.17513 -0.19466,-0.55013 -0.50781,-0.77865 -0.31315,-0.22851 -0.92253,-0.22851 -0.19466,0 -0.44857,0.0169 v -0.30469 z"
         id="path9" />
      <path
         d="m 331.33579,895.14311 0.18229,-0.48177 h 6.30209 q 1.58855,0 2.82553,0.49479 1.25,0.49479 1.86198,1.38021 0.625,0.88542 0.625,1.875 0,1.52344 -1.10677,2.76042 -1.09375,1.22396 -3.58074,1.8099 1.60157,0.59896 2.35678,1.58855 0.75521,0.98958 0.75521,2.17448 0,1.3151 -0.67709,2.51302 -0.67708,1.19792 -1.74479,1.86198 -1.05469,0.66407 -2.55209,0.97657 -1.06771,0.22135 -3.33334,0.22135 h -6.47136 l 0.16927,-0.48177 q 1.01563,-0.026 1.38021,-0.19531 0.52084,-0.22136 0.74219,-0.58594 0.3125,-0.49479 0.83334,-2.26563 l 3.16406,-10.69012 q 0.40365,-1.35416 0.40365,-1.90104 0,-0.48177 -0.36458,-0.75521 -0.35157,-0.28646 -1.35417,-0.28646 -0.22136,0 -0.41667,-0.013 z m 2.64323,7.33074 q 0.84636,0.026 1.22396,0.026 2.70834,0 4.02344,-1.17188 1.32813,-1.18489 1.32813,-2.95573 0,-1.34115 -0.80729,-2.08333 -0.80729,-0.75521 -2.57813,-0.75521 -0.46875,0 -1.19792,0.15625 z m -2.56511,8.69793 q 1.40626,0.18229 2.20053,0.18229 2.03125,0 3.59375,-1.22396 1.57553,-1.22396 1.57553,-3.32032 0,-1.60156 -0.97657,-2.5 -0.96354,-0.89844 -3.125,-0.89844 -0.41667,0 -1.01563,0.0391 z"
         id="path11" />
      <path
         style="font-style:normal;font-size:65%;-inkscape-font-specification:'Times New Roman, ';baseline-shift:sub"
         d="m 345.71081,907.30003 2.79297,-1.36263 h 0.2793 v 9.69076 q 0,0.96485 0.0762,1.20183 0.0846,0.23698 0.33854,0.36393 0.25391,0.12695 1.03256,0.14388 v 0.31315 h -4.31641 v -0.31315 q 0.8125,-0.0169 1.04948,-0.13542 0.23698,-0.12695 0.33007,-0.33007 0.0931,-0.21159 0.0931,-1.24415 v -6.19532 q 0,-1.2526 -0.0846,-1.60807 -0.0593,-0.27084 -0.22005,-0.39779 -0.15235,-0.12695 -0.3724,-0.12695 -0.31315,0 -0.87175,0.26237 z"
         id="path12" />
      <path
         style="font-size:65%;baseline-shift:sub"
         d="m 357.53439,913.32608 -0.34701,1.12565 h -4.38412 l 0.34701,-1.12565 z m 3.58855,-3.33464 q 0.41471,0.4401 0.6263,0.88021 0.15235,0.30468 0.49935,1.59961 l 0.74479,-1.11719 q 0.29623,-0.40625 0.71941,-0.77018 0.42317,-0.3724 0.74479,-0.50782 0.20312,-0.0846 0.44857,-0.0846 0.36393,0 0.57552,0.19466 0.22005,0.19466 0.22005,0.47396 0,0.32161 -0.12695,0.4401 -0.23698,0.21159 -0.54167,0.21159 -0.17773,0 -0.38086,-0.0762 -0.39779,-0.13542 -0.5332,-0.13542 -0.20313,0 -0.48243,0.23698 -0.52474,0.44011 -1.2526,1.70118 l 0.69401,2.91146 q 0.16081,0.66862 0.27083,0.80404 0.11003,0.12695 0.22006,0.12695 0.17773,0 0.41471,-0.19466 0.46549,-0.38933 0.79557,-1.01563 l 0.29623,0.15234 q -0.53321,0.9987 -1.35417,1.65886 -0.4655,0.3724 -0.78711,0.3724 -0.47396,0 -0.75326,-0.53321 -0.17773,-0.33007 -0.73633,-2.84375 -1.32031,2.29362 -2.11588,2.95378 -0.51628,0.42318 -0.9987,0.42318 -0.33855,0 -0.61784,-0.24545 -0.20313,-0.18619 -0.20313,-0.49935 0,-0.27929 0.1862,-0.46549 0.1862,-0.1862 0.45703,-0.1862 0.27084,0 0.57552,0.27083 0.22006,0.19467 0.33855,0.19467 0.10156,0 0.26237,-0.13542 0.39778,-0.32162 1.08333,-1.38802 0.68555,-1.06641 0.89714,-1.54037 -0.52474,-2.05664 -0.56706,-2.17513 -0.19466,-0.55013 -0.50781,-0.77865 -0.31316,-0.22851 -0.92253,-0.22851 -0.19466,0 -0.44857,0.0169 v -0.30469 z"
         id="path13" />
    </g>
    <g
       id="text24"
       style="font-weight:300;font-size:26.6667px;font-family:'Hiragino Kaku Gothic ProN';-inkscape-font-specification:'Hiragino Kaku Gothic ProN, Light';white-space:pre;stroke-width:0.755906"
       transform="matrix(0,-0.26458333,0.26458333,0,-219.22187,261.81865)"
       aria-label="Ef(eV/atom)&#10;">
      <path
         style="font-style:italic;font-weight:normal;font-family:'Times New Roman';-inkscape-font-specification:'Times New Roman,  Italic'"
         d="m 255.30665,931.79936 -2.01823,6.97918 h 1.65365 q 1.77083,0 2.56511,-0.53386 0.79427,-0.54687 1.36718,-2.00521 h 0.48178 l -1.8099,6.40626 h -0.52084 q 0.23438,-0.80729 0.23438,-1.38021 0,-0.5599 -0.23438,-0.89844 -0.22135,-0.33854 -0.625,-0.49479 -0.39062,-0.16927 -1.66667,-0.16927 h -1.67969 l -1.70573,5.84636 q -0.24739,0.84635 -0.24739,1.28906 0,0.33855 0.32552,0.59896 0.22135,0.18229 1.10677,0.18229 h 1.5625 q 2.53907,0 4.06251,-0.89843 1.53646,-0.89844 2.7474,-3.12501 h 0.48177 l -1.66667,4.90886 h -13.64585 l 0.16927,-0.48177 q 1.01563,-0.026 1.36719,-0.18229 0.52083,-0.23438 0.75521,-0.59896 0.35156,-0.53386 0.83333,-2.23959 l 3.09897,-10.65105 q 0.36458,-1.28907 0.36458,-1.96615 0,-0.49479 -0.35156,-0.76823 -0.33855,-0.28646 -1.34115,-0.28646 h -0.27344 l 0.15625,-0.48177 h 12.68231 l -1.09375,4.25782 h -0.48177 q 0.0911,-0.59896 0.0911,-1.00261 0,-0.6901 -0.33854,-1.15885 -0.44271,-0.59896 -1.28906,-0.91146 -0.62501,-0.23438 -2.87761,-0.23438 z"
         id="path1" />
      <path
         style="font-weight:normal;font-size:65%;font-family:'Times New Roman';-inkscape-font-specification:'Times New Roman, ';baseline-shift:sub"
         d="m 266.53453,946.69521 v 5.09506 q 0,1.08334 0.23698,1.3711 0.31315,0.37239 0.83789,0.37239 h 0.70248 v 0.30469 h -4.62957 v -0.30469 h 0.34701 q 0.33854,0 0.61784,-0.16927 0.2793,-0.16927 0.38086,-0.45703 0.11002,-0.28776 0.11002,-1.11719 v -5.09506 h -1.50651 v -0.60937 h 1.50651 v -0.50781 q 0,-1.15951 0.3724,-1.96355 0.3724,-0.80404 1.13412,-1.29492 0.77018,-0.49935 1.72656,-0.49935 0.88867,0 1.63347,0.57552 0.49088,0.38086 0.49088,0.85482 0,0.2539 -0.22005,0.48242 -0.22005,0.22005 -0.47396,0.22005 -0.19466,0 -0.41471,-0.13541 -0.21159,-0.14388 -0.52474,-0.60092 -0.31315,-0.46549 -0.57552,-0.6263 -0.26237,-0.16081 -0.58399,-0.16081 -0.38932,0 -0.66016,0.21159 -0.27083,0.20313 -0.38932,0.64323 -0.11849,0.43164 -0.11849,2.24284 v 0.5586 h 1.9974 v 0.60937 z"
         id="path2" />
      <path
         d="m 277.45507,951.67845 c -1.49334,-2.29334 -2.08001,-3.49334 -2.66668,-5.38667 -0.61333,-1.92001 -0.90666,-3.94668 -0.90666,-6.05335 0,-2.10666 0.29333,-4.10667 0.90666,-6.02667 0.58667,-1.89334 1.17334,-3.09334 2.66668,-5.38667 l -1.68001,-1.06667 c -1.54667,2.37334 -2.18667,3.65334 -2.82667,5.54667 -0.72,2.16001 -1.09333,4.45334 -1.09333,6.93334 0,2.48001 0.37333,4.77334 1.09333,6.93335 0.64,1.92 1.28,3.2 2.82667,5.57334 z m 15.25337,-10.21335 c -0.0533,-0.72 -0.16,-1.76 -0.18666,-2.05333 -0.53334,-3.57334 -3.01334,-5.78668 -6.45335,-5.78668 -4,0 -6.61334,2.98667 -6.61334,7.54668 0,4.61334 2.64001,7.54668 6.82668,7.54668 1.94667,0 3.57334,-0.64001 4.82667,-1.86667 0.61333,-0.61334 0.96,-1.09334 1.46667,-2.21334 l -1.86667,-0.74667 c -0.74667,2.05334 -2.24,3.12001 -4.40001,3.12001 -1.6,0 -2.90667,-0.64 -3.76,-1.81334 -0.72,-0.96 -0.98667,-1.94667 -1.06667,-3.73334 z m -11.14668,-1.68 c 0.16,-1.01333 0.29334,-1.49333 0.66667,-2.16 0.8,-1.49334 2.16,-2.32 3.78667,-2.32 1.28,0 2.32,0.4 3.14667,1.2 0.85334,0.82666 1.25334,1.78667 1.41334,3.28 z m 16.24,-8.98668 c -0.34666,-0.98666 -0.61333,-1.86667 -0.77333,-2.72 h -2.74667 c 0.32,0.56 0.77333,1.54667 1.36,3.09334 l 5.70667,14.69335 c 0.56,1.38667 0.74667,1.92 0.85334,2.48 h 2.58667 c 0.13333,-0.56 0.37333,-1.30667 0.82667,-2.48 l 5.70667,-14.69335 c 0.66667,-1.73334 0.93333,-2.37334 1.36,-3.09334 h -2.77334 c -0.08,0.69333 -0.29333,1.46667 -0.77333,2.72 l -5.01334,13.65335 c -0.18667,0.56 -0.34667,1.04 -0.61333,1.86667 -0.26667,-0.8 -0.53334,-1.57333 -0.64,-1.86667 z m 25.36006,-2.72 -9.62668,24.40003 h 2 l 9.60001,-24.40003 z m 13.89338,20.26669 h 2.16 c -0.16,-1.06667 -0.21333,-1.73333 -0.21333,-2.93334 v -7.49334 c 0,-2.88 -1.81334,-4.37334 -5.33334,-4.37334 -2,0 -3.60001,0.50667 -4.69334,1.52001 -0.66667,0.58666 -1.01334,1.14666 -1.49334,2.37333 l 2.08001,0.45334 c 0.26666,-0.80001 0.48,-1.17334 0.82666,-1.54667 0.74667,-0.77334 1.84001,-1.14667 3.30667,-1.14667 2.21334,0 3.36001,0.93333 3.36001,2.74667 v 1.54667 c -3.28001,0.08 -4.56001,0.24 -6.13334,0.69333 -2.48001,0.69334 -3.81334,2.24 -3.81334,4.37334 0,2.53334 1.78667,4.05334 4.72001,4.05334 0.90666,0 1.86666,-0.18667 2.77333,-0.53334 0.90667,-0.34666 1.41334,-0.69333 2.45334,-1.62666 z m 0,-5.54667 c 0,1.06667 -0.21333,1.62667 -0.82667,2.29333 -1.04,1.14667 -2.72,1.89334 -4.26667,1.89334 -1.73334,0 -2.82667,-0.93333 -2.82667,-2.4 0,-1.28 0.66667,-2.18667 2.02667,-2.74667 1.2,-0.50667 2.72,-0.69334 5.89334,-0.77334 z m 7.52003,-12.80002 c 0.13333,0.88 0.18667,1.89334 0.18667,2.96001 v 1.01333 h -1.06667 c -1.12,0 -1.65334,-0.0267 -2.4,-0.16 v 2.02667 c 0.88,-0.10667 1.49333,-0.16 2.4,-0.16 h 1.06667 v 9.54668 c 0,1.25333 0.21333,2.02667 0.74666,2.56 0.53334,0.53334 1.44001,0.82667 2.61334,0.82667 1.09334,0 1.92,-0.16 3.01334,-0.61334 l -0.58667,-1.86666 c -0.88,0.53333 -1.41333,0.69333 -2.10667,0.69333 -0.56,0 -1.01333,-0.16 -1.30667,-0.45333 -0.24,-0.24 -0.34666,-0.64 -0.34666,-1.41334 v -9.28001 h 1.28 c 1.2,0 1.86667,0.0267 2.72,0.16 v -2.02667 c -0.93333,0.13333 -1.49333,0.16 -2.72,0.16 h -1.28 v -1.01333 c 0,-1.14667 0.0533,-2.10667 0.18666,-2.96001 z m 15.25335,18.69336 c 4.29334,0 7.06668,-2.98667 7.06668,-7.54668 0,-4.58667 -2.74667,-7.52001 -7.09334,-7.52001 -4.34668,0 -7.12001,2.93334 -7.12001,7.54668 0,4.61334 2.77333,7.52001 7.14667,7.52001 z m 0.0267,-13.38668 c 3.06667,0 4.98667,2.24 4.98667,5.84 0,3.60001 -1.92,5.81334 -5.04,5.81334 -3.12001,0 -5.06668,-2.21333 -5.06668,-5.84 0,-3.60001 1.94667,-5.81334 5.12001,-5.81334 z m 12.50668,13.04001 c -0.13333,-1.06667 -0.18667,-1.78667 -0.18667,-3.01334 v -5.22667 c 0,-0.69333 0.4,-1.94667 0.88,-2.66667 0.82667,-1.28 2.10667,-2.02667 3.49334,-2.02667 1.92001,0 2.98667,1.28 2.98667,3.62667 v 6.29334 c 0,1.36001 -0.0533,2.05334 -0.18666,3.01334 h 2.4 c -0.13333,-0.90667 -0.18667,-1.65333 -0.18667,-2.98667 v -5.25334 c 0,-0.8 0.37334,-1.97333 0.88,-2.74667 0.77334,-1.22667 2.02667,-1.94667 3.36001,-1.94667 2.13333,0 3.06667,1.09334 3.06667,3.62667 v 6.29334 c 0,1.41334 -0.0267,2.02667 -0.18667,3.01334 h 2.4 c -0.13333,-0.93333 -0.18666,-1.65333 -0.18666,-2.98667 v -6.58667 c 0,-1.57334 -0.26667,-2.61334 -0.90667,-3.46667 -0.8,-1.06667 -2.13334,-1.62667 -3.89334,-1.62667 -2.24,0 -3.68,0.85333 -4.93334,2.90667 -0.26667,-0.8 -0.42667,-1.12 -0.82667,-1.54667 -0.8,-0.90667 -1.92,-1.36 -3.44,-1.36 -1.54667,0 -2.85334,0.48 -3.76,1.38667 -0.53334,0.56 -0.77334,0.88 -1.01334,1.33333 0.0267,-0.50667 0.0533,-0.82667 0.0533,-0.96 v -1.46667 h -2.16 c 0.13333,0.96 0.18667,1.68 0.18667,3.01334 v 8.34667 c 0,1.25334 -0.0533,2.05334 -0.18667,3.01334 z m 21.33336,-19.52002 c 1.49334,2.29333 2.08,3.49333 2.66667,5.38667 0.61334,1.92 0.90667,3.89334 0.90667,6.02667 0,2.13334 -0.29333,4.13334 -0.90667,6.05335 -0.58667,1.89333 -1.17333,3.09333 -2.66667,5.38667 l 1.68,1.06667 c 1.54667,-2.37334 2.18667,-3.65334 2.82667,-5.57334 0.74667,-2.16001 1.09334,-4.42668 1.09334,-6.93335 0,-2.48 -0.34667,-4.77333 -1.09334,-6.93334 -0.64,-1.89333 -1.28,-3.17333 -2.82667,-5.54667 z"
         id="path5" />
    </g>
    <path
       id="circle1"
       style="fill:#483d8a;stroke:#000000;stroke-width:0.2"
       d="m 120.85971,196.02042 a 1.8615197,1.8615197 0 0 1 -1.86152,1.86152 1.8615197,1.8615197 0 0 1 -1.86152,-1.86152 1.8615197,1.8615197 0 0 1 1.86152,-1.86152 1.8615197,1.8615197 0 0 1 1.86152,1.86152 z" />
    <path
       id="circle2"
       style="fill:#483d8a;stroke:#000000;stroke-width:0.2"
       d="m 141.9638,184.71359 a 1.8615197,1.8615197 0 0 1 -1.86152,1.86152 1.8615197,1.8615197 0 0 1 -1.86152,-1.86152 1.8615197,1.8615197 0 0 1 1.86152,-1.86152 1.8615197,1.8615197 0 0 1 1.86152,1.86152 z" />
    <path
       id="circle3"
       style="fill:#483d8a;stroke:#000000;stroke-width:0.2"
       d="m 50.03439,180.05072 a 1.8615197,1.8615197 0 0 1 -1.861519,1.86152 1.8615197,1.8615197 0 0 1 -1.86152,-1.86152 1.8615197,1.8615197 0 0 1 1.86152,-1.86152 1.8615197,1.8615197 0 0 1 1.861519,1.86152 z" />
  </g>
</svg>
