<?xml version="1.0" encoding="UTF-8" standalone="no"?>
<svg
   width="518.2325pt"
   height="393.051875pt"
   viewBox="0 0 518.2325 393.051875"
   version="1.1"
   id="svg28"
   sodipodi:docname="Cu8_RS.svg"
   inkscape:version="1.4 (e7c3feb1, 2024-10-09)"
   xmlns:inkscape="http://www.inkscape.org/namespaces/inkscape"
   xmlns:sodipodi="http://sodipodi.sourceforge.net/DTD/sodipodi-0.dtd"
   xmlns="http://www.w3.org/2000/svg"
   xmlns:svg="http://www.w3.org/2000/svg"
   xmlns:rdf="http://www.w3.org/1999/02/22-rdf-syntax-ns#"
   xmlns:cc="http://creativecommons.org/ns#"
   xmlns:dc="http://purl.org/dc/elements/1.1/">
  <sodipodi:namedview
     id="namedview28"
     pagecolor="#ffffff"
     bordercolor="#000000"
     borderopacity="0.25"
     inkscape:showpageshadow="2"
     inkscape:pageopacity="0.0"
     inkscape:pagecheckerboard="0"
     inkscape:deskcolor="#d1d1d1"
     inkscape:document-units="pt"
     inkscape:zoom="1.0739593"
     inkscape:cx="332.8804"
     inkscape:cy="407.37112"
     inkscape:window-width="1920"
     inkscape:window-height="1240"
     inkscape:window-x="1647"
     inkscape:window-y="64"
     inkscape:window-maximized="0"
     inkscape:current-layer="svg28" />
  <metadata
     id="metadata1">
    <rdf:RDF>
      <cc:Work>
        <dc:type
           rdf:resource="http://purl.org/dc/dcmitype/StillImage" />
        <dc:date>2025-04-06T14:47:43.467217</dc:date>
        <dc:format>image/svg+xml</dc:format>
        <dc:creator>
          <cc:Agent>
            <dc:title>Matplotlib v3.8.0, https://matplotlib.org/</dc:title>
          </cc:Agent>
        </dc:creator>
      </cc:Work>
    </rdf:RDF>
  </metadata>
  <defs
     id="defs1">
    <style
       type="text/css"
       id="style1">*{stroke-linejoin: round; stroke-linecap: butt}</style>
  </defs>
  <g
     id="figure_1">
    <g
       id="patch_1">
      <path
         d="M 0 393.051875  L 518.2325 393.051875  L 518.2325 0  L 0 0  z "
         style="fill: #ffffff"
         id="path1" />
    </g>
    <g
       id="axes_1">
      <g
         id="patch_2">
        <path
           d="M 55.7375 345.5525  L 502.1375 345.5525  L 502.1375 12.9125  L 55.7375 12.9125  z "
           style="fill: #ffffff"
           id="path2" />
      </g>
      <g
         id="matplotlib.axis_1">
        <g
           id="xtick_1">
          <g
             id="line2d_1">
            <path
               d="M 96.319318 345.5525  L 96.319318 12.9125  "
               clip-path="url(#pe4c18e9cf3)"
               style="fill: none; stroke-dasharray: 0.8,1.32; stroke-dashoffset: 0; stroke: #b0b0b0; stroke-width: 0.8"
               id="path3" />
          </g>
          <g
             id="line2d_2">
            <defs
               id="defs3">
              <path
                 id="m536fe8290d"
                 d="M 0 0  L 0 -8  "
                 style="stroke: #000000" />
            </defs>
            <g
               id="g3">
              <path
                 id="use3"
                 d="m 96.319321,345.55249 v -8"
                 style="stroke:#000000" />
            </g>
          </g>
          <g
             id="text_1">
            <path
               d="m 93.983323,354.89351 q 0,-0.416 0,-0.912 0.016,-0.512 0.08,-1.008 0.08,-0.512 0.208,-0.992 0.144,-0.48 0.4,-0.832 0.272,-0.368 0.672,-0.592 0.4,-0.224 0.976,-0.224 0.576,0 0.976,0.224 0.4,0.224 0.656,0.592 0.272,0.352 0.4,0.832 0.144,0.48 0.208,0.992 0.08,0.496 0.08,1.008 0.016,0.496 0.016,0.912 0,0.64 -0.048,1.44 -0.032,0.784 -0.256,1.488 -0.208,0.688 -0.688,1.168 -0.48,0.48 -1.344,0.48 -0.864,0 -1.344,-0.48 -0.48,-0.48 -0.704,-1.168 -0.208,-0.704 -0.256,-1.488 -0.032,-0.8 -0.032,-1.44 z m -1.44,0.016 q 0,0.624 0.032,1.296 0.032,0.672 0.16,1.312 0.128,0.64 0.368,1.216 0.24,0.56 0.656,0.992 0.416,0.432 1.04,0.688 0.64,0.24 1.52,0.24 0.896,0 1.52,-0.24 0.624,-0.256 1.04,-0.688 0.416,-0.432 0.656,-0.992 0.24,-0.576 0.368,-1.216 0.127997,-0.64 0.159997,-1.312 0.032,-0.672 0.032,-1.296 0,-0.624 -0.032,-1.296 -0.032,-0.672 -0.159997,-1.312 -0.128,-0.64 -0.368,-1.216 -0.24,-0.576 -0.656,-1.008 -0.416,-0.432 -1.056,-0.688 -0.624,-0.256 -1.504,-0.256 -0.88,0 -1.52,0.256 -0.624,0.256 -1.04,0.688 -0.416,0.432 -0.656,1.008 -0.24,0.576 -0.368,1.216 -0.128,0.64 -0.16,1.312 -0.032,0.672 -0.032,1.296 z"
               id="text3"
               style="font-size:16px;font-family:'Helvetica Neue', Arial, 'Liberation Sans', 'DejaVu Sans', sans-serif;text-anchor:middle"
               transform="rotate(-0 96.319318 360.4775)"
               aria-label="0" />
          </g>
        </g>
        <g
           id="xtick_2">
          <g
             id="line2d_3">
            <path
               d="M 177.482955 345.5525  L 177.482955 12.9125  "
               clip-path="url(#pe4c18e9cf3)"
               style="fill: none; stroke-dasharray: 0.8,1.32; stroke-dashoffset: 0; stroke: #b0b0b0; stroke-width: 0.8"
               id="path4" />
          </g>
          <g
             id="line2d_4">
            <g
               id="g4">
              <path
                 id="use4"
                 d="m 177.48296,345.55249 v -8"
                 style="stroke:#000000" />
            </g>
          </g>
          <g
             id="text_2">
            <path
               d="m 173.73896,353.14951 h 1.36 q -0.016,-0.512 0.096,-1.008 0.128,-0.512 0.4,-0.912 0.272,-0.4 0.688,-0.64 0.432,-0.256 1.024,-0.256 0.448,0 0.848,0.144 0.4,0.144 0.688,0.416 0.304,0.272 0.48,0.656 0.176,0.368 0.176,0.832 0,0.592 -0.192,1.04 -0.176,0.448 -0.544,0.832 -0.352,0.384 -0.896,0.768 -0.544,0.368 -1.264,0.816 -0.592,0.352 -1.136,0.752 -0.544,0.4 -0.976,0.928 -0.432,0.528 -0.72,1.248 -0.272,0.704 -0.352,1.712 h 7.408 v -1.2 h -5.824 q 0.096,-0.528 0.4,-0.928 0.32,-0.416 0.752,-0.768 0.448,-0.352 0.976,-0.656 0.528,-0.32 1.056,-0.64 0.528,-0.336 1.024,-0.704 0.496,-0.368 0.88,-0.816 0.384,-0.464 0.608,-1.04 0.24,-0.576 0.24,-1.328 0,-0.8 -0.288,-1.408 -0.272,-0.608 -0.752,-1.008 -0.48,-0.416 -1.136,-0.624 -0.64,-0.224 -1.376,-0.224 -0.896,0 -1.6,0.304 -0.704,0.304 -1.184,0.848 -0.464,0.528 -0.688,1.264 -0.224,0.736 -0.176,1.6 z"
               id="text4"
               style="font-size:16px;font-family:'Helvetica Neue', Arial, 'Liberation Sans', 'DejaVu Sans', sans-serif;text-anchor:middle"
               transform="rotate(-0 177.482955 360.4775)"
               aria-label="2" />
          </g>
        </g>
        <g
           id="xtick_3">
          <g
             id="line2d_5">
            <path
               d="M 258.646591 345.5525  L 258.646591 12.9125  "
               clip-path="url(#pe4c18e9cf3)"
               style="fill: none; stroke-dasharray: 0.8,1.32; stroke-dashoffset: 0; stroke: #b0b0b0; stroke-width: 0.8"
               id="path5" />
          </g>
          <g
             id="line2d_6">
            <g
               id="g5">
              <path
                 id="use5"
                 d="m 258.64658,345.55249 v -8"
                 style="stroke:#000000" />
            </g>
          </g>
          <g
             id="text_3">
            <path
               d="m 259.62258,356.62151 h -3.808 l 3.776,-5.552 h 0.032 z m 1.28,0 v -7.488 h -1.088 l -5.168,7.376 v 1.312 h 4.976 v 2.656 h 1.28 v -2.656 h 1.536 v -1.2 z"
               id="text5"
               style="font-size:16px;font-family:'Helvetica Neue', Arial, 'Liberation Sans', 'DejaVu Sans', sans-serif;text-anchor:middle"
               transform="rotate(-0 258.646591 360.4775)"
               aria-label="4" />
          </g>
        </g>
        <g
           id="xtick_4">
          <g
             id="line2d_7">
            <path
               d="M 339.810227 345.5525  L 339.810227 12.9125  "
               clip-path="url(#pe4c18e9cf3)"
               style="fill: none; stroke-dasharray: 0.8,1.32; stroke-dashoffset: 0; stroke: #b0b0b0; stroke-width: 0.8"
               id="path6" />
          </g>
          <g
             id="line2d_8">
            <g
               id="g6">
              <path
                 id="use6"
                 d="m 339.81024,345.55249 v -8"
                 style="stroke:#000000" />
            </g>
          </g>
          <g
             id="text_4">
            <path
               d="m 341.98624,352.02951 h 1.36 q -0.128,-1.408 -0.96,-2.144 -0.832,-0.752 -2.24,-0.752 -1.216,0 -2.016,0.512 -0.8,0.512 -1.28,1.36 -0.48,0.848 -0.688,1.952 -0.192,1.088 -0.192,2.256 0,0.896 0.128,1.856 0.144,0.96 0.56,1.76 0.416,0.8 1.184,1.312 0.768,0.512 2.032,0.512 1.072,0 1.792,-0.352 0.736,-0.368 1.168,-0.912 0.448,-0.56 0.64,-1.232 0.192,-0.672 0.192,-1.296 0,-0.784 -0.24,-1.456 -0.24,-0.672 -0.688,-1.168 -0.432,-0.496 -1.088,-0.768 -0.64,-0.288 -1.456,-0.288 -0.928,0 -1.648,0.352 -0.704,0.352 -1.184,1.136 l -0.032,-0.032 q 0.016,-0.656 0.128,-1.408 0.112,-0.752 0.4,-1.392 0.304,-0.656 0.832,-1.072 0.528,-0.432 1.392,-0.432 0.816,0 1.312,0.464 0.496,0.464 0.592,1.232 z m -2.048,2.352 q 0.576,0 1.008,0.208 0.432,0.208 0.72,0.56 0.288,0.336 0.416,0.816 0.144,0.464 0.144,0.992 0,0.496 -0.16,0.96 -0.144,0.448 -0.432,0.8 -0.288,0.352 -0.72,0.56 -0.416,0.192 -0.976,0.192 -0.56,0 -1.008,-0.192 -0.432,-0.208 -0.736,-0.544 -0.288,-0.336 -0.448,-0.8 -0.16,-0.464 -0.16,-0.992 0,-0.528 0.144,-0.992 0.16,-0.48 0.464,-0.816 0.304,-0.352 0.736,-0.544 0.432,-0.208 1.008,-0.208 z"
               id="text6"
               style="font-size:16px;font-family:'Helvetica Neue', Arial, 'Liberation Sans', 'DejaVu Sans', sans-serif;text-anchor:middle"
               transform="rotate(-0 339.810227 360.4775)"
               aria-label="6" />
          </g>
        </g>
        <g
           id="xtick_5">
          <g
             id="line2d_9">
            <path
               d="M 420.973864 345.5525  L 420.973864 12.9125  "
               clip-path="url(#pe4c18e9cf3)"
               style="fill: none; stroke-dasharray: 0.8,1.32; stroke-dashoffset: 0; stroke: #b0b0b0; stroke-width: 0.8"
               id="path7" />
          </g>
          <g
             id="line2d_10">
            <g
               id="g7">
              <path
                 id="use7"
                 d="m 420.97388,345.55249 v -8"
                 style="stroke:#000000" />
            </g>
          </g>
          <g
             id="text_5">
            <path
               d="m 419.00588,352.07751 q 0,-0.432 0.16,-0.752 0.16,-0.32 0.416,-0.544 0.272,-0.224 0.64,-0.336 0.368,-0.112 0.768,-0.112 0.832,0 1.36,0.448 0.544,0.432 0.544,1.296 0,0.864 -0.528,1.344 -0.528,0.48 -1.344,0.48 -0.416,0 -0.784,-0.112 -0.368,-0.112 -0.64,-0.336 -0.272,-0.224 -0.432,-0.56 -0.16,-0.352 -0.16,-0.816 z m -1.44,-0.048 q 0,0.768 0.432,1.424 0.432,0.64 1.152,0.928 -0.96,0.336 -1.472,1.088 -0.512,0.736 -0.512,1.744 0,0.864 0.288,1.52 0.304,0.64 0.816,1.072 0.528,0.432 1.232,0.64 0.704,0.208 1.52,0.208 0.784,0 1.472,-0.224 0.688,-0.224 1.184,-0.656 0.512,-0.448 0.8,-1.088 0.304,-0.64 0.304,-1.472 0,-1.056 -0.496,-1.776 -0.496,-0.736 -1.52,-1.056 0.72,-0.32 1.136,-0.944 0.432,-0.64 0.432,-1.408 0,-0.544 -0.192,-1.056 -0.192,-0.528 -0.608,-0.928 -0.4,-0.416 -1.056,-0.656 -0.656,-0.256 -1.584,-0.256 -0.656,0 -1.264,0.192 -0.592,0.192 -1.056,0.56 -0.464,0.368 -0.736,0.912 -0.272,0.528 -0.272,1.232 z m 1.04,5.248 q 0,-0.496 0.176,-0.896 0.192,-0.4 0.512,-0.688 0.336,-0.288 0.768,-0.432 0.448,-0.16 0.944,-0.16 0.48,0 0.896,0.176 0.432,0.16 0.752,0.448 0.32,0.288 0.496,0.688 0.192,0.384 0.192,0.848 0,0.48 -0.176,0.88 -0.16,0.4 -0.48,0.704 -0.304,0.288 -0.736,0.464 -0.416,0.16 -0.928,0.16 -1.056,0 -1.744,-0.576 -0.672,-0.592 -0.672,-1.616 z"
               id="text7"
               style="font-size:16px;font-family:'Helvetica Neue', Arial, 'Liberation Sans', 'DejaVu Sans', sans-serif;text-anchor:middle"
               transform="rotate(-0 420.973864 360.4775)"
               aria-label="8" />
          </g>
        </g>
        <g
           id="xtick_6">
          <g
             id="line2d_11">
            <path
               d="M 502.1375 345.5525  L 502.1375 12.9125  "
               clip-path="url(#pe4c18e9cf3)"
               style="fill: none; stroke-dasharray: 0.8,1.32; stroke-dashoffset: 0; stroke: #b0b0b0; stroke-width: 0.8"
               id="path8" />
          </g>
          <g
             id="line2d_12">
            <g
               id="g8">
              <path
                 id="use8"
                 d="m 502.13751,345.55249 v -8"
                 style="stroke:#000000" />
            </g>
          </g>
          <g
             id="text_6">
            <path
               d="m 498.93752,360.47751 v -11.344 h -1.04 q -0.112,0.64 -0.416,1.056 -0.304,0.416 -0.752,0.656 -0.432,0.24 -0.976,0.336 -0.544,0.08 -1.12,0.08 v 1.088 h 2.944 v 8.128 z m 5.31199,-5.584 q 0,-0.416 0,-0.912 0.016,-0.512 0.08,-1.008 0.08,-0.512 0.208,-0.992 0.144,-0.48 0.4,-0.832 0.272,-0.368 0.672,-0.592 0.4,-0.224 0.976,-0.224 0.576,0 0.976,0.224 0.4,0.224 0.656,0.592 0.272,0.352 0.4,0.832 0.144,0.48 0.208,0.992 0.08,0.496 0.08,1.008 0.016,0.496 0.016,0.912 0,0.64 -0.048,1.44 -0.032,0.784 -0.256,1.488 -0.208,0.688 -0.688,1.168 -0.48,0.48 -1.344,0.48 -0.864,0 -1.344,-0.48 -0.48,-0.48 -0.704,-1.168 -0.208,-0.704 -0.256,-1.488 -0.032,-0.8 -0.032,-1.44 z m -1.44,0.016 q 0,0.624 0.032,1.296 0.032,0.672 0.16,1.312 0.128,0.64 0.368,1.216 0.24,0.56 0.656,0.992 0.416,0.432 1.04,0.688 0.64,0.24 1.52,0.24 0.896,0 1.52,-0.24 0.624,-0.256 1.04,-0.688 0.416,-0.432 0.656,-0.992 0.24,-0.576 0.368,-1.216 0.128,-0.64 0.16,-1.312 0.032,-0.672 0.032,-1.296 0,-0.624 -0.032,-1.296 -0.032,-0.672 -0.16,-1.312 -0.128,-0.64 -0.368,-1.216 -0.24,-0.576 -0.656,-1.008 -0.416,-0.432 -1.056,-0.688 -0.624,-0.256 -1.504,-0.256 -0.88,0 -1.52,0.256 -0.624,0.256 -1.04,0.688 -0.416,0.432 -0.656,1.008 -0.24,0.576 -0.368,1.216 -0.128,0.64 -0.16,1.312 -0.032,0.672 -0.032,1.296 z"
               id="text8"
               style="font-size:16px;font-family:'Helvetica Neue', Arial, 'Liberation Sans', 'DejaVu Sans', sans-serif;text-anchor:middle"
               transform="rotate(-0 502.1375 360.4775)"
               aria-label="10" />
          </g>
        </g>
        <g
           id="text_7">
          <path
             d="m 235.22746,371.81125 h 1.8 q -0.04,-1.18 -0.46,-2.02 -0.4,-0.86 -1.12,-1.42 -0.7,-0.56 -1.64,-0.82 -0.94,-0.26 -2.04,-0.26 -0.98,0 -1.92,0.26 -0.92,0.24 -1.66,0.76 -0.72,0.5 -1.16,1.3 -0.44,0.78 -0.44,1.86 0,0.98 0.38,1.64 0.4,0.64 1.04,1.06 0.66,0.4 1.48,0.66 0.82,0.24 1.66,0.44 0.86,0.18 1.68,0.36 0.82,0.18 1.46,0.48 0.66,0.28 1.04,0.74 0.4,0.46 0.4,1.2 0,0.78 -0.32,1.28 -0.32,0.5 -0.84,0.8 -0.52,0.28 -1.18,0.4 -0.64,0.12 -1.28,0.12 -0.8,0 -1.56,-0.2 -0.76,-0.2 -1.34,-0.62 -0.56,-0.42 -0.92,-1.06 -0.34,-0.66 -0.34,-1.56 h -1.8 q 0,1.3 0.46,2.26 0.48,0.94 1.28,1.56 0.82,0.6 1.88,0.9 1.08,0.3 2.28,0.3 0.98,0 1.96,-0.24 1,-0.22 1.8,-0.72 0.8,-0.52 1.3,-1.32 0.52,-0.82 0.52,-1.96 0,-1.06 -0.4,-1.76 -0.38,-0.7 -1.04,-1.16 -0.64,-0.46 -1.46,-0.72 -0.82,-0.28 -1.68,-0.48 -0.84,-0.2 -1.66,-0.36 -0.82,-0.18 -1.48,-0.44 -0.64,-0.26 -1.04,-0.66 -0.38,-0.42 -0.38,-1.08 0,-0.7 0.26,-1.16 0.28,-0.48 0.72,-0.76 0.46,-0.28 1.04,-0.4 0.58,-0.12 1.18,-0.12 1.48,0 2.42,0.7 0.96,0.68 1.12,2.22 z m 6.78001,-0.24 v -3.1 h -1.7 v 3.1 h -1.76 v 1.5 h 1.76 v 6.58 q 0,0.72 0.14,1.16 0.14,0.44 0.42,0.68 0.3,0.24 0.76,0.34 0.48,0.08 1.14,0.08 h 1.3 v -1.5 h -0.78 q -0.4,0 -0.66,-0.02 -0.24,-0.04 -0.38,-0.14 -0.14,-0.1 -0.2,-0.28 -0.04,-0.18 -0.04,-0.48 v -6.42 h 2.06 v -1.5 z m 3.88001,0 v 10.34 h 1.7 v -4.6 q 0,-1 0.2,-1.76 0.2,-0.78 0.64,-1.32 0.44,-0.54 1.16,-0.82 0.72,-0.28 1.74,-0.28 v -1.8 q -1.38,-0.04 -2.28,0.56 -0.9,0.6 -1.52,1.86 h -0.04 v -2.18 z m 15.28,10.34 v -10.34 h -1.7 v 5.84 q 0,0.7 -0.2,1.3 -0.18,0.58 -0.56,1.02 -0.38,0.44 -0.96,0.68 -0.56,0.24 -1.34,0.24 -0.98,0 -1.54,-0.56 -0.56,-0.56 -0.56,-1.52 v -7 h -1.7 v 6.8 q 0,0.84 0.16,1.54 0.18,0.68 0.6,1.18 0.42,0.5 1.1,0.78 0.68,0.26 1.7,0.26 1.14,0 1.98,-0.44 0.84,-0.46 1.38,-1.42 h 0.04 v 1.64 z m 9.58,-7.02 h 1.76 q -0.1,-0.92 -0.48,-1.58 -0.38,-0.68 -0.98,-1.12 -0.58,-0.44 -1.36,-0.64 -0.76,-0.22 -1.64,-0.22 -1.22,0 -2.14,0.44 -0.92,0.42 -1.54,1.18 -0.6,0.74 -0.9,1.76 -0.3,1 -0.3,2.16 0,1.16 0.3,2.14 0.32,0.96 0.92,1.66 0.62,0.7 1.52,1.08 0.92,0.38 2.1,0.38 1.98,0 3.12,-1.04 1.16,-1.04 1.44,-2.96 h -1.74 q -0.16,1.2 -0.88,1.86 -0.7,0.66 -1.96,0.66 -0.8,0 -1.38,-0.32 -0.58,-0.32 -0.94,-0.84 -0.36,-0.54 -0.54,-1.22 -0.16,-0.68 -0.16,-1.4 0,-0.78 0.16,-1.5 0.16,-0.74 0.52,-1.3 0.38,-0.56 1,-0.9 0.62,-0.34 1.54,-0.34 1.08,0 1.72,0.54 0.64,0.54 0.84,1.52 z m 6.08001,-3.32 v -3.1 h -1.7 v 3.1 h -1.76 v 1.5 h 1.76 v 6.58 q 0,0.72 0.14,1.16 0.14,0.44 0.42,0.68 0.3,0.24 0.76,0.34 0.48,0.08 1.14,0.08 h 1.3 v -1.5 h -0.78 q -0.4,0 -0.66,-0.02 -0.24,-0.04 -0.38,-0.14 -0.14,-0.1 -0.2,-0.28 -0.04,-0.18 -0.04,-0.48 v -6.42 h 2.06 v -1.5 z m 12.50001,10.34 v -10.34 h -1.7 v 5.84 q 0,0.7 -0.2,1.3 -0.18,0.58 -0.56,1.02 -0.38,0.44 -0.96,0.68 -0.56,0.24 -1.34,0.24 -0.98,0 -1.54,-0.56 -0.56,-0.56 -0.56,-1.52 v -7 h -1.7 v 6.8 q 0,0.84 0.16,1.54 0.18,0.68 0.6,1.18 0.42,0.5 1.1,0.78 0.68,0.26 1.7,0.26 1.14,0 1.98,-0.44 0.84,-0.46 1.38,-1.42 h 0.04 v 1.64 z m 2.5,-10.34 v 10.34 h 1.7 v -4.6 q 0,-1 0.2,-1.76 0.2,-0.78 0.64,-1.32 0.44,-0.54 1.16,-0.82 0.72,-0.28 1.74,-0.28 v -1.8 q -1.38,-0.04 -2.28,0.56 -0.9,0.6 -1.52,1.86 h -0.04 v -2.18 z m 13.54001,4.18 h -5.94 q 0.04,-0.6 0.26,-1.12 0.22,-0.54 0.6,-0.94 0.38,-0.4 0.9,-0.62 0.54,-0.24 1.2,-0.24 0.64,0 1.16,0.24 0.54,0.22 0.92,0.62 0.4,0.38 0.62,0.92 0.24,0.54 0.28,1.14 z m 1.64,2.88 h -1.68 q -0.22,1.02 -0.92,1.52 -0.68,0.5 -1.76,0.5 -0.84,0 -1.46,-0.28 -0.62,-0.28 -1.02,-0.74 -0.4,-0.48 -0.58,-1.08 -0.18,-0.62 -0.16,-1.3 h 7.74 q 0.04,-0.94 -0.18,-1.98 -0.2,-1.04 -0.76,-1.92 -0.54,-0.88 -1.46,-1.44 -0.9,-0.58 -2.28,-0.58 -1.06,0 -1.96,0.4 -0.88,0.4 -1.54,1.12 -0.64,0.72 -1,1.7 -0.36,0.98 -0.36,2.16 0.04,1.18 0.34,2.18 0.32,1 0.94,1.72 0.62,0.72 1.52,1.12 0.92,0.4 2.16,0.4 1.76,0 2.92,-0.88 1.16,-0.88 1.5,-2.62 z m 7.84001,-11 v 14.28 h 1.9 v -14.28 z m 7.00002,12.68 v -11.08 h 3.2 q 1.32,0 2.22,0.38 0.9,0.36 1.46,1.08 0.58,0.7 0.82,1.72 0.26,1 0.26,2.28 0,1.32 -0.28,2.26 -0.26,0.92 -0.68,1.54 -0.42,0.62 -0.96,0.98 -0.52,0.36 -1.06,0.56 -0.54,0.18 -1.02,0.24 -0.48,0.04 -0.8,0.04 z m -1.9,-12.68 v 14.28 h 4.9 q 1.78,0 3.08,-0.5 1.3,-0.5 2.14,-1.44 0.84,-0.96 1.24,-2.34 0.4,-1.4 0.4,-3.2 0,-3.44 -1.78,-5.12 -1.78,-1.68 -5.08,-1.68 z"
             id="text9"
             style="font-size:20px;font-family:'Helvetica Neue', Arial, 'Liberation Sans', 'DejaVu Sans', sans-serif;text-anchor:middle"
             transform="rotate(-0 278.9375 381.91125)"
             aria-label="Structure ID" />
        </g>
      </g>
      <g
         id="matplotlib.axis_2">
        <g
           id="ytick_1">
          <g
             id="line2d_13">
            <path
               d="M 55.7375 329.7125  L 502.1375 329.7125  "
               clip-path="url(#pe4c18e9cf3)"
               style="fill: none; stroke-dasharray: 0.8,1.32; stroke-dashoffset: 0; stroke: #b0b0b0; stroke-width: 0.8"
               id="path9" />
          </g>
          <g
             id="line2d_14">
            <defs
               id="defs9">
              <path
                 id="m7cdca08c12"
                 d="M 0 0  L 8 0  "
                 style="stroke: #000000" />
            </defs>
            <g
               id="g9">
              <path
                 id="use9"
                 d="m 55.737499,329.71249 h 8"
                 style="stroke:#000000" />
            </g>
          </g>
          <g
             id="text_8">
            <path
               d="m 32.109509,329.84099 q 0,-0.416 0,-0.912 0.016,-0.512 0.08,-1.008 0.08,-0.512 0.208,-0.992 0.144,-0.48 0.4,-0.832 0.272,-0.368 0.672,-0.592 0.4,-0.224 0.976,-0.224 0.576,0 0.976,0.224 0.4,0.224 0.656,0.592 0.272,0.352 0.4,0.832 0.144,0.48 0.208,0.992 0.08,0.496 0.08,1.008 0.016,0.496 0.016,0.912 0,0.64 -0.048,1.44 -0.032,0.784 -0.256,1.488 -0.208,0.688 -0.688,1.168 -0.48,0.48 -1.344,0.48 -0.864,0 -1.344,-0.48 -0.48,-0.48 -0.704,-1.168 -0.208,-0.704 -0.256,-1.488 -0.032,-0.8 -0.032,-1.44 z m -1.44,0.016 q 0,0.624 0.032,1.296 0.032,0.672 0.16,1.312 0.128,0.64 0.368,1.216 0.24,0.56 0.656,0.992 0.416,0.432 1.04,0.688 0.64,0.24 1.52,0.24 0.896,0 1.52,-0.24 0.624,-0.256 1.04,-0.688 0.416,-0.432 0.656,-0.992 0.24,-0.576 0.368,-1.216 0.128,-0.64 0.16,-1.312 0.032,-0.672 0.032,-1.296 0,-0.624 -0.032,-1.296 -0.032,-0.672 -0.16,-1.312 -0.128,-0.64 -0.368,-1.216 -0.24,-0.576 -0.656,-1.008 -0.416,-0.432 -1.056,-0.688 -0.624,-0.256 -1.504,-0.256 -0.88,0 -1.52,0.256 -0.624,0.256 -1.04,0.688 -0.416,0.432 -0.656,1.008 -0.24,0.576 -0.368,1.216 -0.128,0.64 -0.16,1.312 -0.032,0.672 -0.032,1.296 z m 9.551996,3.792 v 1.776 h 1.776 v -1.776 z m 5.231998,-3.808 q 0,-0.416 0,-0.912 0.016,-0.512 0.08,-1.008 0.08,-0.512 0.208,-0.992 0.144,-0.48 0.4,-0.832 0.272,-0.368 0.672,-0.592 0.4,-0.224 0.976,-0.224 0.576,0 0.976,0.224 0.4,0.224 0.656,0.592 0.272,0.352 0.4,0.832 0.144,0.48 0.208,0.992 0.08,0.496 0.08,1.008 0.016,0.496 0.016,0.912 0,0.64 -0.048,1.44 -0.032,0.784 -0.256,1.488 -0.208,0.688 -0.688,1.168 -0.48,0.48 -1.344,0.48 -0.864,0 -1.344,-0.48 -0.48,-0.48 -0.704,-1.168 -0.208,-0.704 -0.256,-1.488 -0.032,-0.8 -0.032,-1.44 z m -1.44,0.016 q 0,0.624 0.032,1.296 0.032,0.672 0.16,1.312 0.128,0.64 0.368,1.216 0.24,0.56 0.656,0.992 0.416,0.432 1.04,0.688 0.64,0.24 1.52,0.24 0.896,0 1.52,-0.24 0.624,-0.256 1.04,-0.688 0.416,-0.432 0.656,-0.992 0.24,-0.576 0.368,-1.216 0.128,-0.64 0.16,-1.312 0.032,-0.672 0.032,-1.296 0,-0.624 -0.032,-1.296 -0.032,-0.672 -0.16,-1.312 -0.128,-0.64 -0.368,-1.216 -0.24,-0.576 -0.656,-1.008 -0.416,-0.432 -1.056,-0.688 -0.624,-0.256 -1.504,-0.256 -0.88,0 -1.52,0.256 -0.624,0.256 -1.04,0.688 -0.416,0.432 -0.656,1.008 -0.24,0.576 -0.368,1.216 -0.128,0.64 -0.16,1.312 -0.032,0.672 -0.032,1.296 z"
               id="text10"
               style="font-size:16px;font-family:'Helvetica Neue', Arial, 'Liberation Sans', 'DejaVu Sans', sans-serif;text-anchor:end"
               transform="rotate(-0 52.2375 335.425)"
               aria-label="0.0" />
          </g>
        </g>
        <g
           id="ytick_2">
          <g
             id="line2d_15">
            <path
               d="M 55.7375 266.3525  L 502.1375 266.3525  "
               clip-path="url(#pe4c18e9cf3)"
               style="fill: none; stroke-dasharray: 0.8,1.32; stroke-dashoffset: 0; stroke: #b0b0b0; stroke-width: 0.8"
               id="path10" />
          </g>
          <g
             id="line2d_16">
            <g
               id="g10">
              <path
                 id="use10"
                 d="m 55.737499,266.35251 h 8"
                 style="stroke:#000000" />
            </g>
          </g>
          <g
             id="text_9">
            <path
               d="m 32.109509,266.481 q 0,-0.416 0,-0.912 0.016,-0.512 0.08,-1.008 0.08,-0.512 0.208,-0.992 0.144,-0.48 0.4,-0.832 0.272,-0.368 0.672,-0.592 0.4,-0.224 0.976,-0.224 0.576,0 0.976,0.224 0.4,0.224 0.656,0.592 0.272,0.352 0.4,0.832 0.144,0.48 0.208,0.992 0.08,0.496 0.08,1.008 0.016,0.496 0.016,0.912 0,0.64 -0.048,1.44 -0.032,0.784 -0.256,1.488 -0.208,0.688 -0.688,1.168 -0.48,0.48 -1.344,0.48 -0.864,0 -1.344,-0.48 -0.48,-0.48 -0.704,-1.168 -0.208,-0.704 -0.256,-1.488 -0.032,-0.8 -0.032,-1.44 z m -1.44,0.016 q 0,0.624 0.032,1.296 0.032,0.672 0.16,1.312 0.128,0.64 0.368,1.216 0.24,0.56 0.656,0.992 0.416,0.432 1.04,0.688 0.64,0.24 1.52,0.24 0.896,0 1.52,-0.24 0.624,-0.256 1.04,-0.688 0.416,-0.432 0.656,-0.992 0.24,-0.576 0.368,-1.216 0.128,-0.64 0.16,-1.312 0.032,-0.672 0.032,-1.296 0,-0.624 -0.032,-1.296 -0.032,-0.672 -0.16,-1.312 -0.128,-0.64 -0.368,-1.216 -0.24,-0.576 -0.656,-1.008 -0.416,-0.432 -1.056,-0.688 -0.624,-0.256 -1.504,-0.256 -0.88,0 -1.52,0.256 -0.624,0.256 -1.04,0.688 -0.416,0.432 -0.656,1.008 -0.24,0.576 -0.368,1.216 -0.128,0.64 -0.16,1.312 -0.032,0.672 -0.032,1.296 z m 9.551996,3.792 v 1.776 h 1.776 v -1.776 z m 3.823998,-5.552 h 1.36 q -0.016,-0.512 0.096,-1.008 0.128,-0.512 0.4,-0.912 0.272,-0.4 0.688,-0.64 0.432,-0.256 1.024,-0.256 0.448,0 0.848,0.144 0.4,0.144 0.688,0.416 0.304,0.272 0.48,0.656 0.176,0.368 0.176,0.832 0,0.592 -0.192,1.04 -0.176,0.448 -0.544,0.832 -0.352,0.384 -0.896,0.768 -0.544,0.368 -1.264,0.816 -0.592,0.352 -1.136,0.752 -0.544,0.4 -0.976,0.928 -0.432,0.528 -0.72,1.248 -0.272,0.704 -0.352,1.712 h 7.408 v -1.2 h -5.824 q 0.096,-0.528 0.4,-0.928 0.32,-0.416 0.752,-0.768 0.448,-0.352 0.976,-0.656 0.528,-0.32 1.056,-0.64 0.528,-0.336 1.024,-0.704 0.496,-0.368 0.88,-0.816 0.384,-0.464 0.608,-1.04 0.24,-0.576 0.24,-1.328 0,-0.8 -0.288,-1.408 -0.272,-0.608 -0.752,-1.008 -0.48,-0.416 -1.136,-0.624 -0.64,-0.224 -1.376,-0.224 -0.896,0 -1.6,0.304 -0.704,0.304 -1.184,0.848 -0.464,0.528 -0.688,1.264 -0.224,0.736 -0.176,1.6 z"
               id="text11"
               style="font-size:16px;font-family:'Helvetica Neue', Arial, 'Liberation Sans', 'DejaVu Sans', sans-serif;text-anchor:end"
               transform="rotate(-0 52.2375 272.065)"
               aria-label="0.2" />
          </g>
        </g>
        <g
           id="ytick_3">
          <g
             id="line2d_17">
            <path
               d="M 55.7375 202.9925  L 502.1375 202.9925  "
               clip-path="url(#pe4c18e9cf3)"
               style="fill: none; stroke-dasharray: 0.8,1.32; stroke-dashoffset: 0; stroke: #b0b0b0; stroke-width: 0.8"
               id="path11" />
          </g>
          <g
             id="line2d_18">
            <g
               id="g11">
              <path
                 id="use11"
                 d="m 55.737499,202.99249 h 8"
                 style="stroke:#000000" />
            </g>
          </g>
          <g
             id="text_10">
            <path
               d="m 32.109509,203.121 q 0,-0.416 0,-0.912 0.016,-0.512 0.08,-1.008 0.08,-0.512 0.208,-0.992 0.144,-0.48 0.4,-0.832 0.272,-0.368 0.672,-0.592 0.4,-0.224 0.976,-0.224 0.576,0 0.976,0.224 0.4,0.224 0.656,0.592 0.272,0.352 0.4,0.832 0.144,0.48 0.208,0.992 0.08,0.496 0.08,1.008 0.016,0.496 0.016,0.912 0,0.64 -0.048,1.44 -0.032,0.784 -0.256,1.488 -0.208,0.688 -0.688,1.168 -0.48,0.48 -1.344,0.48 -0.864,0 -1.344,-0.48 -0.48,-0.48 -0.704,-1.168 -0.208,-0.704 -0.256,-1.488 -0.032,-0.8 -0.032,-1.44 z m -1.44,0.016 q 0,0.624 0.032,1.296 0.032,0.672 0.16,1.312 0.128,0.64 0.368,1.216 0.24,0.56 0.656,0.992 0.416,0.432 1.04,0.688 0.64,0.24 1.52,0.24 0.896,0 1.52,-0.24 0.624,-0.256 1.04,-0.688 0.416,-0.432 0.656,-0.992 0.24,-0.576 0.368,-1.216 0.128,-0.64 0.16,-1.312 0.032,-0.672 0.032,-1.296 0,-0.624 -0.032,-1.296 -0.032,-0.672 -0.16,-1.312 -0.128,-0.64 -0.368,-1.216 -0.24,-0.576 -0.656,-1.008 -0.416,-0.432 -1.056,-0.688 -0.624,-0.256 -1.504,-0.256 -0.88,0 -1.52,0.256 -0.624,0.256 -1.04,0.688 -0.416,0.432 -0.656,1.008 -0.24,0.576 -0.368,1.216 -0.128,0.64 -0.16,1.312 -0.032,0.672 -0.032,1.296 z m 9.551996,3.792 v 1.776 h 1.776 v -1.776 z m 8.543998,-2.08 h -3.808 l 3.776,-5.552 h 0.032 z m 1.28,0 v -7.488 h -1.088 l -5.168,7.376 v 1.312 h 4.976 v 2.656 h 1.28 v -2.656 h 1.536 v -1.2 z"
               id="text12"
               style="font-size:16px;font-family:'Helvetica Neue', Arial, 'Liberation Sans', 'DejaVu Sans', sans-serif;text-anchor:end"
               transform="rotate(-0 52.2375 208.705)"
               aria-label="0.4" />
          </g>
        </g>
        <g
           id="ytick_4">
          <g
             id="line2d_19">
            <path
               d="M 55.7375 139.6325  L 502.1375 139.6325  "
               clip-path="url(#pe4c18e9cf3)"
               style="fill: none; stroke-dasharray: 0.8,1.32; stroke-dashoffset: 0; stroke: #b0b0b0; stroke-width: 0.8"
               id="path12" />
          </g>
          <g
             id="line2d_20">
            <g
               id="g12">
              <path
                 id="use12"
                 d="m 55.737499,139.63251 h 8"
                 style="stroke:#000000" />
            </g>
          </g>
          <g
             id="text_11">
            <path
               d="m 32.109509,139.761 q 0,-0.416 0,-0.912 0.016,-0.512 0.08,-1.008 0.08,-0.512 0.208,-0.992 0.144,-0.48 0.4,-0.832 0.272,-0.368 0.672,-0.592 0.4,-0.224 0.976,-0.224 0.576,0 0.976,0.224 0.4,0.224 0.656,0.592 0.272,0.352 0.4,0.832 0.144,0.48 0.208,0.992 0.08,0.496 0.08,1.008 0.016,0.496 0.016,0.912 0,0.64 -0.048,1.44 -0.032,0.784 -0.256,1.488 -0.208,0.688 -0.688,1.168 -0.48,0.48 -1.344,0.48 -0.864,0 -1.344,-0.48 -0.48,-0.48 -0.704,-1.168 -0.208,-0.704 -0.256,-1.488 -0.032,-0.8 -0.032,-1.44 z m -1.44,0.016 q 0,0.624 0.032,1.296 0.032,0.672 0.16,1.312 0.128,0.64 0.368,1.216 0.24,0.56 0.656,0.992 0.416,0.432 1.04,0.688 0.64,0.24 1.52,0.24 0.896,0 1.52,-0.24 0.624,-0.256 1.04,-0.688 0.416,-0.432 0.656,-0.992 0.24,-0.576 0.368,-1.216 0.128,-0.64 0.16,-1.312 0.032,-0.672 0.032,-1.296 0,-0.624 -0.032,-1.296 -0.032,-0.672 -0.16,-1.312 -0.128,-0.64 -0.368,-1.216 -0.24,-0.576 -0.656,-1.008 -0.416,-0.432 -1.056,-0.688 -0.624,-0.256 -1.504,-0.256 -0.88,0 -1.52,0.256 -0.624,0.256 -1.04,0.688 -0.416,0.432 -0.656,1.008 -0.24,0.576 -0.368,1.216 -0.128,0.64 -0.16,1.312 -0.032,0.672 -0.032,1.296 z m 9.551996,3.792 v 1.776 h 1.776 v -1.776 z m 9.743998,-6.672 h 1.36 q -0.128,-1.408 -0.96,-2.144 -0.832,-0.752 -2.24,-0.752 -1.216,0 -2.016,0.512 -0.8,0.512 -1.28,1.36 -0.48,0.848 -0.688,1.952 -0.192,1.088 -0.192,2.256 0,0.896 0.128,1.856 0.144,0.96 0.56,1.76 0.416,0.8 1.184,1.312 0.768,0.512 2.032,0.512 1.072,0 1.792,-0.352 0.736,-0.368 1.168,-0.912 0.448,-0.56 0.64,-1.232 0.192,-0.672 0.192,-1.296 0,-0.784 -0.24,-1.456 -0.24,-0.672 -0.688,-1.168 -0.432,-0.496 -1.088,-0.768 -0.64,-0.288 -1.456,-0.288 -0.928,0 -1.648,0.352 -0.704,0.352 -1.184,1.136 l -0.032,-0.032 q 0.016,-0.656 0.128,-1.408 0.112,-0.752 0.4,-1.392 0.304,-0.656 0.832,-1.072 0.528,-0.432 1.392,-0.432 0.816,0 1.312,0.464 0.496,0.464 0.592,1.232 z m -2.048,2.352 q 0.576,0 1.008,0.208 0.432,0.208 0.72,0.56 0.288,0.336 0.416,0.816 0.144,0.464 0.144,0.992 0,0.496 -0.16,0.96 -0.144,0.448 -0.432,0.8 -0.288,0.352 -0.72,0.56 -0.416,0.192 -0.976,0.192 -0.56,0 -1.008,-0.192 -0.432,-0.208 -0.736,-0.544 -0.288,-0.336 -0.448,-0.8 -0.16,-0.464 -0.16,-0.992 0,-0.528 0.144,-0.992 0.16,-0.48 0.464,-0.816 0.304,-0.352 0.736,-0.544 0.432,-0.208 1.008,-0.208 z"
               id="text13"
               style="font-size:16px;font-family:'Helvetica Neue', Arial, 'Liberation Sans', 'DejaVu Sans', sans-serif;text-anchor:end"
               transform="rotate(-0 52.2375 145.345)"
               aria-label="0.6" />
          </g>
        </g>
        <g
           id="ytick_5">
          <g
             id="line2d_21">
            <path
               d="M 55.7375 76.2725  L 502.1375 76.2725  "
               clip-path="url(#pe4c18e9cf3)"
               style="fill: none; stroke-dasharray: 0.8,1.32; stroke-dashoffset: 0; stroke: #b0b0b0; stroke-width: 0.8"
               id="path13" />
          </g>
          <g
             id="line2d_22">
            <g
               id="g13">
              <path
                 id="use13"
                 d="m 55.737499,76.272499 h 8"
                 style="stroke:#000000" />
            </g>
          </g>
          <g
             id="text_12">
            <path
               d="m 32.109509,76.401001 q 0,-0.416 0,-0.912 0.016,-0.512 0.08,-1.008 0.08,-0.512 0.208,-0.992 0.144,-0.48 0.4,-0.832 0.272,-0.368 0.672,-0.592 0.4,-0.224 0.976,-0.224 0.576,0 0.976,0.224 0.4,0.224 0.656,0.592 0.272,0.352 0.4,0.832 0.144,0.48 0.208,0.992 0.08,0.496 0.08,1.008 0.016,0.496 0.016,0.912 0,0.64 -0.048,1.44 -0.032,0.784 -0.256,1.488 -0.208,0.688 -0.688,1.168 -0.48,0.48 -1.344,0.48 -0.864,0 -1.344,-0.48 -0.48,-0.48 -0.704,-1.168 -0.208,-0.704 -0.256,-1.488 -0.032,-0.8 -0.032,-1.44 z m -1.44,0.016 q 0,0.624 0.032,1.296 0.032,0.672 0.16,1.312 0.128,0.64 0.368,1.216 0.24,0.56 0.656,0.992 0.416,0.432 1.04,0.688 0.64,0.24 1.52,0.24 0.896,0 1.52,-0.24 0.624,-0.256 1.04,-0.688 0.416,-0.432 0.656,-0.992 0.24,-0.576 0.368,-1.216 0.128,-0.64 0.16,-1.312 0.032,-0.672 0.032,-1.296 0,-0.624 -0.032,-1.296 -0.032,-0.672 -0.16,-1.312 -0.128,-0.64 -0.368,-1.216 -0.24,-0.576 -0.656,-1.008 -0.416,-0.432 -1.056,-0.688 -0.624,-0.256 -1.504,-0.256 -0.88,0 -1.52,0.256 -0.624,0.256 -1.04,0.688 -0.416,0.432 -0.656,1.008 -0.24,0.576 -0.368,1.216 -0.128,0.64 -0.16,1.312 -0.032,0.672 -0.032,1.296 z m 9.551996,3.792 v 1.776 h 1.776 v -1.776 z m 5.599998,-6.624 q 0,-0.432 0.16,-0.752 0.16,-0.32 0.416,-0.544 0.272,-0.224 0.64,-0.336 0.368,-0.112 0.768,-0.112 0.832,0 1.36,0.448 0.544,0.432 0.544,1.296 0,0.864 -0.528,1.344 -0.528,0.48 -1.344,0.48 -0.416,0 -0.784,-0.112 -0.368,-0.112 -0.64,-0.336 -0.272,-0.224 -0.432,-0.56 -0.16,-0.352 -0.16,-0.816 z m -1.44,-0.048 q 0,0.768 0.432,1.424 0.432,0.64 1.152,0.928 -0.96,0.336 -1.472,1.088 -0.512,0.736 -0.512,1.744 0,0.864 0.288,1.52 0.304,0.64 0.816,1.072 0.528,0.432 1.232,0.64 0.704,0.208 1.52,0.208 0.784,0 1.472,-0.224 0.688,-0.224 1.184,-0.656 0.512,-0.448 0.8,-1.088 0.304,-0.64 0.304,-1.472 0,-1.056 -0.496,-1.776 -0.496,-0.736 -1.52,-1.056 0.72,-0.32 1.136,-0.944 0.432,-0.64 0.432,-1.408 0,-0.544 -0.192,-1.056 -0.192,-0.528 -0.608,-0.928 -0.4,-0.416 -1.056,-0.656 -0.656,-0.256 -1.584,-0.256 -0.656,0 -1.264,0.192 -0.592,0.192 -1.056,0.56 -0.464,0.368 -0.736,0.912 -0.272,0.528 -0.272,1.232 z m 1.04,5.248 q 0,-0.496 0.176,-0.896 0.192,-0.4 0.512,-0.688 0.336,-0.288 0.768,-0.432 0.448,-0.16 0.944,-0.16 0.48,0 0.896,0.176 0.432,0.16 0.752,0.448 0.32,0.288 0.496,0.688 0.192,0.384 0.192,0.848 0,0.48 -0.176,0.88 -0.16,0.4 -0.48,0.704 -0.304,0.288 -0.736,0.464 -0.416,0.16 -0.928,0.16 -1.056,0 -1.744,-0.576 -0.672,-0.592 -0.672,-1.616 z"
               id="text14"
               style="font-size:16px;font-family:'Helvetica Neue', Arial, 'Liberation Sans', 'DejaVu Sans', sans-serif;text-anchor:end"
               transform="rotate(-0 52.2375 81.985)"
               aria-label="0.8" />
          </g>
        </g>
        <g
           id="ytick_6">
          <g
             id="line2d_23">
            <path
               d="M 55.7375 12.9125  L 502.1375 12.9125  "
               clip-path="url(#pe4c18e9cf3)"
               style="fill: none; stroke-dasharray: 0.8,1.32; stroke-dashoffset: 0; stroke: #b0b0b0; stroke-width: 0.8"
               id="path14" />
          </g>
          <g
             id="line2d_24">
            <g
               id="g14">
              <path
                 id="use14"
                 d="m 55.737499,12.9125 h 8"
                 style="stroke:#000000" />
            </g>
          </g>
          <g
             id="text_13">
            <path
               d="M 35.693509,18.625 V 7.281 h -1.04 q -0.112,0.64 -0.416,1.056 -0.304,0.416 -0.752,0.656 -0.432,0.24 -0.976,0.336 -0.544,0.08 -1.12,0.08 v 1.088 h 2.944 v 8.128 z m 4.527996,-1.776 v 1.776 h 1.776 v -1.776 z m 5.231998,-3.808 q 0,-0.416 0,-0.912 0.016,-0.512 0.08,-1.008 0.08,-0.512 0.208,-0.992 0.144,-0.48 0.4,-0.832 0.272,-0.368 0.672,-0.592 0.4,-0.224 0.976,-0.224 0.576,0 0.976,0.224 0.4,0.224 0.656,0.592 0.272,0.352 0.4,0.832 0.144,0.48 0.208,0.992 0.08,0.496 0.08,1.008 0.016,0.496 0.016,0.912 0,0.64 -0.048,1.44 -0.032,0.784 -0.256,1.488 -0.208,0.688 -0.688,1.168 -0.48,0.48 -1.344,0.48 -0.864,0 -1.344,-0.48 -0.48,-0.48 -0.704,-1.168 -0.208,-0.704 -0.256,-1.488 -0.032,-0.8 -0.032,-1.44 z m -1.44,0.016 q 0,0.624 0.032,1.296 0.032,0.672 0.16,1.312 0.128,0.64 0.368,1.216 0.24,0.56 0.656,0.992 0.416,0.432 1.04,0.688 0.64,0.24 1.52,0.24 0.896,0 1.52,-0.24 0.624,-0.256 1.04,-0.688 0.416,-0.432 0.656,-0.992 0.24,-0.576 0.368,-1.216 0.128,-0.64 0.16,-1.312 0.032,-0.672 0.032,-1.296 0,-0.624 -0.032,-1.296 -0.032,-0.672 -0.16,-1.312 -0.128,-0.64 -0.368,-1.216 -0.24,-0.576 -0.656,-1.008 -0.416,-0.432 -1.056,-0.688 -0.624,-0.256 -1.504,-0.256 -0.88,0 -1.52,0.256 -0.624,0.256 -1.04,0.688 -0.416,0.432 -0.656,1.008 -0.24,0.576 -0.368,1.216 -0.128,0.64 -0.16,1.312 -0.032,0.672 -0.032,1.296 z"
               id="text15"
               style="font-size:16px;font-family:'Helvetica Neue', Arial, 'Liberation Sans', 'DejaVu Sans', sans-serif;text-anchor:end"
               transform="rotate(-0 52.2375 18.625)"
               aria-label="1.0" />
          </g>
        </g>
        <g
           id="text_14">
          <path
             d="m -53.011287,164.9525 v 14.28 h 9.92 v -1.6 h -8.02 v -4.94 h 7.42 v -1.6 h -7.42 v -4.54 h 7.96 v -1.6 z m 11.940001,3.94 v 10.34 h 1.7 v -5.84 q 0,-0.7 0.18,-1.28 0.2,-0.6 0.58,-1.04 0.38,-0.44 0.94,-0.68 0.58,-0.24 1.36,-0.24 0.98,0 1.54,0.56 0.56,0.56 0.56,1.52 v 7 h 1.7 v -6.8 q 0,-0.84 -0.18,-1.52 -0.16,-0.7 -0.58,-1.2 -0.42,-0.5 -1.1,-0.78 -0.68,-0.28 -1.7,-0.28 -2.3,0 -3.36,1.88 h -0.04 v -1.64 z m 18.299995,4.18 h -5.94 q 0.04,-0.6 0.26,-1.12 0.22,-0.54 0.6,-0.94 0.38,-0.4 0.9,-0.62 0.54,-0.24 1.2,-0.24 0.64,0 1.16,0.24 0.54,0.22 0.92,0.62 0.4,0.38 0.62,0.92 0.24,0.54 0.28,1.14 z m 1.64,2.88 h -1.68 q -0.22,1.02 -0.92,1.52 -0.68,0.5 -1.76,0.5 -0.84,0 -1.46,-0.28 -0.62,-0.28 -1.02,-0.74 -0.4,-0.48 -0.58,-1.08 -0.18,-0.62 -0.16,-1.3 h 7.74 q 0.04,-0.94 -0.18,-1.98 -0.2,-1.04 -0.76,-1.92 -0.54,-0.88 -1.46,-1.44 -0.9,-0.58 -2.28,-0.58 -1.06,0 -1.96,0.4 -0.88,0.4 -1.54,1.12 -0.64,0.72 -1,1.7 -0.36,0.98 -0.36,2.16 0.04,1.18 0.34,2.18 0.32,1 0.94,1.72 0.62,0.72 1.52,1.12 0.92,0.4 2.16,0.4 1.76,0 2.92,-0.88 1.16,-0.88 1.5,-2.62 z m 1.860013,-7.06 v 10.34 h 1.7 v -4.6 q 0,-1 0.2,-1.76 0.2,-0.78 0.64,-1.32 0.44,-0.54 1.16,-0.82 0.72,-0.28 1.74,-0.28 v -1.8 q -1.38,-0.04 -2.28,0.56 -0.9,0.6 -1.52,1.86 h -0.04 v -2.18 z m 15.0800064,9.46 v -9.46 h -1.6 v 1.48 h -0.02 q -0.46,-0.86 -1.28,-1.28 -0.82,-0.44 -1.8,-0.44 -1.3400004,0 -2.2600004,0.52 -0.92,0.5 -1.48,1.3 -0.56,0.78 -0.8,1.76 -0.24,0.96 -0.24,1.88 0,1.06 0.28,2.02 0.3,0.94 0.88,1.66 0.58,0.7 1.44,1.12 0.86,0.42 2.0200004,0.42 1,0 1.88,-0.44 0.9,-0.46 1.34,-1.42 h 0.04 v 0.68 q 0,0.86 -0.18,1.58 -0.16,0.72 -0.54,1.22 -0.38,0.52 -0.96,0.8 -0.58,0.3 -1.42,0.3 -0.42,0 -0.88,-0.1 -0.4600004,-0.08 -0.8600004,-0.28 -0.38,-0.2 -0.66,-0.52 -0.26,-0.32 -0.28,-0.78 h -1.7 q 0.04,0.84 0.44,1.42 0.4,0.58 1,0.94 0.62,0.36 1.36,0.52 0.7600004,0.16 1.4800004,0.16 2.48,0 3.64,-1.26 1.16,-1.26 1.16,-3.8 z m -4.76,-0.5 q -0.84,0 -1.4000004,-0.34 -0.56,-0.36 -0.9,-0.92 -0.34,-0.58 -0.48,-1.28 -0.14,-0.7 -0.14,-1.4 0,-0.74 0.16,-1.42 0.18,-0.68 0.54,-1.2 0.38,-0.52 0.96,-0.82 0.5800004,-0.32 1.4000004,-0.32 0.8,0 1.36,0.32 0.56,0.32 0.9,0.86 0.36,0.52 0.52,1.18 0.16,0.66 0.16,1.34 0,0.72 -0.18,1.44 -0.16,0.72 -0.52,1.3 -0.36,0.56 -0.96,0.92 -0.58,0.34 -1.42,0.34 z m 11.3799881,2.76 q -0.3,0.76 -0.6,1.28 -0.28,0.52 -0.64,0.84 -0.33999999,0.34 -0.77999999,0.48 -0.42,0.16 -0.98,0.16 -0.3,0 -0.60000001,-0.04 -0.3,-0.04 -0.58,-0.14 v -1.56 q 0.22,0.1 0.5,0.16 0.30000001,0.08 0.50000001,0.08 0.52,0 0.86,-0.26 0.36,-0.24 0.54,-0.7 l 0.69999999,-1.74 -4.1,-10.28 h 1.92000001 l 3.01999999,8.46 h 0.04 l 2.9,-8.46 h 1.8 z m 14.2999975,2.56 h 1.3 q -1.42,-2.3 -2.04,-4.56 -0.6,-2.26 -0.6,-4.78 0,-2.46 0.6,-4.7 0.6,-2.24 2.04,-4.52 h -1.3 q -1.56,2.06 -2.36,4.46 -0.78,2.4 -0.78,4.76 0,1.32 0.22,2.52 0.22,1.2 0.62,2.34 0.42,1.14 1,2.24 0.58,1.12 1.3,2.24 z m 9.560016,-10.1 h -5.94 q 0.04,-0.6 0.26,-1.12 0.22,-0.54 0.6,-0.94 0.38,-0.4 0.9,-0.62 0.54,-0.24 1.2,-0.24 0.64,0 1.16,0.24 0.54,0.22 0.92,0.62 0.4,0.38 0.62,0.92 0.24,0.54 0.28,1.14 z m 1.64,2.88 h -1.68 q -0.22,1.02 -0.92,1.52 -0.68,0.5 -1.76,0.5 -0.84,0 -1.46,-0.28 -0.62,-0.28 -1.02,-0.74 -0.4,-0.48 -0.58,-1.08 -0.18,-0.62 -0.16,-1.3 h 7.74 q 0.04,-0.94 -0.18,-1.98 -0.2,-1.04 -0.76,-1.92 -0.54,-0.88 -1.46,-1.44 -0.9,-0.58 -2.28,-0.58 -1.06,0 -1.96,0.4 -0.88,0.4 -1.54,1.12 -0.64,0.72 -1,1.7 -0.36,0.98 -0.36,2.16 0.04,1.18 0.34,2.18 0.32,1 0.94,1.72 0.62,0.72 1.52,1.12 0.92,0.4 2.16,0.4 1.76,0 2.92,-0.88 1.16,-0.88 1.5,-2.62 z m 7.820013,3.28 5.08,-14.28 h -1.98 l -4.12,12.38 h -0.04 l -4.08,-12.38 h -2.04 l 5.02,14.28 z m 10.600001,-14.62 -5.9,14.94 h 1.44 l 5.92,-14.94 z m 11.540004,14.58 q -0.44,0.26 -1.22,0.26 -0.66,0 -1.06,-0.36 -0.38,-0.38 -0.38,-1.22 -0.7,0.84 -1.64,1.22 -0.92,0.36 -2,0.36 -0.7,0 -1.34,-0.16 -0.62,-0.16 -1.08,-0.5 -0.46,-0.34 -0.74,-0.88 -0.26,-0.56 -0.26,-1.34 0,-0.88 0.3,-1.44 0.3,-0.56 0.78,-0.9 0.5,-0.36 1.12,-0.54 0.64,-0.18 1.3,-0.3 0.7,-0.14 1.32,-0.2 0.64,-0.08 1.12,-0.2 0.48,-0.14 0.76,-0.38 0.28,-0.26 0.28,-0.74 0,-0.56 -0.22,-0.9 -0.2,-0.34 -0.54,-0.52 -0.32,-0.18 -0.74,-0.24 -0.4,-0.06 -0.8,-0.06 -1.08,0 -1.8,0.42 -0.72,0.4 -0.78,1.54 h -1.7 q 0.04,-0.96 0.4,-1.62 0.36,-0.66 0.96,-1.06 0.6,-0.42 1.36,-0.6 0.78,-0.18 1.66,-0.18 0.7,0 1.38,0.1 0.7,0.1 1.26,0.42 0.56,0.3 0.9,0.86 0.34,0.56 0.34,1.46 v 5.32 q 0,0.6 0.06,0.88 0.08,0.28 0.48,0.28 0.22,0 0.52,-0.1 z m -2.76,-5.3 q -0.32,0.24 -0.84,0.36 -0.52,0.1 -1.1,0.18 -0.56,0.06 -1.14,0.16 -0.58,0.08 -1.04,0.28 -0.46,0.2 -0.76,0.58 -0.28,0.36 -0.28,1 0,0.42 0.16,0.72 0.18,0.28 0.44,0.46 0.28,0.18 0.64,0.26 0.36,0.08 0.76,0.08 0.84,0 1.44,-0.22 0.6,-0.24 0.98,-0.58 0.38,-0.36 0.56,-0.76 0.18,-0.42 0.18,-0.78 z m 6.700013,-5 v -3.1 h -1.7 v 3.1 h -1.76 v 1.5 h 1.76 v 6.58 q 0,0.72 0.14,1.16 0.14,0.44 0.42,0.68 0.3,0.24 0.76,0.34 0.48,0.08 1.14,0.08 h 1.3 v -1.5 h -0.78 q -0.4,0 -0.66,-0.02 -0.24,-0.04 -0.38,-0.14 -0.14,-0.1 -0.2,-0.28 -0.04,-0.18 -0.04,-0.48 v -6.42 h 2.06 v -1.5 z m 5.18001,5.18 q 0,-0.94 0.24,-1.66 0.26,-0.74 0.7,-1.24 0.44,-0.5 1.02,-0.76 0.6,-0.26 1.26,-0.26 0.66,0 1.24,0.26 0.6,0.26 1.04,0.76 0.44,0.5 0.68,1.24 0.26,0.72 0.26,1.66 0,0.94 -0.26,1.68 -0.24,0.72 -0.68,1.22 -0.44,0.48 -1.04,0.74 -0.58,0.26 -1.24,0.26 -0.66,0 -1.26,-0.26 -0.58,-0.26 -1.02,-0.74 -0.44,-0.5 -0.7,-1.22 -0.24,-0.74 -0.24,-1.68 z m -1.8,0 q 0,1.14 0.32,2.12 0.32,0.98 0.96,1.72 0.64,0.72 1.58,1.14 0.94,0.4 2.16,0.4 1.24,0 2.16,-0.4 0.94,-0.42 1.58,-1.14 0.64,-0.74 0.96,-1.72 0.32,-0.98 0.32,-2.12 0,-1.14 -0.32,-2.12 -0.32,-1 -0.96,-1.72 -0.64,-0.74 -1.58,-1.16 -0.92,-0.42 -2.16,-0.42 -1.22,0 -2.16,0.42 -0.94,0.42 -1.58,1.16 -0.64,0.72 -0.96,1.72 -0.32,0.98 -0.32,2.12 z m 12.039981,-5.18 v 10.34 h 1.7 v -6.44 q 0,-0.3 0.14,-0.74 0.16,-0.46 0.48,-0.88 0.34,-0.42 0.86,-0.72 0.54,-0.3 1.28,-0.3 0.58,0 0.94,0.18 0.38,0.16 0.6,0.48 0.22,0.3 0.3,0.72 0.1,0.42 0.1,0.92 v 6.78 h 1.7 v -6.44 q 0,-1.2 0.72,-1.92 0.72,-0.72 1.98,-0.72 0.62,0 1,0.18 0.4,0.18 0.62,0.5 0.22,0.3 0.3,0.72 0.08,0.42 0.08,0.9 v 6.78 h 1.7 v -7.58 q 0,-0.8 -0.26,-1.36 -0.24,-0.58 -0.7,-0.94 -0.44,-0.36 -1.08,-0.52 -0.62,-0.18 -1.4,-0.18 -1.02,0 -1.88,0.46 -0.84,0.46 -1.36,1.3 -0.32,-0.96 -1.1,-1.36 -0.78,-0.4 -1.74,-0.4 -2.18,0 -3.34,1.76 h -0.04 v -1.52 z m 15.600028,14.28 h 1.28 q 1.56,-2.06 2.34,-4.44 0.8,-2.4 0.8,-4.76 0,-1.32 -0.22,-2.52 -0.22,-1.2 -0.64,-2.34 -0.4,-1.16 -0.98,-2.26 -0.58,-1.12 -1.3,-2.24 h -1.28 q 1.4,2.3 2,4.58 0.62,2.26 0.62,4.78 0,2.44 -0.6,4.7 -0.6,2.24 -2.02,4.5 z"
             id="text16"
             style="font-size:20px;font-family:'Helvetica Neue', Arial, 'Liberation Sans', 'DejaVu Sans', sans-serif;text-anchor:middle"
             transform="rotate(-90 21.81875 179.2325)"
             aria-label="Energy (eV/atom)" />
        </g>
      </g>
      <g
         id="LineCollection_1">
        <path
           d="M 55.7375 329.7125  L 502.1375 329.7125  "
           clip-path="url(#pe4c18e9cf3)"
           style="fill: none; stroke-dasharray: 7.4,3.2; stroke-dashoffset: 0; stroke: #000000; stroke-width: 2"
           id="path16" />
      </g>
      <g
         id="line2d_25">
        <defs
           id="defs16">
          <path
             id="mf91f99f756"
             d="M 0 6  C 1.591219 6 3.117479 5.367802 4.242641 4.242641  C 5.367802 3.117479 6 1.591219 6 0  C 6 -1.591219 5.367802 -3.117479 4.242641 -4.242641  C 3.117479 -5.367802 1.591219 -6 0 -6  C -1.591219 -6 -3.117479 -5.367802 -4.242641 -4.242641  C -5.367802 -3.117479 -6 -1.591219 -6 0  C -6 1.591219 -5.367802 3.117479 -4.242641 4.242641  C -3.117479 5.367802 -1.591219 6 0 6  z "
             style="stroke: #000000" />
        </defs>
        <g
           clip-path="url(#pe4c18e9cf3)"
           id="g25">
          <path
             id="use16"
             d="m 96.319321,298.37817 c 1.591219,0 3.117479,-0.63219 4.242639,-1.75736 1.12516,-1.12516 1.75736,-2.65142 1.75736,-4.24264 0,-1.59122 -0.6322,-3.11748 -1.75736,-4.24264 -1.12516,-1.12516 -2.65142,-1.75736 -4.242639,-1.75736 -1.591219,0 -3.117479,0.6322 -4.242641,1.75736 -1.125161,1.12516 -1.757359,2.65142 -1.757359,4.24264 0,1.59122 0.632198,3.11748 1.757359,4.24264 1.125162,1.12517 2.651422,1.75736 4.242641,1.75736 z"
             style="fill:#1f77b4;stroke:#000000" />
          <path
             id="use17"
             d="m 136.90114,212.53883 c 1.59122,0 3.11748,-0.63219 4.24264,-1.75736 1.12516,-1.12516 1.75736,-2.65142 1.75736,-4.24264 0,-1.59122 -0.6322,-3.11748 -1.75736,-4.24264 -1.12516,-1.12516 -2.65142,-1.75736 -4.24264,-1.75736 -1.59122,0 -3.11748,0.6322 -4.24264,1.75736 -1.12516,1.12516 -1.75736,2.65142 -1.75736,4.24264 0,1.59122 0.6322,3.11748 1.75736,4.24264 1.12516,1.12517 2.65142,1.75736 4.24264,1.75736 z"
             style="fill:#1f77b4;stroke:#000000" />
          <path
             id="use18"
             d="m 177.48296,162.93327 c 1.59121,0 3.11747,-0.63219 4.24264,-1.75736 1.12516,-1.12516 1.75736,-2.65142 1.75736,-4.24264 0,-1.59122 -0.6322,-3.11748 -1.75736,-4.24264 -1.12517,-1.12516 -2.65143,-1.75736 -4.24264,-1.75736 -1.59122,0 -3.11748,0.6322 -4.24265,1.75736 -1.12516,1.12516 -1.75735,2.65142 -1.75735,4.24264 0,1.59122 0.63219,3.11748 1.75735,4.24264 1.12517,1.12517 2.65143,1.75736 4.24265,1.75736 z"
             style="fill:#1f77b4;stroke:#000000" />
          <path
             id="use19"
             d="m 218.06477,335.71249 c 1.59122,0 3.11748,-0.63219 4.24264,-1.75736 1.12517,-1.12516 1.75736,-2.65142 1.75736,-4.24264 0,-1.59122 -0.63219,-3.11748 -1.75736,-4.24264 -1.12516,-1.12516 -2.65142,-1.75736 -4.24264,-1.75736 -1.59122,0 -3.11748,0.6322 -4.24264,1.75736 -1.12516,1.12516 -1.75736,2.65142 -1.75736,4.24264 0,1.59122 0.6322,3.11748 1.75736,4.24264 1.12516,1.12517 2.65142,1.75736 4.24264,1.75736 z"
             style="fill:#1f77b4;stroke:#000000" />
          <path
             id="use20"
             d="m 258.64658,300.29318 c 1.59121,0 3.11747,-0.6322 4.24264,-1.75736 1.12516,-1.12516 1.75736,-2.65142 1.75736,-4.24264 0,-1.59122 -0.6322,-3.11748 -1.75736,-4.24264 -1.12517,-1.12516 -2.65143,-1.75736 -4.24264,-1.75736 -1.59122,0 -3.11748,0.6322 -4.24265,1.75736 -1.12516,1.12516 -1.75735,2.65142 -1.75735,4.24264 0,1.59122 0.63219,3.11748 1.75735,4.24264 1.12517,1.12516 2.65143,1.75736 4.24265,1.75736 z"
             style="fill:#1f77b4;stroke:#000000" />
          <path
             id="use21"
             d="m 299.22842,94.587654 c 1.59122,0 3.11748,-0.632198 4.24265,-1.757359 1.12516,-1.125162 1.75735,-2.651422 1.75735,-4.242641 0,-1.591219 -0.63219,-3.117479 -1.75735,-4.242641 -1.12517,-1.125161 -2.65143,-1.757359 -4.24265,-1.757359 -1.59121,0 -3.11747,0.632198 -4.24264,1.757359 -1.12516,1.125162 -1.75736,2.651422 -1.75736,4.242641 0,1.591219 0.6322,3.117479 1.75736,4.242641 1.12517,1.125161 2.65143,1.757359 4.24264,1.757359 z"
             style="fill:#1f77b4;stroke:#000000" />
          <path
             id="use22"
             d="m 339.81024,141.9268 c 1.59122,0 3.11748,-0.63219 4.24264,-1.75736 1.12516,-1.12516 1.75736,-2.65142 1.75736,-4.24264 0,-1.59122 -0.6322,-3.11748 -1.75736,-4.24264 -1.12516,-1.12516 -2.65142,-1.75736 -4.24264,-1.75736 -1.59122,0 -3.11748,0.6322 -4.24264,1.75736 -1.12516,1.12516 -1.75736,2.65142 -1.75736,4.24264 0,1.59122 0.6322,3.11748 1.75736,4.24264 1.12516,1.12517 2.65142,1.75736 4.24264,1.75736 z"
             style="fill:#1f77b4;stroke:#000000" />
          <path
             id="use23"
             d="m 380.39206,281.20181 c 1.59122,0 3.11748,-0.6322 4.24264,-1.75736 1.12516,-1.12516 1.75736,-2.65142 1.75736,-4.24264 0,-1.59122 -0.6322,-3.11748 -1.75736,-4.24264 -1.12516,-1.12516 -2.65142,-1.75736 -4.24264,-1.75736 -1.59122,0 -3.11748,0.6322 -4.24264,1.75736 -1.12516,1.12516 -1.75736,2.65142 -1.75736,4.24264 0,1.59122 0.6322,3.11748 1.75736,4.24264 1.12516,1.12516 2.65142,1.75736 4.24264,1.75736 z"
             style="fill:#1f77b4;stroke:#000000" />
          <path
             id="use24"
             d="m 420.97388,186.34377 c 1.59122,0 3.11748,-0.6322 4.24264,-1.75736 1.12516,-1.12517 1.75736,-2.65143 1.75736,-4.24264 0,-1.59122 -0.6322,-3.11748 -1.75736,-4.24265 -1.12516,-1.12516 -2.65142,-1.75735 -4.24264,-1.75735 -1.59122,0 -3.11748,0.63219 -4.24264,1.75735 -1.12517,1.12517 -1.75736,2.65143 -1.75736,4.24265 0,1.59121 0.63219,3.11747 1.75736,4.24264 1.12516,1.12516 2.65142,1.75736 4.24264,1.75736 z"
             style="fill:#1f77b4;stroke:#000000" />
          <path
             id="use25"
             d="m 461.55569,131.87723 c 1.59122,0 3.11748,-0.6322 4.24265,-1.75736 1.12516,-1.12516 1.75735,-2.65142 1.75735,-4.24264 0,-1.59122 -0.63219,-3.11748 -1.75735,-4.24264 -1.12517,-1.12516 -2.65143,-1.75736 -4.24265,-1.75736 -1.59121,0 -3.11747,0.6322 -4.24264,1.75736 -1.12516,1.12516 -1.75736,2.65142 -1.75736,4.24264 0,1.59122 0.6322,3.11748 1.75736,4.24264 1.12517,1.12516 2.65143,1.75736 4.24264,1.75736 z"
             style="fill:#1f77b4;stroke:#000000" />
        </g>
      </g>
      <g
         id="patch_3">
        <path
           d="M 55.7375 345.5525  L 55.7375 12.9125  "
           style="fill: none; stroke: #000000; stroke-width: 1.5; stroke-linejoin: miter; stroke-linecap: square"
           id="path25" />
      </g>
      <g
         id="patch_4">
        <path
           d="M 502.1375 345.5525  L 502.1375 12.9125  "
           style="fill: none; stroke: #000000; stroke-width: 1.5; stroke-linejoin: miter; stroke-linecap: square"
           id="path26" />
      </g>
      <g
         id="patch_5">
        <path
           d="M 55.7375 345.5525  L 502.1375 345.5525  "
           style="fill: none; stroke: #000000; stroke-width: 1.5; stroke-linejoin: miter; stroke-linecap: square"
           id="path27" />
      </g>
      <g
         id="patch_6">
        <path
           d="M 55.7375 12.9125  L 502.1375 12.9125  "
           style="fill: none; stroke: #000000; stroke-width: 1.5; stroke-linejoin: miter; stroke-linecap: square"
           id="path28" />
      </g>
    </g>
  </g>
  <defs
     id="defs28">
    <clipPath
       id="pe4c18e9cf3">
      <rect
         x="55.7375"
         y="12.9125"
         width="446.4"
         height="332.64"
         id="rect28" />
    </clipPath>
  </defs>
</svg>
